<svg width="259" height="260" viewBox="0 0 259 260" fill="none" xmlns="http://www.w3.org/2000/svg">
<rect width="259" height="260" rx="20" fill="white"/>
<g filter="url(#filter0_b_1626_65537)">
<path fill-rule="evenodd" clip-rule="evenodd" d="M129.4 215.846C191.035 215.846 241 192.228 241 130C241 67.7721 191.035 44.1536 129.4 44.1536C67.7649 44.1536 17.7998 67.7721 17.7998 130C17.7998 192.228 67.7649 215.846 129.4 215.846ZM173.756 97.0453C177.123 97.0453 178.605 95.5636 178.605 92.1962V85.0573C178.605 81.69 177.123 80.2083 173.756 80.2083H161.364C157.996 80.2083 156.515 81.69 156.515 85.0573V92.1962C156.515 95.5636 157.996 97.0453 161.364 97.0453H173.756ZM157.996 191.063H163.654C173.486 191.063 178.335 186.214 178.335 176.381V104.319C178.335 100.951 176.854 99.4698 173.486 99.4698H161.633C158.266 99.4698 156.784 100.951 156.784 104.319V173.956C156.784 175.034 156.784 175.842 156.245 176.381C155.966 176.66 155.549 176.731 155.059 176.814C154.367 176.932 153.532 177.074 152.743 177.863C151.8 178.805 151.8 180.422 151.8 181.769V186.214C151.8 189.581 153.686 191.063 157.996 191.063ZM103.288 170.32C104.231 174.226 102.614 176.246 98.5735 176.246H86.0468C83.2182 176.246 81.7366 175.169 81.3325 172.205L75.4059 140.283V171.397C75.4059 174.765 73.9242 176.246 70.5568 176.246H58.7036C55.3362 176.246 53.8546 174.765 53.8546 171.397V85.4614C53.8546 82.094 55.3362 80.6124 58.7036 80.6124H70.5568C73.9242 80.6124 75.4059 82.094 75.4059 85.4614V135.433L82.41 103.241C82.9488 100.547 84.2958 99.4698 87.1244 99.4698H98.8429C103.018 99.4698 104.5 101.49 103.557 105.531L95.4755 136.915L103.288 170.32ZM147.34 148.364C150.572 148.364 152.054 149.846 152.054 153.079V158.466C152.054 170.858 145.858 177.054 133.466 177.054H124.037C111.645 177.054 105.449 170.858 105.449 158.466V117.25C105.449 104.858 111.645 98.6616 124.037 98.6616H133.466C145.858 98.6616 152.054 104.858 152.054 117.25V141.495C152.054 144.862 150.572 146.344 147.205 146.344H126.731V157.928C126.731 159.005 127.135 159.409 128.213 159.409H129.829C130.907 159.409 131.311 159.005 131.311 157.928V152.809C131.311 149.711 132.658 148.364 135.756 148.364H147.34ZM131.041 117.788C131.041 116.711 130.637 116.307 128.886 116.307C127.135 116.307 126.731 116.711 126.731 117.788V130.315H131.041V117.788ZM204.944 92.1962C204.944 95.5636 203.462 97.0453 200.095 97.0453H187.703C184.336 97.0453 182.854 95.5636 182.854 92.1962V85.0573C182.854 81.69 184.336 80.2083 187.703 80.2083H200.095C203.462 80.2083 204.944 81.69 204.944 85.0573V92.1962ZM204.675 171.397C204.675 174.765 203.193 176.246 199.826 176.246H187.972C184.605 176.246 183.123 174.765 183.123 171.397V104.319C183.123 100.951 184.605 99.4698 187.972 99.4698H199.826C203.193 99.4698 204.675 100.951 204.675 104.319V171.397Z" fill="black"/>
</g>
<defs>
<filter id="filter0_b_1626_65537" x="7.55596" y="33.9097" width="243.688" height="192.18" filterUnits="userSpaceOnUse" color-interpolation-filters="sRGB">
<feFlood flood-opacity="0" result="BackgroundImageFix"/>
<feGaussianBlur in="BackgroundImageFix" stdDeviation="5.12192"/>
<feComposite in2="SourceAlpha" operator="in" result="effect1_backgroundBlur_1626_65537"/>
<feBlend mode="normal" in="SourceGraphic" in2="effect1_backgroundBlur_1626_65537" result="shape"/>
</filter>
</defs>
</svg>
