<svg width="260" height="260" viewBox="0 0 260 260" fill="none" xmlns="http://www.w3.org/2000/svg">
<path d="M260 143.444C260 215.27 201.797 242.531 130 242.531C58.203 242.531 0 215.27 0 143.444C0 81.6163 43.1271 52.8098 100.928 45.9881C105.566 45.4408 97.7595 29.502 102.571 19.8985C105.216 14.6189 111.192 25.5764 116.916 25.233C121.766 24.9419 126.436 13 128.746 13C131.056 13 136.254 24.9419 141.676 25.233C148.074 25.5764 154.784 14.6189 157.429 19.8985C162.24 29.502 154.434 45.4408 159.072 45.9881C216.873 52.8098 260 81.6163 260 143.444Z" fill="#EB5757"/>
<g filter="url(#filter0_b_201_1523)">
<path d="M93.6684 194.376C98.4307 194.376 100.336 191.994 99.2245 187.391L90.0172 148.022L99.542 111.034C100.653 106.272 98.907 103.89 93.9859 103.89H80.175C76.8413 103.89 75.2538 105.16 74.6189 108.335L66.3641 146.276V87.3808C66.3641 83.4121 64.6179 81.6659 60.6492 81.6659H46.6796C42.7109 81.6659 40.9647 83.4121 40.9647 87.3808V188.661C40.9647 192.629 42.7109 194.376 46.6796 194.376H60.6492C64.6179 194.376 66.3641 192.629 66.3641 188.661V151.99L73.3489 189.613C73.8251 193.106 75.5713 194.376 78.905 194.376H93.6684Z" fill="#F9E94E"/>
<path d="M156.698 167.071C156.698 163.261 154.952 161.515 151.142 161.515H137.49C133.839 161.515 132.251 163.103 132.251 166.754V172.786C132.251 174.056 131.775 174.532 130.505 174.532H128.6C127.33 174.532 126.854 174.056 126.854 172.786V159.134H150.983C154.952 159.134 156.698 157.388 156.698 153.419V124.845C156.698 110.24 149.396 102.938 134.791 102.938H123.679C109.074 102.938 101.772 110.24 101.772 124.845V173.421C101.772 188.026 109.074 195.328 123.679 195.328H134.791C149.396 195.328 156.698 188.026 156.698 173.421V167.071ZM129.394 123.734C131.457 123.734 131.934 124.21 131.934 125.48V140.243H126.854V125.48C126.854 124.21 127.33 123.734 129.394 123.734Z" fill="#F9E94E"/>
<path d="M182.275 101.033C186.243 101.033 187.989 99.2867 187.989 95.3181V86.9046C187.989 82.9359 186.243 81.1897 182.275 81.1897H167.67C163.701 81.1897 161.955 82.9359 161.955 86.9046V95.3181C161.955 99.2867 163.701 101.033 167.67 101.033H182.275ZM163.701 211.838H170.369C181.957 211.838 187.672 206.123 187.672 194.534V109.605C187.672 105.637 185.926 103.89 181.957 103.89H167.988C164.019 103.89 162.273 105.637 162.273 109.605V191.677C162.273 192.947 162.273 193.899 161.638 194.534C160.844 195.328 159.098 194.693 157.51 196.281C156.399 197.392 156.399 199.297 156.399 200.884V206.123C156.399 210.091 158.621 211.838 163.701 211.838Z" fill="#F9E94E"/>
<path d="M213.317 101.033C217.286 101.033 219.032 99.2867 219.032 95.3181V86.9046C219.032 82.9359 217.286 81.1897 213.317 81.1897H198.712C194.744 81.1897 192.997 82.9359 192.997 86.9046V95.3181C192.997 99.2867 194.744 101.033 198.712 101.033H213.317ZM212.999 194.376C216.968 194.376 218.714 192.629 218.714 188.661V109.605C218.714 105.637 216.968 103.89 212.999 103.89H199.03C195.061 103.89 193.315 105.637 193.315 109.605V188.661C193.315 192.629 195.061 194.376 199.03 194.376H212.999Z" fill="#F9E94E"/>
</g>
<defs>
<filter id="filter0_b_201_1523" x="32.8397" y="73.0647" width="194.317" height="146.898" filterUnits="userSpaceOnUse" color-interpolation-filters="sRGB">
<feFlood flood-opacity="0" result="BackgroundImageFix"/>
<feGaussianBlur in="BackgroundImage" stdDeviation="4.0625"/>
<feComposite in2="SourceAlpha" operator="in" result="effect1_backgroundBlur_201_1523"/>
<feBlend mode="normal" in="SourceGraphic" in2="effect1_backgroundBlur_201_1523" result="shape"/>
</filter>
</defs>
</svg>
