<svg width="384" height="1602" viewBox="0 0 384 1602" fill="none" xmlns="http://www.w3.org/2000/svg">
<g clip-path="url(#clip0_109_6861)">
<path d="M314 654.437C314 725.158 256.692 752 186 752C115.308 752 58 725.158 58 654.437C58 593.561 100.464 565.197 157.376 558.481C161.941 557.942 154.256 542.248 158.993 532.792C161.597 527.594 167.481 538.383 173.117 538.045C177.893 537.758 182.491 526 184.766 526C187.04 526 192.158 537.758 197.496 538.045C203.796 538.383 210.403 527.594 213.007 532.792C217.744 542.248 210.059 557.942 214.624 558.481C271.536 565.197 314 593.561 314 654.437Z" fill="#EB5757"/>
<g filter="url(#filter0_b_109_6861)">
<path d="M150.229 704.585C154.918 704.585 156.794 702.241 155.699 697.708L146.634 658.944L156.012 622.526C157.106 617.837 155.387 615.492 150.541 615.492H136.943C133.661 615.492 132.098 616.742 131.472 619.869L123.345 657.225V599.236C123.345 595.329 121.625 593.61 117.718 593.61H103.963C100.055 593.61 98.3359 595.329 98.3359 599.236V698.958C98.3359 702.866 100.055 704.585 103.963 704.585H117.718C121.625 704.585 123.345 702.866 123.345 698.958V662.852L130.222 699.896C130.691 703.335 132.41 704.585 135.693 704.585H150.229Z" fill="#F9E94E"/>
<path d="M212.289 677.701C212.289 673.95 210.569 672.23 206.818 672.23H193.376C189.781 672.23 188.218 673.793 188.218 677.388V683.328C188.218 684.578 187.749 685.047 186.499 685.047H184.623C183.372 685.047 182.904 684.578 182.904 683.328V669.886H206.662C210.569 669.886 212.289 668.166 212.289 664.259V636.124C212.289 621.744 205.099 614.554 190.719 614.554H179.777C165.398 614.554 158.208 621.744 158.208 636.124V683.953C158.208 698.333 165.398 705.523 179.777 705.523H190.719C205.099 705.523 212.289 698.333 212.289 683.953V677.701ZM185.404 635.03C187.436 635.03 187.905 635.499 187.905 636.749V651.286H182.904V636.749C182.904 635.499 183.372 635.03 185.404 635.03Z" fill="#F9E94E"/>
<path d="M237.472 612.679C241.379 612.679 243.099 610.959 243.099 607.052V598.768C243.099 594.86 241.379 593.141 237.472 593.141H223.092C219.184 593.141 217.465 594.86 217.465 598.768V607.052C217.465 610.959 219.184 612.679 223.092 612.679H237.472ZM219.184 721.779H225.749C237.159 721.779 242.786 716.152 242.786 704.741V621.119C242.786 617.211 241.067 615.492 237.159 615.492H223.405C219.497 615.492 217.778 617.211 217.778 621.119V701.928C217.778 703.178 217.778 704.116 217.152 704.741C216.371 705.523 214.652 704.898 213.088 706.461C211.994 707.555 211.994 709.431 211.994 710.994V716.152C211.994 720.059 214.183 721.779 219.184 721.779Z" fill="#F9E94E"/>
<path d="M268.037 612.679C271.944 612.679 273.664 610.959 273.664 607.052V598.768C273.664 594.86 271.944 593.141 268.037 593.141H253.657C249.749 593.141 248.03 594.86 248.03 598.768V607.052C248.03 610.959 249.749 612.679 253.657 612.679H268.037ZM267.724 704.585C271.632 704.585 273.351 702.866 273.351 698.958V621.119C273.351 617.211 271.632 615.492 267.724 615.492H253.969C250.062 615.492 248.342 617.211 248.342 621.119V698.958C248.342 702.866 250.062 704.585 253.969 704.585H267.724Z" fill="#F9E94E"/>
</g>
<path d="M336 127C336 146.032 310.387 145.383 308.375 153.399C295.643 204.101 244.868 224 184.168 224C124.394 224 74.2427 204.703 60.5705 155.694C59.4434 151.654 50.7501 154.466 46.9 141.734C43.05 129.002 43.0168 124.544 46.9 113.494C50.7832 102.443 59.4434 102.346 60.5705 98.3059C74.2427 49.297 124.394 30 184.168 30C244.868 30 295.643 49.8986 308.375 100.601C310.387 108.617 336 107.968 336 127Z" fill="#F7CD46"/>
<g filter="url(#filter1_b_109_6861)">
<g filter="url(#filter2_b_109_6861)">
<path d="M148.229 181.445C152.918 181.445 154.794 179.1 153.699 174.567L144.634 135.804L154.012 99.3851C155.106 94.696 153.387 92.3514 148.541 92.3514H134.943C131.661 92.3514 130.098 93.6019 129.472 96.7279L121.345 134.085V76.0958C121.345 72.1883 119.625 70.4689 115.718 70.4689H101.963C98.0553 70.4689 96.3359 72.1883 96.3359 76.0958V175.818C96.3359 179.725 98.0553 181.445 101.963 181.445H115.718C119.625 181.445 121.345 179.725 121.345 175.818V139.711L128.222 176.755C128.691 180.194 130.41 181.445 133.693 181.445H148.229Z" fill="#1C2BA4"/>
<path d="M210.289 154.56C210.289 150.809 208.569 149.09 204.818 149.09H191.376C187.781 149.09 186.218 150.653 186.218 154.248V160.187C186.218 161.438 185.749 161.907 184.499 161.907H182.623C181.372 161.907 180.904 161.438 180.904 160.187V146.745H204.662C208.569 146.745 210.289 145.026 210.289 141.118V112.984C210.289 98.6036 203.099 91.4136 188.719 91.4136H177.777C163.398 91.4136 156.208 98.6036 156.208 112.984V160.812C156.208 175.192 163.398 182.382 177.777 182.382H188.719C203.099 182.382 210.289 175.192 210.289 160.812V154.56ZM183.404 111.889C185.436 111.889 185.905 112.358 185.905 113.609V128.145H180.904V113.609C180.904 112.358 181.372 111.889 183.404 111.889Z" fill="#1C2BA4"/>
<path d="M235.472 89.538C239.379 89.538 241.099 87.8186 241.099 83.911V75.6269C241.099 71.7193 239.379 70 235.472 70H221.092C217.184 70 215.465 71.7193 215.465 75.6269V83.911C215.465 87.8186 217.184 89.538 221.092 89.538H235.472ZM217.184 198.638H223.749C235.159 198.638 240.786 193.011 240.786 181.601V97.9784C240.786 94.0708 239.067 92.3514 235.159 92.3514H221.405C217.497 92.3514 215.778 94.0708 215.778 97.9784V178.787C215.778 180.038 215.778 180.976 215.152 181.601C214.371 182.382 212.652 181.757 211.088 183.32C209.994 184.414 209.994 186.29 209.994 187.853V193.011C209.994 196.919 212.183 198.638 217.184 198.638Z" fill="#1C2BA4"/>
<path d="M266.037 89.538C269.944 89.538 271.664 87.8186 271.664 83.911V75.6269C271.664 71.7193 269.944 70 266.037 70H251.657C247.749 70 246.03 71.7193 246.03 75.6269V83.911C246.03 87.8186 247.749 89.538 251.657 89.538H266.037ZM265.724 181.445C269.632 181.445 271.351 179.725 271.351 175.818V97.9784C271.351 94.0708 269.632 92.3514 265.724 92.3514H251.969C248.062 92.3514 246.342 94.0708 246.342 97.9784V175.818C246.342 179.725 248.062 181.445 251.969 181.445H265.724Z" fill="#1C2BA4"/>
</g>
</g>
<path d="M195.27 243.716C193.457 241.634 190.299 241.416 188.216 243.23C188.366 243.104 188.223 243.224 188.212 243.233L188.197 243.246L188.172 243.268C188.153 243.285 188.13 243.306 188.103 243.33C188.048 243.379 187.978 243.444 187.892 243.524C187.72 243.684 187.488 243.906 187.204 244.192C186.637 244.762 185.861 245.585 184.947 246.665C183.121 248.826 180.74 252.022 178.375 256.294C174.253 263.742 170.214 274.407 169.228 288.439C106.502 292.37 58 320.132 58 385.016C58 455.379 115.041 482.086 185.405 482.086C255.769 482.086 312.81 455.379 312.81 385.016C312.81 319.771 263.767 292.062 200.534 288.376C196.057 288.115 186.834 288.03 179.281 288.122C180.274 276.182 183.738 267.256 187.125 261.137C189.135 257.504 191.129 254.843 192.584 253.121C193.311 252.261 193.902 251.637 194.292 251.246C196.328 249.2 197.421 246.185 195.27 243.716Z" fill="#6FCF97"/>
<g filter="url(#filter3_b_109_6861)">
<path d="M150.229 438.585C154.918 438.585 156.794 436.241 155.699 431.708L146.634 392.944L156.012 356.526C157.106 351.837 155.387 349.492 150.541 349.492H136.943C133.661 349.492 132.098 350.742 131.472 353.869L123.345 391.225V333.236C123.345 329.329 121.625 327.61 117.718 327.61H103.963C100.055 327.61 98.3359 329.329 98.3359 333.236V432.958C98.3359 436.866 100.055 438.585 103.963 438.585H117.718C121.625 438.585 123.345 436.866 123.345 432.958V396.852L130.222 433.896C130.691 437.335 132.41 438.585 135.693 438.585H150.229Z" fill="#59105C"/>
<path d="M212.289 411.701C212.289 407.95 210.569 406.23 206.818 406.23H193.376C189.781 406.23 188.218 407.793 188.218 411.388V417.328C188.218 418.578 187.749 419.047 186.499 419.047H184.623C183.372 419.047 182.904 418.578 182.904 417.328V403.886H206.662C210.569 403.886 212.289 402.166 212.289 398.259V370.124C212.289 355.744 205.099 348.554 190.719 348.554H179.777C165.398 348.554 158.208 355.744 158.208 370.124V417.953C158.208 432.333 165.398 439.523 179.777 439.523H190.719C205.099 439.523 212.289 432.333 212.289 417.953V411.701ZM185.404 369.03C187.436 369.03 187.905 369.499 187.905 370.749V385.286H182.904V370.749C182.904 369.499 183.372 369.03 185.404 369.03Z" fill="#59105C"/>
<path d="M237.472 346.679C241.379 346.679 243.099 344.959 243.099 341.052V332.768C243.099 328.86 241.379 327.141 237.472 327.141H223.092C219.184 327.141 217.465 328.86 217.465 332.768V341.052C217.465 344.959 219.184 346.679 223.092 346.679H237.472ZM219.184 455.779H225.749C237.159 455.779 242.786 450.152 242.786 438.741V355.119C242.786 351.211 241.067 349.492 237.159 349.492H223.405C219.497 349.492 217.778 351.211 217.778 355.119V435.928C217.778 437.178 217.778 438.116 217.152 438.741C216.371 439.523 214.652 438.898 213.088 440.461C211.994 441.555 211.994 443.431 211.994 444.994V450.152C211.994 454.059 214.183 455.779 219.184 455.779Z" fill="#59105C"/>
<path d="M268.037 346.679C271.944 346.679 273.664 344.959 273.664 341.052V332.768C273.664 328.86 271.944 327.141 268.037 327.141H253.657C249.749 327.141 248.03 328.86 248.03 332.768V341.052C248.03 344.959 249.749 346.679 253.657 346.679H268.037ZM267.724 438.585C271.632 438.585 273.351 436.866 273.351 432.958V355.119C273.351 351.211 271.632 349.492 267.724 349.492H253.969C250.062 349.492 248.342 351.211 248.342 355.119V432.958C248.342 436.866 250.062 438.585 253.969 438.585H267.724Z" fill="#59105C"/>
</g>
<g filter="url(#filter4_b_109_6861)">
<path fill-rule="evenodd" clip-rule="evenodd" d="M235.25 1025.54C280.302 1011.56 313.25 986.063 313.25 933C313.25 861.962 255.662 835 184.625 835C113.587 835 56 861.962 56 933C56 986.063 88.1319 1014.53 134 1025.54C163 1032.51 184.625 1051 184.625 1051C184.625 1051 208 1034 235.25 1025.54ZM235.472 895.679C239.379 895.679 241.099 893.959 241.099 890.052V881.768C241.099 877.86 239.379 876.141 235.472 876.141H221.092C217.184 876.141 215.465 877.86 215.465 881.768V890.052C215.465 893.959 217.184 895.679 221.092 895.679H235.472ZM217.184 1004.78H223.749C235.159 1004.78 240.786 999.152 240.786 987.741V904.119C240.786 900.211 239.067 898.492 235.159 898.492H221.405C217.497 898.492 215.778 900.211 215.778 904.119V984.928C215.778 986.178 215.778 987.116 215.152 987.741C214.829 988.065 214.344 988.148 213.776 988.244C212.973 988.38 212.004 988.545 211.088 989.461C209.994 990.555 209.994 992.431 209.994 993.994V999.152C209.994 1003.06 212.183 1004.78 217.184 1004.78ZM153.699 980.708C154.794 985.241 152.918 987.585 148.229 987.585H133.693C130.41 987.585 128.691 986.335 128.222 982.896L121.345 945.852V981.958C121.345 985.866 119.625 987.585 115.718 987.585H101.963C98.0553 987.585 96.3359 985.866 96.3359 981.958V882.236C96.3359 878.329 98.0553 876.61 101.963 876.61H115.718C119.625 876.61 121.345 878.329 121.345 882.236V940.225L129.472 902.869C130.098 899.742 131.661 898.492 134.943 898.492H148.541C153.387 898.492 155.106 900.837 154.012 905.526L144.634 941.944L153.699 980.708ZM204.818 955.23C208.569 955.23 210.289 956.95 210.289 960.701V966.953C210.289 981.333 203.099 988.523 188.719 988.523H177.777C163.398 988.523 156.208 981.333 156.208 966.953V919.124C156.208 904.744 163.398 897.554 177.777 897.554H188.719C203.099 897.554 210.289 904.744 210.289 919.124V947.259C210.289 951.166 208.569 952.886 204.662 952.886H180.904V966.328C180.904 967.578 181.372 968.047 182.623 968.047H184.499C185.749 968.047 186.218 967.578 186.218 966.328V960.388C186.218 956.793 187.781 955.23 191.376 955.23H204.818ZM185.905 919.749C185.905 918.499 185.436 918.03 183.404 918.03C181.372 918.03 180.904 918.499 180.904 919.749V934.286H185.905V919.749ZM271.663 890.052C271.663 893.959 269.944 895.679 266.037 895.679H251.657C247.749 895.679 246.03 893.959 246.03 890.052V881.768C246.03 877.86 247.749 876.141 251.657 876.141H266.037C269.944 876.141 271.663 877.86 271.663 881.768V890.052ZM271.351 981.958C271.351 985.866 269.632 987.585 265.724 987.585H251.969C248.062 987.585 246.342 985.866 246.342 981.958V904.119C246.342 900.211 248.062 898.492 251.969 898.492H265.724C269.632 898.492 271.351 900.211 271.351 904.119V981.958Z" fill="#752278"/>
<path d="M196.617 786.574L191.474 834.574C191.221 836.938 193.074 839 195.451 839H198.822C200.683 839 202.298 837.717 202.719 835.905L213.861 787.905C214.444 785.397 212.54 783 209.965 783H200.594C198.55 783 196.835 784.541 196.617 786.574Z" fill="#752278"/>
<path d="M174.331 774.749L179.615 834.632C179.821 836.977 181.999 838.637 184.315 838.216L187.858 837.571C189.696 837.237 191.058 835.676 191.139 833.81L193.789 772.85C193.898 770.336 191.688 768.347 189.2 768.72L177.722 770.442C175.631 770.755 174.145 772.643 174.331 774.749Z" fill="#752278"/>
<g filter="url(#filter5_b_109_6861)">
<path d="M148.229 987.585C152.918 987.585 154.794 985.241 153.699 980.708L144.634 941.944L154.012 905.526C155.106 900.837 153.387 898.492 148.541 898.492H134.943C131.661 898.492 130.098 899.742 129.472 902.869L121.345 940.225V882.236C121.345 878.329 119.625 876.61 115.718 876.61H101.963C98.0553 876.61 96.3359 878.329 96.3359 882.236V981.958C96.3359 985.866 98.0553 987.585 101.963 987.585H115.718C119.625 987.585 121.345 985.866 121.345 981.958V945.852L128.222 982.896C128.691 986.335 130.41 987.585 133.693 987.585H148.229Z" fill="#FB59CD"/>
<path d="M210.289 960.701C210.289 956.95 208.569 955.23 204.818 955.23H191.376C187.781 955.23 186.218 956.793 186.218 960.388V966.328C186.218 967.578 185.749 968.047 184.499 968.047H182.623C181.372 968.047 180.904 967.578 180.904 966.328V952.886H204.662C208.569 952.886 210.289 951.166 210.289 947.259V919.124C210.289 904.744 203.099 897.554 188.719 897.554H177.777C163.398 897.554 156.208 904.744 156.208 919.124V966.953C156.208 981.333 163.398 988.523 177.777 988.523H188.719C203.099 988.523 210.289 981.333 210.289 966.953V960.701ZM183.404 918.03C185.436 918.03 185.905 918.499 185.905 919.749V934.286H180.904V919.749C180.904 918.499 181.372 918.03 183.404 918.03Z" fill="#FB59CD"/>
<path d="M235.472 895.679C239.379 895.679 241.099 893.959 241.099 890.052V881.768C241.099 877.86 239.379 876.141 235.472 876.141H221.092C217.184 876.141 215.465 877.86 215.465 881.768V890.052C215.465 893.959 217.184 895.679 221.092 895.679H235.472ZM217.184 1004.78H223.749C235.159 1004.78 240.786 999.152 240.786 987.741V904.119C240.786 900.211 239.067 898.492 235.159 898.492H221.405C217.497 898.492 215.778 900.211 215.778 904.119V984.928C215.778 986.178 215.778 987.116 215.152 987.741C214.371 988.523 212.652 987.898 211.088 989.461C209.994 990.555 209.994 992.431 209.994 993.994V999.152C209.994 1003.06 212.183 1004.78 217.184 1004.78Z" fill="#FB59CD"/>
<path d="M266.037 895.679C269.944 895.679 271.664 893.959 271.664 890.052V881.768C271.664 877.86 269.944 876.141 266.037 876.141H251.657C247.749 876.141 246.03 877.86 246.03 881.768V890.052C246.03 893.959 247.749 895.679 251.657 895.679H266.037ZM265.724 987.585C269.632 987.585 271.351 985.866 271.351 981.958V904.119C271.351 900.211 269.632 898.492 265.724 898.492H251.969C248.062 898.492 246.342 900.211 246.342 904.119V981.958C246.342 985.866 248.062 987.585 251.969 987.585H265.724Z" fill="#FB59CD"/>
</g>
</g>
<g filter="url(#filter6_b_109_6861)">
<path fill-rule="evenodd" clip-rule="evenodd" d="M186.798 1099.86C190.558 1081.67 206.667 1068 225.969 1068H255.969V1070C255.969 1092.09 238.06 1110 215.969 1110H190.02C190.766 1113.42 191.227 1117.11 191.227 1121C191.227 1121.49 191.157 1121.96 191.026 1122.41C196.691 1123.17 200.406 1124.9 203.82 1126.48C206.823 1127.88 209.593 1129.17 213.25 1129.6C270.51 1136.31 313.25 1164.8 313.25 1226C313.25 1282.47 276.859 1311.09 226.25 1320.45C217.528 1322.06 209.959 1320.34 202.273 1318.59C196.621 1317.3 190.907 1316 184.625 1316C178.343 1316 172.628 1317.3 166.977 1318.59C159.291 1320.34 151.722 1322.06 143 1320.45C92.3905 1311.09 56 1282.47 56 1226C56 1164.8 98.7403 1136.31 156 1129.6C159.657 1129.17 162.427 1127.88 165.43 1126.48C169.434 1124.62 173.854 1122.57 181.348 1122.1C181.268 1121.75 181.227 1121.38 181.227 1121C181.227 1112.56 178.502 1105.11 175.679 1099.68C174.276 1096.99 172.876 1094.84 171.84 1093.38C171.323 1092.66 170.899 1092.11 170.616 1091.75C170.474 1091.57 170.368 1091.45 170.303 1091.37C170.27 1091.33 170.248 1091.3 170.236 1091.29L170.234 1091.29L170.234 1091.29L170.228 1091.28C168.421 1089.2 168.637 1086.05 170.714 1084.23C172.794 1082.42 175.953 1082.63 177.769 1084.71L174.003 1088C177.769 1084.71 177.77 1084.71 177.771 1084.71L177.774 1084.72L177.78 1084.72L177.795 1084.74L177.839 1084.79C177.874 1084.83 177.92 1084.89 177.977 1084.96C178.091 1085.09 178.247 1085.28 178.44 1085.52C178.825 1086.01 179.357 1086.7 179.985 1087.58C181.241 1089.35 182.897 1091.89 184.55 1095.07C185.308 1096.53 186.072 1098.13 186.798 1099.86Z" fill="#EB5E64"/>
<g filter="url(#filter7_b_109_6861)">
<path d="M148.229 1280.59C152.918 1280.59 154.794 1278.24 153.699 1273.71L144.634 1234.94L154.012 1198.53C155.106 1193.84 153.387 1191.49 148.541 1191.49H134.943C131.661 1191.49 130.098 1192.74 129.472 1195.87L121.345 1233.23V1175.24C121.345 1171.33 119.625 1169.61 115.718 1169.61H101.963C98.0553 1169.61 96.3359 1171.33 96.3359 1175.24V1274.96C96.3359 1278.87 98.0553 1280.59 101.963 1280.59H115.718C119.625 1280.59 121.345 1278.87 121.345 1274.96V1238.85L128.222 1275.9C128.691 1279.33 130.41 1280.59 133.693 1280.59H148.229Z" fill="#1C2BA4"/>
<path d="M210.289 1253.7C210.289 1249.95 208.569 1248.23 204.818 1248.23H191.376C187.781 1248.23 186.218 1249.79 186.218 1253.39V1259.33C186.218 1260.58 185.749 1261.05 184.499 1261.05H182.623C181.372 1261.05 180.904 1260.58 180.904 1259.33V1245.89H204.662C208.569 1245.89 210.289 1244.17 210.289 1240.26V1212.12C210.289 1197.74 203.099 1190.55 188.719 1190.55H177.777C163.398 1190.55 156.208 1197.74 156.208 1212.12V1259.95C156.208 1274.33 163.398 1281.52 177.777 1281.52H188.719C203.099 1281.52 210.289 1274.33 210.289 1259.95V1253.7ZM183.404 1211.03C185.436 1211.03 185.905 1211.5 185.905 1212.75V1227.29H180.904V1212.75C180.904 1211.5 181.372 1211.03 183.404 1211.03Z" fill="#1C2BA4"/>
<path d="M235.472 1188.68C239.379 1188.68 241.099 1186.96 241.099 1183.05V1174.77C241.099 1170.86 239.379 1169.14 235.472 1169.14H221.092C217.184 1169.14 215.465 1170.86 215.465 1174.77V1183.05C215.465 1186.96 217.184 1188.68 221.092 1188.68H235.472ZM217.184 1297.78H223.749C235.159 1297.78 240.786 1292.15 240.786 1280.74V1197.12C240.786 1193.21 239.067 1191.49 235.159 1191.49H221.405C217.497 1191.49 215.778 1193.21 215.778 1197.12V1277.93C215.778 1279.18 215.778 1280.12 215.152 1280.74C214.371 1281.52 212.652 1280.9 211.088 1282.46C209.994 1283.55 209.994 1285.43 209.994 1286.99V1292.15C209.994 1296.06 212.183 1297.78 217.184 1297.78Z" fill="#1C2BA4"/>
<path d="M266.037 1188.68C269.944 1188.68 271.664 1186.96 271.664 1183.05V1174.77C271.664 1170.86 269.944 1169.14 266.037 1169.14H251.657C247.749 1169.14 246.03 1170.86 246.03 1174.77V1183.05C246.03 1186.96 247.749 1188.68 251.657 1188.68H266.037ZM265.724 1280.59C269.632 1280.59 271.351 1278.87 271.351 1274.96V1197.12C271.351 1193.21 269.632 1191.49 265.724 1191.49H251.969C248.062 1191.49 246.342 1193.21 246.342 1197.12V1274.96C246.342 1278.87 248.062 1280.59 251.969 1280.59H265.724Z" fill="#1C2BA4"/>
</g>
</g>
<path fill-rule="evenodd" clip-rule="evenodd" d="M315.626 1478.99C315.849 1480.61 316.144 1482.21 316.434 1483.79C317.216 1488.03 317.966 1492.1 317.191 1496C306.332 1550.68 253.796 1572 190.625 1572C132.299 1572 83.041 1553.82 67.2793 1508C66.4921 1505.71 65.5785 1503.35 64.6376 1500.93L64.6376 1500.93C61.4726 1492.76 58 1483.8 58 1474C58 1464.2 61.4726 1455.24 64.6376 1447.07L64.6376 1447.07C65.5785 1444.65 66.4921 1442.29 67.2793 1440C83.041 1394.18 132.299 1376 190.625 1376C253.797 1376 306.332 1397.32 317.191 1452C317.966 1455.9 317.216 1459.97 316.434 1464.21C316.144 1465.79 315.849 1467.39 315.626 1469.01C315.749 1469 315.874 1469 316 1469C320.778 1469 324.507 1468.28 328.441 1467.53C329.486 1467.33 330.545 1467.13 331.642 1466.93C336.856 1466.01 342.409 1465.47 349.392 1467.49C355.073 1469.14 359.838 1470.02 363.152 1470.49C364.809 1470.72 366.099 1470.85 366.957 1470.92C367.386 1470.96 367.706 1470.98 367.91 1470.99C368.011 1471 368.084 1471 368.126 1471L368.16 1471L368.001 1475.98C368.16 1471 368.161 1471 368.162 1471L372.997 1476.16C372.909 1478.92 370.6 1481.09 367.84 1481L368 1476C367.84 1481 367.839 1481 367.838 1481L367.836 1481L367.831 1481L367.819 1481L367.786 1481C367.761 1480.99 367.727 1480.99 367.686 1480.99C367.603 1480.99 367.489 1480.98 367.346 1480.97C367.059 1480.96 366.652 1480.93 366.134 1480.89C365.098 1480.8 363.615 1480.65 361.756 1480.39C358.04 1479.87 352.805 1478.89 346.608 1477.1C341.712 1475.68 337.885 1475.99 333.378 1476.78C332.523 1476.93 331.625 1477.11 330.681 1477.29L330.68 1477.29C326.663 1478.06 321.823 1479 316 1479C315.874 1479 315.749 1479 315.626 1478.99ZM247.099 1431.05C247.099 1434.96 245.379 1436.68 241.472 1436.68H227.092C223.184 1436.68 221.465 1434.96 221.465 1431.05V1422.77C221.465 1418.86 223.184 1417.14 227.092 1417.14H241.472C245.379 1417.14 247.099 1418.86 247.099 1422.77V1431.05ZM229.749 1545.78H223.184C218.183 1545.78 215.994 1544.06 215.994 1540.15V1534.99C215.994 1533.43 215.994 1531.55 217.088 1530.46C218.004 1529.55 218.973 1529.38 219.776 1529.24C220.344 1529.15 220.829 1529.07 221.152 1528.74C221.778 1528.12 221.778 1527.18 221.778 1525.93V1445.12C221.778 1441.21 223.497 1439.49 227.405 1439.49H241.159C245.067 1439.49 246.786 1441.21 246.786 1445.12V1528.74C246.786 1540.15 241.159 1545.78 229.749 1545.78ZM154.229 1528.59C158.918 1528.59 160.794 1526.24 159.699 1521.71L150.634 1482.94L160.012 1446.53C161.106 1441.84 159.387 1439.49 154.541 1439.49H140.943C137.661 1439.49 136.098 1440.74 135.472 1443.87L127.345 1481.23V1423.24C127.345 1419.33 125.625 1417.61 121.718 1417.61H107.963C104.055 1417.61 102.336 1419.33 102.336 1423.24V1522.96C102.336 1526.87 104.055 1528.59 107.963 1528.59H121.718C125.625 1528.59 127.345 1526.87 127.345 1522.96V1486.85L134.222 1523.9C134.691 1527.33 136.41 1528.59 139.693 1528.59H154.229ZM216.289 1501.7C216.289 1497.95 214.569 1496.23 210.818 1496.23H197.376C193.781 1496.23 192.218 1497.79 192.218 1501.39V1507.33C192.218 1508.58 191.749 1509.05 190.499 1509.05H188.623C187.372 1509.05 186.904 1508.58 186.904 1507.33V1493.89H210.662C214.569 1493.89 216.289 1492.17 216.289 1488.26V1460.12C216.289 1445.74 209.099 1438.55 194.719 1438.55H183.777C169.398 1438.55 162.208 1445.74 162.208 1460.12V1507.95C162.208 1522.33 169.398 1529.52 183.777 1529.52H194.719C209.099 1529.52 216.289 1522.33 216.289 1507.95V1501.7ZM189.404 1459.03C191.436 1459.03 191.905 1459.5 191.905 1460.75V1475.29H186.904V1460.75C186.904 1459.5 187.372 1459.03 189.404 1459.03ZM272.037 1436.68C275.944 1436.68 277.663 1434.96 277.663 1431.05V1422.77C277.663 1418.86 275.944 1417.14 272.037 1417.14H257.657C253.749 1417.14 252.03 1418.86 252.03 1422.77V1431.05C252.03 1434.96 253.749 1436.68 257.657 1436.68H272.037ZM271.724 1528.59C275.632 1528.59 277.351 1526.87 277.351 1522.96V1445.12C277.351 1441.21 275.632 1439.49 271.724 1439.49H257.969C254.062 1439.49 252.342 1441.21 252.342 1445.12V1522.96C252.342 1526.87 254.062 1528.59 257.969 1528.59H271.724Z" fill="#10175B"/>
<g filter="url(#filter8_b_109_6861)">
<path d="M154.229 1528.59C158.918 1528.59 160.794 1526.24 159.699 1521.71L150.634 1482.94L160.012 1446.53C161.106 1441.84 159.387 1439.49 154.541 1439.49H140.943C137.661 1439.49 136.098 1440.74 135.472 1443.87L127.345 1481.23V1423.24C127.345 1419.33 125.625 1417.61 121.718 1417.61H107.963C104.055 1417.61 102.336 1419.33 102.336 1423.24V1522.96C102.336 1526.87 104.055 1528.59 107.963 1528.59H121.718C125.625 1528.59 127.345 1526.87 127.345 1522.96V1486.85L134.222 1523.9C134.691 1527.33 136.41 1528.59 139.693 1528.59H154.229Z" fill="#6FCF97"/>
<path d="M216.289 1501.7C216.289 1497.95 214.569 1496.23 210.818 1496.23H197.376C193.781 1496.23 192.218 1497.79 192.218 1501.39V1507.33C192.218 1508.58 191.749 1509.05 190.499 1509.05H188.623C187.372 1509.05 186.904 1508.58 186.904 1507.33V1493.89H210.662C214.569 1493.89 216.289 1492.17 216.289 1488.26V1460.12C216.289 1445.74 209.099 1438.55 194.719 1438.55H183.777C169.398 1438.55 162.208 1445.74 162.208 1460.12V1507.95C162.208 1522.33 169.398 1529.52 183.777 1529.52H194.719C209.099 1529.52 216.289 1522.33 216.289 1507.95V1501.7ZM189.404 1459.03C191.436 1459.03 191.905 1459.5 191.905 1460.75V1475.29H186.904V1460.75C186.904 1459.5 187.372 1459.03 189.404 1459.03Z" fill="#6FCF97"/>
<path d="M241.472 1436.68C245.379 1436.68 247.099 1434.96 247.099 1431.05V1422.77C247.099 1418.86 245.379 1417.14 241.472 1417.14H227.092C223.184 1417.14 221.465 1418.86 221.465 1422.77V1431.05C221.465 1434.96 223.184 1436.68 227.092 1436.68H241.472ZM223.184 1545.78H229.749C241.159 1545.78 246.786 1540.15 246.786 1528.74V1445.12C246.786 1441.21 245.067 1439.49 241.159 1439.49H227.405C223.497 1439.49 221.778 1441.21 221.778 1445.12V1525.93C221.778 1527.18 221.778 1528.12 221.152 1528.74C220.371 1529.52 218.652 1528.9 217.088 1530.46C215.994 1531.55 215.994 1533.43 215.994 1534.99V1540.15C215.994 1544.06 218.183 1545.78 223.184 1545.78Z" fill="#6FCF97"/>
<path d="M272.037 1436.68C275.944 1436.68 277.664 1434.96 277.664 1431.05V1422.77C277.664 1418.86 275.944 1417.14 272.037 1417.14H257.657C253.749 1417.14 252.03 1418.86 252.03 1422.77V1431.05C252.03 1434.96 253.749 1436.68 257.657 1436.68H272.037ZM271.724 1528.59C275.632 1528.59 277.351 1526.87 277.351 1522.96V1445.12C277.351 1441.21 275.632 1439.49 271.724 1439.49H257.969C254.062 1439.49 252.342 1441.21 252.342 1445.12V1522.96C252.342 1526.87 254.062 1528.59 257.969 1528.59H271.724Z" fill="#6FCF97"/>
</g>
</g>
<defs>
<filter id="filter0_b_109_6861" x="90.3359" y="585.141" width="191.328" height="144.637" filterUnits="userSpaceOnUse" color-interpolation-filters="sRGB">
<feFlood flood-opacity="0" result="BackgroundImageFix"/>
<feGaussianBlur in="BackgroundImage" stdDeviation="4"/>
<feComposite in2="SourceAlpha" operator="in" result="effect1_backgroundBlur_109_6861"/>
<feBlend mode="normal" in="SourceGraphic" in2="effect1_backgroundBlur_109_6861" result="shape"/>
</filter>
<filter id="filter1_b_109_6861" x="-3.66406" y="-30" width="375.328" height="328.637" filterUnits="userSpaceOnUse" color-interpolation-filters="sRGB">
<feFlood flood-opacity="0" result="BackgroundImageFix"/>
<feGaussianBlur in="BackgroundImage" stdDeviation="50"/>
<feComposite in2="SourceAlpha" operator="in" result="effect1_backgroundBlur_109_6861"/>
<feBlend mode="normal" in="SourceGraphic" in2="effect1_backgroundBlur_109_6861" result="shape"/>
</filter>
<filter id="filter2_b_109_6861" x="88.3359" y="62" width="191.328" height="144.637" filterUnits="userSpaceOnUse" color-interpolation-filters="sRGB">
<feFlood flood-opacity="0" result="BackgroundImageFix"/>
<feGaussianBlur in="BackgroundImage" stdDeviation="4"/>
<feComposite in2="SourceAlpha" operator="in" result="effect1_backgroundBlur_109_6861"/>
<feBlend mode="normal" in="SourceGraphic" in2="effect1_backgroundBlur_109_6861" result="shape"/>
</filter>
<filter id="filter3_b_109_6861" x="90.3359" y="319.141" width="191.328" height="144.637" filterUnits="userSpaceOnUse" color-interpolation-filters="sRGB">
<feFlood flood-opacity="0" result="BackgroundImageFix"/>
<feGaussianBlur in="BackgroundImage" stdDeviation="4"/>
<feComposite in2="SourceAlpha" operator="in" result="effect1_backgroundBlur_109_6861"/>
<feBlend mode="normal" in="SourceGraphic" in2="effect1_backgroundBlur_109_6861" result="shape"/>
</filter>
<filter id="filter4_b_109_6861" x="-44" y="668.676" width="457.25" height="482.324" filterUnits="userSpaceOnUse" color-interpolation-filters="sRGB">
<feFlood flood-opacity="0" result="BackgroundImageFix"/>
<feGaussianBlur in="BackgroundImage" stdDeviation="50"/>
<feComposite in2="SourceAlpha" operator="in" result="effect1_backgroundBlur_109_6861"/>
<feBlend mode="normal" in="SourceGraphic" in2="effect1_backgroundBlur_109_6861" result="shape"/>
</filter>
<filter id="filter5_b_109_6861" x="88.3359" y="868.141" width="191.328" height="144.637" filterUnits="userSpaceOnUse" color-interpolation-filters="sRGB">
<feFlood flood-opacity="0" result="BackgroundImageFix"/>
<feGaussianBlur in="BackgroundImage" stdDeviation="4"/>
<feComposite in2="SourceAlpha" operator="in" result="effect1_backgroundBlur_109_6861"/>
<feBlend mode="normal" in="SourceGraphic" in2="effect1_backgroundBlur_109_6861" result="shape"/>
</filter>
<filter id="filter6_b_109_6861" x="-44" y="968" width="457.25" height="453.094" filterUnits="userSpaceOnUse" color-interpolation-filters="sRGB">
<feFlood flood-opacity="0" result="BackgroundImageFix"/>
<feGaussianBlur in="BackgroundImage" stdDeviation="50"/>
<feComposite in2="SourceAlpha" operator="in" result="effect1_backgroundBlur_109_6861"/>
<feBlend mode="normal" in="SourceGraphic" in2="effect1_backgroundBlur_109_6861" result="shape"/>
</filter>
<filter id="filter7_b_109_6861" x="88.3359" y="1161.14" width="191.328" height="144.637" filterUnits="userSpaceOnUse" color-interpolation-filters="sRGB">
<feFlood flood-opacity="0" result="BackgroundImageFix"/>
<feGaussianBlur in="BackgroundImage" stdDeviation="4"/>
<feComposite in2="SourceAlpha" operator="in" result="effect1_backgroundBlur_109_6861"/>
<feBlend mode="normal" in="SourceGraphic" in2="effect1_backgroundBlur_109_6861" result="shape"/>
</filter>
<filter id="filter8_b_109_6861" x="94.3359" y="1409.14" width="191.328" height="144.637" filterUnits="userSpaceOnUse" color-interpolation-filters="sRGB">
<feFlood flood-opacity="0" result="BackgroundImageFix"/>
<feGaussianBlur in="BackgroundImage" stdDeviation="4"/>
<feComposite in2="SourceAlpha" operator="in" result="effect1_backgroundBlur_109_6861"/>
<feBlend mode="normal" in="SourceGraphic" in2="effect1_backgroundBlur_109_6861" result="shape"/>
</filter>
<clipPath id="clip0_109_6861">
<rect width="384" height="1602" fill="white"/>
</clipPath>
</defs>
</svg>
