<svg width="501" height="76" viewBox="0 0 501 76" fill="none" xmlns="http://www.w3.org/2000/svg">
<path d="M240.547 45.1491C240.547 64.008 225.265 71.1659 206.413 71.1659C187.562 71.1659 172.28 64.008 172.28 45.1491C172.28 28.9154 183.604 21.3518 198.78 19.5607C199.998 19.417 197.948 15.232 199.211 12.7105C199.906 11.3243 201.475 14.2013 202.978 14.1111C204.251 14.0347 205.478 10.8992 206.084 10.8992C206.691 10.8992 208.055 14.0347 209.479 14.1111C211.159 14.2013 212.921 11.3243 213.615 12.7105C214.879 15.232 212.829 19.417 214.047 19.5607C229.223 21.3518 240.547 28.9154 240.547 45.1491Z" fill="#EB5757"/>
<g filter="url(#filter0_b_731_10709)">
<path d="M196.874 58.5219C198.125 58.5219 198.625 57.8967 198.333 56.6879L195.916 46.3511L198.416 36.6394C198.708 35.389 198.25 34.7637 196.958 34.7637H193.331C192.456 34.7637 192.039 35.0972 191.873 35.9308L189.705 45.8926V30.4289C189.705 29.3869 189.247 28.9284 188.205 28.9284H184.537C183.495 28.9284 183.036 29.3869 183.036 30.4289V57.0214C183.036 58.0634 183.495 58.5219 184.537 58.5219H188.205C189.247 58.5219 189.705 58.0634 189.705 57.0214V47.3931L191.539 57.2715C191.664 58.1885 192.123 58.5219 192.998 58.5219H196.874Z" fill="#F9E94E"/>
<path d="M213.424 51.3528C213.424 50.3524 212.965 49.8939 211.965 49.8939H208.38C207.421 49.8939 207.005 50.3107 207.005 51.2694V52.8533C207.005 53.1867 206.88 53.3118 206.546 53.3118H206.046C205.713 53.3118 205.587 53.1867 205.587 52.8533V49.2687H211.923C212.965 49.2687 213.424 48.8102 213.424 47.7682V40.2656C213.424 36.431 211.506 34.5137 207.672 34.5137H204.754C200.919 34.5137 199.002 36.431 199.002 40.2656V53.02C199.002 56.8547 200.919 58.772 204.754 58.772H207.672C211.506 58.772 213.424 56.8547 213.424 53.02V51.3528ZM206.254 39.9739C206.796 39.9739 206.921 40.0989 206.921 40.4324V44.3087H205.587V40.4324C205.587 40.0989 205.713 39.9739 206.254 39.9739Z" fill="#F9E94E"/>
<path d="M220.139 34.0135C221.181 34.0135 221.64 33.555 221.64 32.513V30.3039C221.64 29.2619 221.181 28.8034 220.139 28.8034H216.304C215.262 28.8034 214.804 29.2619 214.804 30.3039V32.513C214.804 33.555 215.262 34.0135 216.304 34.0135H220.139ZM215.262 63.1068H217.013C220.056 63.1068 221.556 61.6063 221.556 58.5636V36.2643C221.556 35.2222 221.098 34.7637 220.056 34.7637H216.388C215.346 34.7637 214.887 35.2222 214.887 36.2643V57.8133C214.887 58.1468 214.887 58.3969 214.721 58.5636C214.512 58.772 214.054 58.6053 213.637 59.0221C213.345 59.3138 213.345 59.814 213.345 60.2308V61.6063C213.345 62.6483 213.929 63.1068 215.262 63.1068Z" fill="#F9E94E"/>
<path d="M228.29 34.0135C229.332 34.0135 229.79 33.555 229.79 32.513V30.3039C229.79 29.2619 229.332 28.8034 228.29 28.8034H224.455C223.413 28.8034 222.954 29.2619 222.954 30.3039V32.513C222.954 33.555 223.413 34.0135 224.455 34.0135H228.29ZM228.206 58.5219C229.248 58.5219 229.707 58.0634 229.707 57.0214V36.2643C229.707 35.2222 229.248 34.7637 228.206 34.7637H224.538C223.496 34.7637 223.038 35.2222 223.038 36.2643V57.0214C223.038 58.0634 223.496 58.5219 224.538 58.5219H228.206Z" fill="#F9E94E"/>
</g>
<path d="M78.1999 43.9787C78.1999 49.0538 71.3699 48.8809 70.8332 51.0183C67.4381 64.5391 53.898 69.8453 37.7115 69.8453C21.7715 69.8453 8.39796 64.6995 4.75204 51.6304C4.45148 50.5531 2.13328 51.303 1.1066 47.9078C0.0799128 44.5126 0.0710776 43.3238 1.1066 40.377C2.14212 37.4301 4.45148 37.4043 4.75204 36.3269C8.39796 23.2579 21.7715 18.112 37.7115 18.112C53.898 18.112 67.4382 23.4183 70.8332 36.939C71.3699 39.0764 78.1999 38.9036 78.1999 43.9787Z" fill="#F7CD46"/>
<g filter="url(#filter1_b_731_10709)">
<g filter="url(#filter2_b_731_10709)">
<path d="M28.1276 58.4972C29.3781 58.4972 29.8782 57.872 29.5865 56.6633L27.169 46.3264L29.6698 36.6147C29.9616 35.3643 29.5031 34.7391 28.211 34.7391H24.5848C23.7095 34.7391 23.2926 35.0725 23.1259 35.9061L20.9585 45.8679V30.4042C20.9585 29.3622 20.5 28.9037 19.458 28.9037H15.7901C14.748 28.9037 14.2896 29.3622 14.2896 30.4042V56.9967C14.2896 58.0387 14.748 58.4972 15.7901 58.4972H19.458C20.5 58.4972 20.9585 58.0387 20.9585 56.9967V47.3684L22.7925 57.2468C22.9175 58.1638 23.376 58.4972 24.2513 58.4972H28.1276Z" fill="#1C2BA4"/>
<path d="M44.6769 51.3281C44.6769 50.3277 44.2184 49.8693 43.2181 49.8693H39.6335C38.6749 49.8693 38.2581 50.2861 38.2581 51.2447V52.8286C38.2581 53.1621 38.133 53.2871 37.7996 53.2871H37.2994C36.966 53.2871 36.8409 53.1621 36.8409 52.8286V49.244H43.1764C44.2184 49.244 44.6769 48.7855 44.6769 47.7435V40.2409C44.6769 36.4063 42.7596 34.489 38.925 34.489H36.0073C32.1726 34.489 30.2553 36.4063 30.2553 40.2409V52.9953C30.2553 56.83 32.1726 58.7473 36.0073 58.7473H38.925C42.7596 58.7473 44.6769 56.83 44.6769 52.9953V51.3281ZM37.5078 39.9492C38.0497 39.9492 38.1747 40.0742 38.1747 40.4077V44.284H36.8409V40.4077C36.8409 40.0742 36.966 39.9492 37.5078 39.9492Z" fill="#1C2BA4"/>
<path d="M51.3925 33.9888C52.4345 33.9888 52.893 33.5303 52.893 32.4883V30.2792C52.893 29.2372 52.4345 28.7787 51.3925 28.7787H47.5578C46.5158 28.7787 46.0573 29.2372 46.0573 30.2792V32.4883C46.0573 33.5303 46.5158 33.9888 47.5578 33.9888H51.3925ZM46.5158 63.0821H48.2664C51.3091 63.0821 52.8096 61.5816 52.8096 58.5389V36.2396C52.8096 35.1975 52.3511 34.7391 51.3091 34.7391H47.6412C46.5991 34.7391 46.1407 35.1975 46.1407 36.2396V57.7886C46.1407 58.1221 46.1407 58.3722 45.9739 58.5389C45.7655 58.7473 45.307 58.5806 44.8902 58.9974C44.5985 59.2892 44.5985 59.7893 44.5985 60.2061V61.5816C44.5985 62.6236 45.182 63.0821 46.5158 63.0821Z" fill="#1C2BA4"/>
<path d="M59.5431 33.9888C60.5851 33.9888 61.0436 33.5303 61.0436 32.4883V30.2792C61.0436 29.2372 60.5851 28.7787 59.5431 28.7787H55.7084C54.6664 28.7787 54.2079 29.2372 54.2079 30.2792V32.4883C54.2079 33.5303 54.6664 33.9888 55.7084 33.9888H59.5431ZM59.4597 58.4972C60.5017 58.4972 60.9602 58.0387 60.9602 56.9967V36.2396C60.9602 35.1975 60.5017 34.7391 59.4597 34.7391H55.7918C54.7497 34.7391 54.2912 35.1975 54.2912 36.2396V56.9967C54.2912 58.0387 54.7497 58.4972 55.7918 58.4972H59.4597Z" fill="#1C2BA4"/>
</g>
</g>
<path d="M128.245 6.53759C127.762 5.98229 126.92 5.92419 126.364 6.40782C126.404 6.37435 126.366 6.40624 126.363 6.40878L126.359 6.41223L126.352 6.41818C126.347 6.42266 126.341 6.42816 126.334 6.4347C126.319 6.44777 126.301 6.46497 126.278 6.48632C126.232 6.529 126.17 6.58829 126.094 6.66436C125.943 6.81646 125.736 7.03591 125.492 7.32404C125.005 7.90012 124.37 8.75257 123.74 9.89178C122.641 11.8778 121.563 14.7219 121.301 18.4637C104.574 19.5119 91.6399 26.9151 91.6399 44.2174C91.6399 62.9811 106.851 70.1029 125.615 70.1029C144.378 70.1029 159.589 62.9811 159.589 44.2174C159.589 26.8188 146.511 19.4298 129.649 18.4468C128.455 18.3772 125.996 18.3546 123.982 18.3791C124.246 15.1952 125.17 12.8149 126.073 11.183C126.609 10.2142 127.141 9.5046 127.529 9.04562C127.723 8.81622 127.881 8.6499 127.984 8.5456C128.527 7.99994 128.819 7.19604 128.245 6.53759Z" fill="#6FCF97"/>
<g filter="url(#filter3_b_731_10709)">
<path d="M116.234 58.503C117.485 58.503 117.985 57.8778 117.693 56.669L115.276 46.3321L117.777 36.6205C118.068 35.37 117.61 34.7448 116.318 34.7448H112.691C111.816 34.7448 111.399 35.0783 111.233 35.9119L109.065 45.8736V30.41C109.065 29.368 108.607 28.9095 107.565 28.9095H103.897C102.855 28.9095 102.396 29.368 102.396 30.41V57.0025C102.396 58.0445 102.855 58.503 103.897 58.503H107.565C108.607 58.503 109.065 58.0445 109.065 57.0025V47.3742L110.899 57.2526C111.024 58.1695 111.483 58.503 112.358 58.503H116.234Z" fill="#59105C"/>
<path d="M132.784 51.3339C132.784 50.3335 132.325 49.875 131.325 49.875H127.74C126.782 49.875 126.365 50.2918 126.365 51.2505V52.8344C126.365 53.1678 126.24 53.2929 125.906 53.2929H125.406C125.073 53.2929 124.948 53.1678 124.948 52.8344V49.2498H131.283C132.325 49.2498 132.784 48.7913 132.784 47.7493V40.2467C132.784 36.4121 130.866 34.4947 127.032 34.4947H124.114C120.279 34.4947 118.362 36.4121 118.362 40.2467V53.0011C118.362 56.8357 120.279 58.7531 124.114 58.7531H127.032C130.866 58.7531 132.784 56.8357 132.784 53.0011V51.3339ZM125.614 39.9549C126.156 39.9549 126.281 40.08 126.281 40.4134V44.2898H124.948V40.4134C124.948 40.08 125.073 39.9549 125.614 39.9549Z" fill="#59105C"/>
<path d="M139.499 33.9946C140.541 33.9946 141 33.5361 141 32.494V30.285C141 29.2429 140.541 28.7844 139.499 28.7844H135.664C134.622 28.7844 134.164 29.2429 134.164 30.285V32.494C134.164 33.5361 134.622 33.9946 135.664 33.9946H139.499ZM134.622 63.0879H136.373C139.416 63.0879 140.916 61.5874 140.916 58.5447V36.2453C140.916 35.2033 140.458 34.7448 139.416 34.7448H135.748C134.706 34.7448 134.247 35.2033 134.247 36.2453V57.7944C134.247 58.1279 134.247 58.3779 134.081 58.5447C133.872 58.7531 133.414 58.5863 132.997 59.0032C132.705 59.2949 132.705 59.7951 132.705 60.2119V61.5874C132.705 62.6294 133.289 63.0879 134.622 63.0879Z" fill="#59105C"/>
<path d="M147.65 33.9946C148.692 33.9946 149.15 33.5361 149.15 32.494V30.285C149.15 29.2429 148.692 28.7844 147.65 28.7844H143.815C142.773 28.7844 142.315 29.2429 142.315 30.285V32.494C142.315 33.5361 142.773 33.9946 143.815 33.9946H147.65ZM147.566 58.503C148.608 58.503 149.067 58.0445 149.067 57.0025V36.2453C149.067 35.2033 148.608 34.7448 147.566 34.7448H143.898C142.856 34.7448 142.398 35.2033 142.398 36.2453V57.0025C142.398 58.0445 142.856 58.503 143.898 58.503H147.566Z" fill="#59105C"/>
</g>
<g filter="url(#filter4_b_731_10709)">
<path fill-rule="evenodd" clip-rule="evenodd" d="M301.36 68.6784C313.374 64.9504 322.16 58.1502 322.16 44C322.16 25.0566 306.803 17.8667 287.86 17.8667C268.917 17.8667 253.56 25.0566 253.56 44C253.56 58.1502 262.129 65.7423 274.36 68.6784C282.093 70.5348 287.86 75.4666 287.86 75.4666C287.86 75.4666 294.093 70.9333 301.36 68.6784ZM301.419 34.0476C302.461 34.0476 302.92 33.5891 302.92 32.5471V30.338C302.92 29.296 302.461 28.8375 301.419 28.8375H297.585C296.542 28.8375 296.084 29.296 296.084 30.338V32.5471C296.084 33.5891 296.542 34.0476 297.585 34.0476H301.419ZM296.542 63.1409H298.293C301.336 63.1409 302.836 61.6404 302.836 58.5977V36.2984C302.836 35.2564 302.378 34.7979 301.336 34.7979H297.668C296.626 34.7979 296.167 35.2564 296.167 36.2984V57.8475C296.167 58.1809 296.167 58.431 296.001 58.5977C295.914 58.684 295.785 58.706 295.634 58.7317C295.42 58.7681 295.161 58.812 294.917 59.0562C294.625 59.348 294.625 59.8482 294.625 60.265V61.6404C294.625 62.6825 295.209 63.1409 296.542 63.1409ZM279.613 56.7221C279.905 57.9308 279.405 58.556 278.154 58.556H274.278C273.403 58.556 272.944 58.2226 272.819 57.3056L270.985 47.4272V57.0555C270.985 58.0975 270.527 58.556 269.485 58.556H265.817C264.775 58.556 264.316 58.0975 264.316 57.0555V30.4631C264.316 29.421 264.775 28.9625 265.817 28.9625H269.485C270.527 28.9625 270.985 29.421 270.985 30.4631V45.9267L273.153 35.9649C273.319 35.1313 273.736 34.7979 274.611 34.7979H278.238C279.53 34.7979 279.988 35.4231 279.697 36.6735L277.196 46.3852L279.613 56.7221ZM293.245 49.9281C294.245 49.9281 294.704 50.3866 294.704 51.3869V53.0541C294.704 56.8888 292.786 58.8061 288.952 58.8061H286.034C282.199 58.8061 280.282 56.8888 280.282 53.0541V40.2998C280.282 36.4651 282.199 34.5478 286.034 34.5478H288.952C292.786 34.5478 294.704 36.4651 294.704 40.2998V47.8023C294.704 48.8444 294.245 49.3029 293.203 49.3029H286.868V52.8874C286.868 53.2209 286.993 53.3459 287.326 53.3459H287.826C288.16 53.3459 288.285 53.2209 288.285 52.8874V51.3035C288.285 50.3449 288.702 49.9281 289.66 49.9281H293.245ZM288.201 40.4665C288.201 40.133 288.076 40.008 287.535 40.008C286.993 40.008 286.868 40.133 286.868 40.4665V44.3428H288.201V40.4665ZM311.07 32.5471C311.07 33.5891 310.612 34.0476 309.57 34.0476H305.735C304.693 34.0476 304.235 33.5891 304.235 32.5471V30.338C304.235 29.296 304.693 28.8375 305.735 28.8375H309.57C310.612 28.8375 311.07 29.296 311.07 30.338V32.5471ZM310.987 57.0555C310.987 58.0975 310.528 58.556 309.486 58.556H305.818C304.776 58.556 304.318 58.0975 304.318 57.0555V36.2984C304.318 35.2564 304.776 34.7979 305.818 34.7979H309.486C310.528 34.7979 310.987 35.2564 310.987 36.2984V57.0555Z" fill="#752278"/>
<path d="M291.058 4.95303L289.687 17.753C289.619 18.3835 290.113 18.9333 290.747 18.9333H291.646C292.142 18.9333 292.573 18.5912 292.685 18.1079L295.656 5.30787C295.812 4.63913 295.304 4 294.617 4H292.119C291.573 4 291.116 4.41102 291.058 4.95303Z" fill="#752278"/>
<path d="M285.115 1.79974L286.524 17.7684C286.579 18.3937 287.16 18.8364 287.777 18.7241L288.722 18.5523C289.212 18.4632 289.575 18.0468 289.597 17.5492L290.304 1.29322C290.333 0.622932 289.743 0.0924931 289.08 0.192017L286.019 0.651122C285.461 0.734771 285.065 1.23802 285.115 1.79974Z" fill="#752278"/>
<g filter="url(#filter5_b_731_10709)">
<path d="M278.154 58.556C279.405 58.556 279.905 57.9308 279.613 56.7221L277.196 46.3852L279.696 36.6735C279.988 35.4231 279.53 34.7979 278.238 34.7979H274.611C273.736 34.7979 273.319 35.1313 273.153 35.965L270.985 45.9267V30.4631C270.985 29.421 270.527 28.9625 269.485 28.9625H265.817C264.775 28.9625 264.316 29.421 264.316 30.4631V57.0555C264.316 58.0976 264.775 58.556 265.817 58.556H269.485C270.527 58.556 270.985 58.0976 270.985 57.0555V47.4272L272.819 57.3056C272.944 58.2226 273.403 58.556 274.278 58.556H278.154Z" fill="#FB59CD"/>
<path d="M294.704 51.3869C294.704 50.3866 294.245 49.9281 293.245 49.9281H289.66C288.701 49.9281 288.285 50.3449 288.285 51.3036V52.8874C288.285 53.2209 288.16 53.3459 287.826 53.3459H287.326C286.993 53.3459 286.868 53.2209 286.868 52.8874V49.3029H293.203C294.245 49.3029 294.704 48.8444 294.704 47.8024V40.2998C294.704 36.4651 292.786 34.5478 288.952 34.5478H286.034C282.199 34.5478 280.282 36.4651 280.282 40.2998V53.0542C280.282 56.8888 282.199 58.8061 286.034 58.8061H288.952C292.786 58.8061 294.704 56.8888 294.704 53.0542V51.3869ZM287.534 40.008C288.076 40.008 288.201 40.1331 288.201 40.4665V44.3428H286.868V40.4665C286.868 40.1331 286.993 40.008 287.534 40.008Z" fill="#FB59CD"/>
<path d="M301.419 34.0476C302.461 34.0476 302.92 33.5891 302.92 32.5471V30.338C302.92 29.296 302.461 28.8375 301.419 28.8375H297.584C296.542 28.8375 296.084 29.296 296.084 30.338V32.5471C296.084 33.5891 296.542 34.0476 297.584 34.0476H301.419ZM296.542 63.141H298.293C301.336 63.141 302.836 61.6404 302.836 58.5977V36.2984C302.836 35.2564 302.378 34.7979 301.336 34.7979H297.668C296.626 34.7979 296.167 35.2564 296.167 36.2984V57.8475C296.167 58.1809 296.167 58.431 296.001 58.5977C295.792 58.8061 295.334 58.6394 294.917 59.0562C294.625 59.348 294.625 59.8482 294.625 60.265V61.6404C294.625 62.6825 295.209 63.141 296.542 63.141Z" fill="#FB59CD"/>
<path d="M309.57 34.0476C310.612 34.0476 311.07 33.5891 311.07 32.5471V30.338C311.07 29.296 310.612 28.8375 309.57 28.8375H305.735C304.693 28.8375 304.234 29.296 304.234 30.338V32.5471C304.234 33.5891 304.693 34.0476 305.735 34.0476H309.57ZM309.486 58.556C310.528 58.556 310.987 58.0976 310.987 57.0555V36.2984C310.987 35.2564 310.528 34.7979 309.486 34.7979H305.818C304.776 34.7979 304.318 35.2564 304.318 36.2984V57.0555C304.318 58.0976 304.776 58.556 305.818 58.556H309.486Z" fill="#FB59CD"/>
</g>
</g>
<g filter="url(#filter6_b_731_10709)">
<path fill-rule="evenodd" clip-rule="evenodd" d="M369.72 10.32C370.722 5.46982 375.018 1.82399 380.165 1.82399H388.165V2.35733C388.165 8.24836 383.39 13.024 377.498 13.024H370.579C370.778 13.9364 370.901 14.9196 370.901 15.9573C370.901 16.0874 370.882 16.2132 370.847 16.3321C372.358 16.5364 373.348 16.9969 374.259 17.42C375.059 17.7922 375.798 18.1355 376.773 18.2499C392.042 20.0411 403.44 27.6376 403.44 43.9573C403.44 59.016 393.736 66.6475 380.24 69.1442C377.914 69.5745 375.896 69.1146 373.846 68.6477C372.339 68.3044 370.815 67.9573 369.14 67.9573C367.465 67.9573 365.941 68.3044 364.434 68.6477C362.384 69.1146 360.366 69.5745 358.04 69.1442C344.544 66.6475 334.84 59.016 334.84 43.9573C334.84 27.6376 346.237 20.0411 361.507 18.2499C362.482 18.1355 363.22 17.7922 364.021 17.42C365.089 16.9236 366.268 16.3758 368.266 16.2505C368.245 16.1561 368.234 16.058 368.234 15.9573C368.234 13.7058 367.507 11.7199 366.754 10.2726C366.38 9.55346 366.007 8.98131 365.731 8.59323C365.593 8.39959 365.48 8.25296 365.404 8.15801C365.367 8.11057 365.338 8.07613 365.321 8.05529L365.303 8.03434L365.303 8.03366C365.303 8.03396 365.303 8.03428 366.308 7.15733C367.312 6.28038 367.312 6.28073 367.312 6.28109L367.313 6.28188L367.315 6.28372L367.319 6.28845L367.331 6.30205C367.34 6.31296 367.352 6.32753 367.367 6.3457C367.398 6.38202 367.439 6.43274 367.491 6.49728C367.593 6.62628 367.735 6.81091 367.903 7.04644C368.238 7.51668 368.679 8.19454 369.12 9.04204C369.322 9.43066 369.526 9.85798 369.72 10.32Z" fill="#EB5E64"/>
<g filter="url(#filter7_b_731_10709)">
<path d="M359.434 58.5134C360.685 58.5134 361.185 57.8882 360.893 56.6794L358.476 46.3425L360.976 36.6308C361.268 35.3804 360.81 34.7552 359.518 34.7552H355.891C355.016 34.7552 354.599 35.0887 354.433 35.9223L352.265 45.884V30.4204C352.265 29.3784 351.807 28.9199 350.765 28.9199H347.097C346.055 28.9199 345.596 29.3784 345.596 30.4204V57.0129C345.596 58.0549 346.055 58.5134 347.097 58.5134H350.765C351.807 58.5134 352.265 58.0549 352.265 57.0129V47.3845L354.099 57.2629C354.224 58.1799 354.683 58.5134 355.558 58.5134H359.434Z" fill="#1C2BA4"/>
<path d="M375.984 51.3442C375.984 50.3439 375.525 49.8854 374.525 49.8854H370.94C369.982 49.8854 369.565 50.3022 369.565 51.2609V52.8448C369.565 53.1782 369.44 53.3032 369.106 53.3032H368.606C368.273 53.3032 368.148 53.1782 368.148 52.8448V49.2602H374.483C375.525 49.2602 375.984 48.8017 375.984 47.7597V40.2571C375.984 36.4224 374.066 34.5051 370.232 34.5051H367.314C363.479 34.5051 361.562 36.4224 361.562 40.2571V53.0115C361.562 56.8461 363.479 58.7635 367.314 58.7635H370.232C374.066 58.7635 375.984 56.8461 375.984 53.0115V51.3442ZM368.814 39.9653C369.356 39.9653 369.481 40.0904 369.481 40.4238V44.3002H368.148V40.4238C368.148 40.0904 368.273 39.9653 368.814 39.9653Z" fill="#1C2BA4"/>
<path d="M382.699 34.0049C383.741 34.0049 384.2 33.5465 384.2 32.5044V30.2953C384.2 29.2533 383.741 28.7948 382.699 28.7948H378.864C377.822 28.7948 377.364 29.2533 377.364 30.2953V32.5044C377.364 33.5465 377.822 34.0049 378.864 34.0049H382.699ZM377.822 63.0983H379.573C382.616 63.0983 384.116 61.5978 384.116 58.555V36.2557C384.116 35.2137 383.658 34.7552 382.616 34.7552H378.948C377.906 34.7552 377.447 35.2137 377.447 36.2557V57.8048C377.447 58.1382 377.447 58.3883 377.281 58.555C377.072 58.7635 376.614 58.5967 376.197 59.0135C375.905 59.3053 375.905 59.8055 375.905 60.2223V61.5978C375.905 62.6398 376.489 63.0983 377.822 63.0983Z" fill="#1C2BA4"/>
<path d="M390.85 34.0049C391.892 34.0049 392.35 33.5465 392.35 32.5044V30.2953C392.35 29.2533 391.892 28.7948 390.85 28.7948H387.015C385.973 28.7948 385.515 29.2533 385.515 30.2953V32.5044C385.515 33.5465 385.973 34.0049 387.015 34.0049H390.85ZM390.766 58.5134C391.808 58.5134 392.267 58.0549 392.267 57.0129V36.2557C392.267 35.2137 391.808 34.7552 390.766 34.7552H387.098C386.056 34.7552 385.598 35.2137 385.598 36.2557V57.0129C385.598 58.0549 386.056 58.5134 387.098 58.5134H390.766Z" fill="#1C2BA4"/>
</g>
</g>
<path fill-rule="evenodd" clip-rule="evenodd" d="M484.82 45.3191C484.88 45.7521 484.958 46.1787 485.036 46.5989C485.244 47.7306 485.444 48.8159 485.238 49.856C482.342 64.4368 468.332 70.1226 451.487 70.1226C435.933 70.1226 422.797 65.2757 418.594 53.056C418.384 52.4457 418.141 51.8171 417.89 51.1697L417.89 51.1696C417.046 48.9918 416.12 46.6024 416.12 43.9893C416.12 41.3762 417.046 38.9868 417.89 36.809C418.141 36.1616 418.384 35.533 418.594 34.9227C422.797 22.7029 435.933 17.856 451.487 17.856C468.332 17.856 482.342 23.5418 485.238 38.1227C485.444 39.1627 485.244 40.248 485.036 41.3797C484.958 41.8 484.88 42.2266 484.82 42.6598C484.853 42.6573 484.886 42.6561 484.92 42.6561C486.194 42.6561 487.188 42.4652 488.237 42.2639L488.238 42.2639C488.516 42.2104 488.799 42.1562 489.091 42.1047C490.481 41.8597 491.962 41.7145 493.825 42.2543C495.34 42.6935 496.61 42.9283 497.494 43.0529C497.936 43.1152 498.28 43.1498 498.508 43.1687C498.623 43.1782 498.708 43.1837 498.763 43.1868C498.777 43.1876 498.789 43.1882 498.798 43.1887C498.808 43.1891 498.815 43.1895 498.82 43.1897L498.83 43.1901C498.83 43.1901 498.831 43.1902 498.831 43.1902C498.831 43.1902 498.831 43.1902 498.832 43.1902C499.566 43.215 500.143 43.8303 500.119 44.5655C500.096 45.3015 499.48 45.879 498.744 45.8554L498.787 44.5228C498.744 45.8554 498.744 45.8554 498.743 45.8554L498.743 45.8554L498.741 45.8553L498.738 45.8552L498.73 45.8549L498.703 45.8538C498.681 45.8528 498.65 45.8514 498.612 45.8492C498.536 45.8449 498.427 45.8378 498.289 45.8264C498.013 45.8035 497.617 45.7634 497.122 45.6935C496.131 45.5538 494.735 45.2946 493.082 44.8155C491.777 44.437 490.756 44.5191 489.554 44.7309C489.326 44.7711 489.086 44.8174 488.835 44.8661C487.763 45.0732 486.473 45.3228 484.92 45.3228C484.886 45.3228 484.853 45.3215 484.82 45.3191ZM466.546 32.5365C466.546 33.5785 466.088 34.037 465.046 34.037H461.211C460.169 34.037 459.711 33.5785 459.711 32.5365V30.3274C459.711 29.2853 460.169 28.8268 461.211 28.8268H465.046C466.088 28.8268 466.546 29.2853 466.546 30.3274V32.5365ZM461.92 63.1303H460.169C458.835 63.1303 458.252 62.6718 458.252 61.6298V60.2543C458.252 59.8375 458.252 59.3373 458.543 59.0456C458.788 58.8014 459.046 58.7575 459.26 58.7211C459.412 58.6954 459.541 58.6734 459.627 58.5871C459.794 58.4203 459.794 58.1703 459.794 57.8368V36.2877C459.794 35.2457 460.252 34.7872 461.294 34.7872H464.962C466.004 34.7872 466.463 35.2457 466.463 36.2877V58.5871C466.463 61.6298 464.962 63.1303 461.92 63.1303ZM441.781 58.5454C443.031 58.5454 443.532 57.9202 443.24 56.7114L440.822 46.3745L443.323 36.6629C443.615 35.4124 443.156 34.7872 441.864 34.7872H438.238C437.363 34.7872 436.946 35.1207 436.779 35.9543L434.612 45.916V30.4524C434.612 29.4104 434.153 28.9519 433.111 28.9519H429.443C428.401 28.9519 427.943 29.4104 427.943 30.4524V57.0449C427.943 58.0869 428.401 58.5454 429.443 58.5454H433.111C434.153 58.5454 434.612 58.0869 434.612 57.0449V47.4166L436.446 57.295C436.571 58.2119 437.029 58.5454 437.905 58.5454H441.781ZM458.33 51.3763C458.33 50.3759 457.872 49.9174 456.871 49.9174H453.287C452.328 49.9174 451.911 50.3342 451.911 51.2929V52.8768C451.911 53.2102 451.786 53.3353 451.453 53.3353H450.953C450.619 53.3353 450.494 53.2102 450.494 52.8768V49.2922H456.83C457.872 49.2922 458.33 48.8337 458.33 47.7917V40.2891C458.33 36.4545 456.413 34.5371 452.578 34.5371H449.661C445.826 34.5371 443.909 36.4545 443.909 40.2891V53.0435C443.909 56.8782 445.826 58.7955 449.661 58.7955H452.578C456.413 58.7955 458.33 56.8782 458.33 53.0435V51.3763ZM451.161 39.9973C451.703 39.9973 451.828 40.1224 451.828 40.4558V44.3322H450.494V40.4558C450.494 40.1224 450.619 39.9973 451.161 39.9973ZM473.196 34.037C474.238 34.037 474.697 33.5785 474.697 32.5365V30.3274C474.697 29.2853 474.238 28.8268 473.196 28.8268H469.362C468.32 28.8268 467.861 29.2853 467.861 30.3274V32.5365C467.861 33.5785 468.32 34.037 469.362 34.037H473.196ZM473.113 58.5454C474.155 58.5454 474.613 58.0869 474.613 57.0449V36.2877C474.613 35.2457 474.155 34.7872 473.113 34.7872H469.445C468.403 34.7872 467.945 35.2457 467.945 36.2877V57.0449C467.945 58.0869 468.403 58.5454 469.445 58.5454H473.113Z" fill="#10175B"/>
<g filter="url(#filter8_b_731_10709)">
<path d="M441.781 58.5454C443.031 58.5454 443.532 57.9202 443.24 56.7114L440.822 46.3745L443.323 36.6629C443.615 35.4124 443.156 34.7872 441.864 34.7872H438.238C437.363 34.7872 436.946 35.1207 436.779 35.9543L434.612 45.9161V30.4524C434.612 29.4104 434.153 28.9519 433.111 28.9519H429.443C428.401 28.9519 427.943 29.4104 427.943 30.4524V57.0449C427.943 58.0869 428.401 58.5454 429.443 58.5454H433.111C434.153 58.5454 434.612 58.0869 434.612 57.0449V47.4166L436.446 57.295C436.571 58.2119 437.029 58.5454 437.905 58.5454H441.781Z" fill="#6FCF97"/>
<path d="M458.33 51.3763C458.33 50.3759 457.872 49.9174 456.871 49.9174H453.287C452.328 49.9174 451.911 50.3342 451.911 51.2929V52.8768C451.911 53.2102 451.786 53.3353 451.453 53.3353H450.953C450.619 53.3353 450.494 53.2102 450.494 52.8768V49.2922H456.83C457.872 49.2922 458.33 48.8337 458.33 47.7917V40.2891C458.33 36.4545 456.413 34.5371 452.578 34.5371H449.661C445.826 34.5371 443.909 36.4545 443.909 40.2891V53.0435C443.909 56.8782 445.826 58.7955 449.661 58.7955H452.578C456.413 58.7955 458.33 56.8782 458.33 53.0435V51.3763ZM451.161 39.9973C451.703 39.9973 451.828 40.1224 451.828 40.4558V44.3322H450.494V40.4558C450.494 40.1224 450.619 39.9973 451.161 39.9973Z" fill="#6FCF97"/>
<path d="M465.046 34.037C466.088 34.037 466.546 33.5785 466.546 32.5365V30.3274C466.546 29.2853 466.088 28.8268 465.046 28.8268H461.211C460.169 28.8268 459.711 29.2853 459.711 30.3274V32.5365C459.711 33.5785 460.169 34.037 461.211 34.037H465.046ZM460.169 63.1303H461.92C464.962 63.1303 466.463 61.6298 466.463 58.5871V36.2877C466.463 35.2457 466.004 34.7872 464.962 34.7872H461.294C460.252 34.7872 459.794 35.2457 459.794 36.2877V57.8368C459.794 58.1703 459.794 58.4203 459.627 58.5871C459.419 58.7955 458.96 58.6288 458.544 59.0456C458.252 59.3373 458.252 59.8375 458.252 60.2543V61.6298C458.252 62.6718 458.835 63.1303 460.169 63.1303Z" fill="#6FCF97"/>
<path d="M473.196 34.037C474.238 34.037 474.697 33.5785 474.697 32.5365V30.3274C474.697 29.2853 474.238 28.8268 473.196 28.8268H469.362C468.32 28.8268 467.861 29.2853 467.861 30.3274V32.5365C467.861 33.5785 468.32 34.037 469.362 34.037H473.196ZM473.113 58.5454C474.155 58.5454 474.614 58.0869 474.614 57.0449V36.2877C474.614 35.2457 474.155 34.7872 473.113 34.7872H469.445C468.403 34.7872 467.945 35.2457 467.945 36.2877V57.0449C467.945 58.0869 468.403 58.5454 469.445 58.5454H473.113Z" fill="#6FCF97"/>
</g>
<defs>
<filter id="filter0_b_731_10709" x="180.903" y="26.67" width="51.0206" height="38.5701" filterUnits="userSpaceOnUse" color-interpolation-filters="sRGB">
<feFlood flood-opacity="0" result="BackgroundImageFix"/>
<feGaussianBlur in="BackgroundImageFix" stdDeviation="1.06667"/>
<feComposite in2="SourceAlpha" operator="in" result="effect1_backgroundBlur_731_10709"/>
<feBlend mode="normal" in="SourceGraphic" in2="effect1_backgroundBlur_731_10709" result="shape"/>
</filter>
<filter id="filter1_b_731_10709" x="-12.3771" y="2.11201" width="100.087" height="87.6368" filterUnits="userSpaceOnUse" color-interpolation-filters="sRGB">
<feFlood flood-opacity="0" result="BackgroundImageFix"/>
<feGaussianBlur in="BackgroundImageFix" stdDeviation="13.3333"/>
<feComposite in2="SourceAlpha" operator="in" result="effect1_backgroundBlur_731_10709"/>
<feBlend mode="normal" in="SourceGraphic" in2="effect1_backgroundBlur_731_10709" result="shape"/>
</filter>
<filter id="filter2_b_731_10709" x="12.1562" y="26.6453" width="51.0206" height="38.5701" filterUnits="userSpaceOnUse" color-interpolation-filters="sRGB">
<feFlood flood-opacity="0" result="BackgroundImageFix"/>
<feGaussianBlur in="BackgroundImageFix" stdDeviation="1.06667"/>
<feComposite in2="SourceAlpha" operator="in" result="effect1_backgroundBlur_731_10709"/>
<feBlend mode="normal" in="SourceGraphic" in2="effect1_backgroundBlur_731_10709" result="shape"/>
</filter>
<filter id="filter3_b_731_10709" x="100.263" y="26.6511" width="51.0206" height="38.5701" filterUnits="userSpaceOnUse" color-interpolation-filters="sRGB">
<feFlood flood-opacity="0" result="BackgroundImageFix"/>
<feGaussianBlur in="BackgroundImageFix" stdDeviation="1.06667"/>
<feComposite in2="SourceAlpha" operator="in" result="effect1_backgroundBlur_731_10709"/>
<feBlend mode="normal" in="SourceGraphic" in2="effect1_backgroundBlur_731_10709" result="shape"/>
</filter>
<filter id="filter4_b_731_10709" x="226.893" y="-26.4867" width="121.933" height="128.62" filterUnits="userSpaceOnUse" color-interpolation-filters="sRGB">
<feFlood flood-opacity="0" result="BackgroundImageFix"/>
<feGaussianBlur in="BackgroundImageFix" stdDeviation="13.3333"/>
<feComposite in2="SourceAlpha" operator="in" result="effect1_backgroundBlur_731_10709"/>
<feBlend mode="normal" in="SourceGraphic" in2="effect1_backgroundBlur_731_10709" result="shape"/>
</filter>
<filter id="filter5_b_731_10709" x="262.183" y="26.7042" width="51.0206" height="38.5701" filterUnits="userSpaceOnUse" color-interpolation-filters="sRGB">
<feFlood flood-opacity="0" result="BackgroundImageFix"/>
<feGaussianBlur in="BackgroundImageFix" stdDeviation="1.06667"/>
<feComposite in2="SourceAlpha" operator="in" result="effect1_backgroundBlur_731_10709"/>
<feBlend mode="normal" in="SourceGraphic" in2="effect1_backgroundBlur_731_10709" result="shape"/>
</filter>
<filter id="filter6_b_731_10709" x="308.173" y="-24.8427" width="121.933" height="120.825" filterUnits="userSpaceOnUse" color-interpolation-filters="sRGB">
<feFlood flood-opacity="0" result="BackgroundImageFix"/>
<feGaussianBlur in="BackgroundImageFix" stdDeviation="13.3333"/>
<feComposite in2="SourceAlpha" operator="in" result="effect1_backgroundBlur_731_10709"/>
<feBlend mode="normal" in="SourceGraphic" in2="effect1_backgroundBlur_731_10709" result="shape"/>
</filter>
<filter id="filter7_b_731_10709" x="343.463" y="26.6615" width="51.0206" height="38.5701" filterUnits="userSpaceOnUse" color-interpolation-filters="sRGB">
<feFlood flood-opacity="0" result="BackgroundImageFix"/>
<feGaussianBlur in="BackgroundImageFix" stdDeviation="1.06667"/>
<feComposite in2="SourceAlpha" operator="in" result="effect1_backgroundBlur_731_10709"/>
<feBlend mode="normal" in="SourceGraphic" in2="effect1_backgroundBlur_731_10709" result="shape"/>
</filter>
<filter id="filter8_b_731_10709" x="425.81" y="26.6935" width="51.0206" height="38.5701" filterUnits="userSpaceOnUse" color-interpolation-filters="sRGB">
<feFlood flood-opacity="0" result="BackgroundImageFix"/>
<feGaussianBlur in="BackgroundImageFix" stdDeviation="1.06667"/>
<feComposite in2="SourceAlpha" operator="in" result="effect1_backgroundBlur_731_10709"/>
<feBlend mode="normal" in="SourceGraphic" in2="effect1_backgroundBlur_731_10709" result="shape"/>
</filter>
</defs>
</svg>
