<svg width="73" height="56" viewBox="0 0 73 56" fill="none" xmlns="http://www.w3.org/2000/svg">
<g filter="url(#filter0_b_1626_73043)">
<path d="M36.9353 24.0169C36.9353 23.6655 36.8035 23.5337 36.2324 23.5337C35.6613 23.5337 35.5295 23.6655 35.5295 24.0169V28.1027H36.9353V24.0169Z" fill="black"/>
<path d="M36.4 56C56.5031 56 72.8 48.2965 72.8 28C72.8 7.70354 56.5031 0 36.4 0C16.2968 0 0 7.70354 0 28C0 48.2965 16.2968 56 36.4 56ZM50.8672 17.2513H46.8254C45.727 17.2513 45.2438 16.768 45.2438 15.6697V13.3412C45.2438 12.2429 45.727 11.7596 46.8254 11.7596H50.8672C51.9655 11.7596 52.4488 12.2429 52.4488 13.3412V15.6697C52.4488 16.768 51.9655 17.2513 50.8672 17.2513ZM45.727 47.9164C44.3212 47.9164 43.7061 47.4331 43.7061 46.3348V44.885C43.7061 44.4457 43.7061 43.9185 44.0137 43.611C44.271 43.3536 44.5434 43.3073 44.7691 43.269C44.9287 43.2419 45.0649 43.2187 45.1559 43.1277C45.3317 42.952 45.3316 42.6884 45.3316 42.3369V19.6236C45.3316 18.5253 45.8149 18.042 46.9132 18.042H50.7793C51.8776 18.042 52.3609 18.5253 52.3609 19.6236V43.1277C52.3609 46.3348 50.7793 47.9164 47.5722 47.9164H45.727ZM27.8831 41.1507C28.1906 42.4248 27.6634 43.0838 26.3454 43.0838H22.2597C21.3371 43.0838 20.8538 42.7323 20.722 41.7658L18.789 31.3537V41.5022C18.789 42.6005 18.3057 43.0838 17.2074 43.0838H13.3413C12.243 43.0838 11.7597 42.6005 11.7597 41.5022V13.473C11.7597 12.3747 12.243 11.8914 13.3413 11.8914H17.2074C18.3057 11.8914 18.789 12.3747 18.789 13.473V29.7721L21.0735 19.2722C21.2492 18.3935 21.6886 18.042 22.6112 18.042H26.4333C27.7952 18.042 28.2785 18.701 27.971 20.019L25.335 30.2554L27.8831 41.1507ZM42.2512 33.9897C43.3056 33.9897 43.7889 34.4729 43.7889 35.5273V37.2847C43.7889 41.3265 41.7679 43.3474 37.7261 43.3474H34.6508C30.609 43.3474 28.5881 41.3265 28.5881 37.2847V23.8412C28.5881 19.7994 30.609 17.7785 34.6508 17.7785H37.7261C41.7679 17.7785 43.7889 19.7994 43.7889 23.8412V31.7491C43.7889 32.8474 43.3056 33.3307 42.2073 33.3307H35.5295V37.1089C35.5295 37.4604 35.6613 37.5922 36.0127 37.5922H36.5399C36.8914 37.5922 37.0232 37.4604 37.0232 37.1089V35.4395C37.0232 34.429 37.4625 33.9897 38.473 33.9897H42.2512ZM61.0397 15.6697C61.0397 16.768 60.5565 17.2513 59.4581 17.2513H55.4163C54.318 17.2513 53.8347 16.768 53.8347 15.6697V13.3412C53.8347 12.2429 54.318 11.7596 55.4163 11.7596H59.4581C60.5565 11.7596 61.0397 12.2429 61.0397 13.3412V15.6697ZM60.9519 41.5022C60.9519 42.6005 60.4686 43.0838 59.3703 43.0838H55.5042C54.4058 43.0838 53.9226 42.6005 53.9226 41.5022V19.6236C53.9226 18.5253 54.4058 18.042 55.5042 18.042H59.3703C60.4686 18.042 60.9519 18.5253 60.9519 19.6236V41.5022Z" fill="black"/>
</g>
<defs>
<filter id="filter0_b_1626_73043" x="-3.34118" y="-3.34118" width="79.4822" height="62.6824" filterUnits="userSpaceOnUse" color-interpolation-filters="sRGB">
<feFlood flood-opacity="0" result="BackgroundImageFix"/>
<feGaussianBlur in="BackgroundImageFix" stdDeviation="1.67059"/>
<feComposite in2="SourceAlpha" operator="in" result="effect1_backgroundBlur_1626_73043"/>
<feBlend mode="normal" in="SourceGraphic" in2="effect1_backgroundBlur_1626_73043" result="shape"/>
</filter>
</defs>
</svg>
