<svg width="68" height="52" viewBox="0 0 68 52" fill="none" xmlns="http://www.w3.org/2000/svg">
<g filter="url(#filter0_b_1620_76520)">
<path fill-rule="evenodd" clip-rule="evenodd" d="M33.8 52C52.4672 52 67.6 44.8467 67.6 26C67.6 7.15328 52.4672 0 33.8 0C15.1328 0 0 7.15328 0 26C0 44.8467 15.1328 52 33.8 52ZM47.234 16.0193C48.2539 16.0193 48.7026 15.5705 48.7026 14.5507V12.3885C48.7026 11.3687 48.2539 10.9199 47.234 10.9199H43.4809C42.461 10.9199 42.0123 11.3687 42.0123 12.3885V14.5507C42.0123 15.5705 42.461 16.0193 43.4809 16.0193H47.234ZM42.461 44.4941H44.1744C47.1524 44.4941 48.621 43.0254 48.621 40.0474V18.2222C48.621 17.2023 48.1723 16.7536 47.1524 16.7536H43.5625C42.5426 16.7536 42.0938 17.2023 42.0938 18.2222V39.3131C42.0938 39.6395 42.0938 39.8842 41.9307 40.0474C41.8462 40.1319 41.7197 40.1534 41.5715 40.1786C41.3619 40.2142 41.109 40.2572 40.87 40.4962C40.5844 40.7817 40.5844 41.2713 40.5844 41.6792V43.0254C40.5844 44.0453 41.1556 44.4941 42.461 44.4941ZM25.8916 38.2117C26.1772 39.3947 25.6876 40.0066 24.4638 40.0066H20.6699C19.8132 40.0066 19.3644 39.6803 19.2421 38.7828L17.4471 29.1144V38.538C17.4471 39.5579 16.9983 40.0066 15.9785 40.0066H12.3885C11.3687 40.0066 10.9199 39.5579 10.9199 38.538V12.5109C10.9199 11.491 11.3687 11.0423 12.3885 11.0423H15.9785C16.9983 11.0423 17.4471 11.491 17.4471 12.5109V27.6458L19.5684 17.8958C19.7316 17.0799 20.1395 16.7536 20.9962 16.7536H24.5454C25.81 16.7536 26.2588 17.3655 25.9732 18.5893L23.5255 28.0945L25.8916 38.2117ZM39.2334 31.5621C40.2125 31.5621 40.6612 32.0108 40.6612 32.9899V34.6217C40.6612 38.3748 38.7847 40.2514 35.0316 40.2514H32.1759C28.4228 40.2514 26.5462 38.3748 26.5462 34.6217V22.1385C26.5462 18.3854 28.4228 16.5088 32.1759 16.5088H35.0316C38.7847 16.5088 40.6612 18.3854 40.6612 22.1385V29.4816C40.6612 30.5014 40.2125 30.9502 39.1926 30.9502H32.9918V34.4585C32.9918 34.7849 33.1142 34.9073 33.4406 34.9073H33.9301C34.2565 34.9073 34.3788 34.7849 34.3788 34.4585V32.9083C34.3788 31.97 34.7868 31.5621 35.7251 31.5621H39.2334ZM34.2973 22.3017C34.2973 21.9753 34.1749 21.8529 33.6445 21.8529C33.1142 21.8529 32.9918 21.9753 32.9918 22.3017V26.0956H34.2973V22.3017ZM56.6799 14.5507C56.6799 15.5705 56.2312 16.0193 55.2113 16.0193H51.4582C50.4383 16.0193 49.9896 15.5705 49.9896 14.5507V12.3885C49.9896 11.3687 50.4383 10.9199 51.4582 10.9199H55.2113C56.2312 10.9199 56.6799 11.3687 56.6799 12.3885V14.5507ZM56.5983 38.538C56.5983 39.5579 56.1496 40.0066 55.1297 40.0066H51.5398C50.5199 40.0066 50.0711 39.5579 50.0711 38.538V18.2222C50.0711 17.2023 50.5199 16.7536 51.5398 16.7536H55.1297C56.1496 16.7536 56.5983 17.2023 56.5983 18.2222V38.538Z" fill="black"/>
</g>
<defs>
<filter id="filter0_b_1620_76520" x="-3.10252" y="-3.10252" width="73.8046" height="58.205" filterUnits="userSpaceOnUse" color-interpolation-filters="sRGB">
<feFlood flood-opacity="0" result="BackgroundImageFix"/>
<feGaussianBlur in="BackgroundImageFix" stdDeviation="1.55126"/>
<feComposite in2="SourceAlpha" operator="in" result="effect1_backgroundBlur_1620_76520"/>
<feBlend mode="normal" in="SourceGraphic" in2="effect1_backgroundBlur_1620_76520" result="shape"/>
</filter>
</defs>
</svg>
