<svg width="160" height="668" viewBox="0 0 160 668" fill="none" xmlns="http://www.w3.org/2000/svg">
<g clip-path="url(#clip0_730_10626)">
<path d="M130.833 272.682C130.833 302.149 106.955 313.333 77.5001 313.333C48.0449 313.333 24.1667 302.149 24.1667 272.682C24.1667 247.317 41.8599 235.499 65.5732 232.7C67.4757 232.476 64.2732 225.937 66.2471 221.997C67.3323 219.831 69.7838 224.326 72.1321 224.185C74.1221 224.066 76.038 219.167 76.9857 219.167C77.9334 219.167 80.0658 224.066 82.2901 224.185C84.915 224.326 87.6678 219.831 88.753 221.997C90.7269 225.937 87.5245 232.476 89.4269 232.7C113.14 235.499 130.833 247.317 130.833 272.682Z" fill="#EB5757"/>
<g filter="url(#filter0_b_730_10626)">
<path d="M62.5954 293.577C64.5492 293.577 65.3307 292.6 64.8748 290.712L61.0975 274.56L65.0051 259.386C65.461 257.432 64.7446 256.455 62.7256 256.455H57.0596C55.692 256.455 55.0407 256.976 54.7802 258.279L51.3936 273.844V249.682C51.3936 248.054 50.6772 247.337 49.0491 247.337H43.3179C41.6898 247.337 40.9734 248.054 40.9734 249.682V291.233C40.9734 292.861 41.6898 293.577 43.3179 293.577H49.0491C50.6772 293.577 51.3936 292.861 51.3936 291.233V276.188L54.2592 291.623C54.4546 293.056 55.171 293.577 56.5386 293.577H62.5954Z" fill="#F9E94E"/>
<path d="M88.4537 282.375C88.4537 280.812 87.7373 280.096 86.1743 280.096H80.5734C79.0755 280.096 78.4242 280.747 78.4242 282.245V284.72C78.4242 285.241 78.2288 285.436 77.7078 285.436H76.9263C76.4053 285.436 76.2099 285.241 76.2099 284.72V279.119H86.1091C87.7373 279.119 88.4537 278.403 88.4537 276.775V265.052C88.4537 259.06 85.4579 256.064 79.4662 256.064H74.9074C68.9157 256.064 65.9199 259.06 65.9199 265.052V284.98C65.9199 290.972 68.9157 293.968 74.9074 293.968H79.4662C85.4579 293.968 88.4537 290.972 88.4537 284.98V282.375ZM77.2519 264.596C78.0986 264.596 78.2939 264.791 78.2939 265.312V271.369H76.2099V265.312C76.2099 264.791 76.4053 264.596 77.2519 264.596Z" fill="#F9E94E"/>
<path d="M98.9467 255.283C100.575 255.283 101.291 254.566 101.291 252.938V249.486C101.291 247.858 100.575 247.142 98.9467 247.142H92.955C91.3269 247.142 90.6105 247.858 90.6105 249.486V252.938C90.6105 254.566 91.3269 255.283 92.955 255.283H98.9467ZM91.3269 300.741H94.0622C98.8164 300.741 101.161 298.397 101.161 293.642V258.8C101.161 257.171 100.445 256.455 98.8164 256.455H93.0853C91.4571 256.455 90.7407 257.171 90.7407 258.8V292.47C90.7407 292.991 90.7407 293.382 90.4802 293.642C90.1546 293.968 89.4382 293.707 88.7869 294.359C88.3311 294.815 88.3311 295.596 88.3311 296.247V298.397C88.3311 300.025 89.2428 300.741 91.3269 300.741Z" fill="#F9E94E"/>
<path d="M111.682 255.283C113.31 255.283 114.027 254.566 114.027 252.938V249.486C114.027 247.858 113.31 247.142 111.682 247.142H105.69C104.062 247.142 103.346 247.858 103.346 249.486V252.938C103.346 254.566 104.062 255.283 105.69 255.283H111.682ZM111.552 293.577C113.18 293.577 113.896 292.861 113.896 291.233V258.8C113.896 257.171 113.18 256.455 111.552 256.455H105.821C104.192 256.455 103.476 257.171 103.476 258.8V291.233C103.476 292.861 104.192 293.577 105.821 293.577H111.552Z" fill="#F9E94E"/>
</g>
<path d="M140 52.9167C140 60.8465 129.328 60.5764 128.489 63.9162C123.185 85.0423 102.028 93.3333 76.7368 93.3333C51.8306 93.3333 30.9344 85.2929 25.2376 64.8726C24.768 63.1892 21.1458 64.361 19.5416 59.0559C17.9374 53.7509 17.9236 51.8935 19.5416 47.289C21.1596 42.6846 24.768 42.6442 25.2376 40.9608C30.9344 20.5404 51.8306 12.5 76.7368 12.5C102.028 12.5 123.185 20.7911 128.489 41.9172C129.328 45.2569 140 44.9868 140 52.9167Z" fill="#F7CD46"/>
<g filter="url(#filter1_b_730_10626)">
<g filter="url(#filter2_b_730_10626)">
<path d="M61.7619 75.6019C63.7157 75.6019 64.4972 74.625 64.0413 72.7363L60.264 56.585L64.1716 41.4105C64.6275 39.4567 63.9111 38.4798 61.8922 38.4798H56.2261C54.8585 38.4798 54.2072 39.0008 53.9467 40.3033L50.5601 55.8686V31.7066C50.5601 30.0784 49.8437 29.3621 48.2156 29.3621H42.4844C40.8563 29.3621 40.1399 30.0784 40.1399 31.7066V73.2573C40.1399 74.8855 40.8563 75.6019 42.4844 75.6019H48.2156C49.8437 75.6019 50.5601 74.8855 50.5601 73.2573V58.2131L53.4257 73.6481C53.6211 75.0809 54.3375 75.6019 55.7051 75.6019H61.7619Z" fill="#1C2BA4"/>
<path d="M87.6202 64.4001C87.6202 62.8371 86.9038 62.1207 85.3408 62.1207H79.7399C78.242 62.1207 77.5907 62.772 77.5907 64.2699V66.7447C77.5907 67.2657 77.3953 67.4611 76.8743 67.4611H76.0928C75.5718 67.4611 75.3764 67.2657 75.3764 66.7447V61.1438H85.2756C86.9038 61.1438 87.6202 60.4274 87.6202 58.7993V47.0765C87.6202 41.0848 84.6244 38.089 78.6327 38.089H74.0739C68.0822 38.089 65.0864 41.0848 65.0864 47.0765V67.0052C65.0864 72.9968 68.0822 75.9927 74.0739 75.9927H78.6327C84.6244 75.9927 87.6202 72.9968 87.6202 67.0052V64.4001ZM76.4184 46.6206C77.2651 46.6206 77.4604 46.816 77.4604 47.337V53.3937H75.3764V47.337C75.3764 46.816 75.5718 46.6206 76.4184 46.6206Z" fill="#1C2BA4"/>
<path d="M98.1132 37.3075C99.7414 37.3075 100.458 36.5911 100.458 34.9629V31.5112C100.458 29.8831 99.7414 29.1667 98.1132 29.1667H92.1215C90.4934 29.1667 89.777 29.8831 89.777 31.5112V34.9629C89.777 36.5911 90.4934 37.3075 92.1215 37.3075H98.1132ZM90.4934 82.7658H93.2287C97.9829 82.7658 100.327 80.4213 100.327 75.667V40.8243C100.327 39.1962 99.6111 38.4798 97.9829 38.4798H92.2518C90.6236 38.4798 89.9072 39.1962 89.9072 40.8243V74.4948C89.9072 75.0158 89.9072 75.4065 89.6467 75.667C89.3211 75.9927 88.6047 75.7322 87.9535 76.3834C87.4976 76.8393 87.4976 77.6208 87.4976 78.2721V80.4213C87.4976 82.0494 88.4093 82.7658 90.4934 82.7658Z" fill="#1C2BA4"/>
<path d="M110.848 37.3075C112.477 37.3075 113.193 36.5911 113.193 34.9629V31.5112C113.193 29.8831 112.477 29.1667 110.848 29.1667H104.857C103.229 29.1667 102.512 29.8831 102.512 31.5112V34.9629C102.512 36.5911 103.229 37.3075 104.857 37.3075H110.848ZM110.718 75.6019C112.346 75.6019 113.063 74.8855 113.063 73.2573V40.8243C113.063 39.1962 112.346 38.4798 110.718 38.4798H104.987C103.359 38.4798 102.643 39.1962 102.643 40.8243V73.2573C102.643 74.8855 103.359 75.6019 104.987 75.6019H110.718Z" fill="#1C2BA4"/>
</g>
</g>
<path d="M81.3628 101.548C80.6071 100.681 79.2911 100.59 78.4235 101.346C78.4859 101.293 78.4263 101.343 78.4218 101.347L78.4156 101.352L78.4051 101.362C78.3972 101.369 78.3875 101.377 78.3762 101.388C78.3535 101.408 78.3241 101.435 78.2884 101.468C78.2169 101.535 78.1202 101.628 78.0019 101.746C77.7653 101.984 77.442 102.327 77.0614 102.777C76.3005 103.677 75.3082 105.009 74.3231 106.789C72.6057 109.892 70.9224 114.336 70.5116 120.183C44.3759 121.821 24.1667 133.388 24.1667 160.423C24.1667 189.741 47.9339 200.869 77.2522 200.869C106.57 200.869 130.338 189.741 130.338 160.423C130.338 133.238 109.903 121.692 83.5559 120.156C81.6903 120.048 77.8476 120.012 74.7006 120.051C75.1142 115.076 76.5576 111.357 77.9687 108.807C78.8065 107.293 79.6372 106.184 80.2434 105.467C80.5464 105.109 80.7928 104.849 80.955 104.686C81.8036 103.833 82.2588 102.577 81.3628 101.548Z" fill="#6FCF97"/>
<g filter="url(#filter3_b_730_10626)">
<path d="M62.5954 182.744C64.5492 182.744 65.3307 181.767 64.8748 179.879L61.0975 163.727L65.0051 148.553C65.461 146.599 64.7446 145.622 62.7256 145.622H57.0596C55.692 145.622 55.0407 146.143 54.7802 147.446L51.3936 163.011V138.849C51.3936 137.221 50.6772 136.504 49.0491 136.504H43.3179C41.6898 136.504 40.9734 137.221 40.9734 138.849V180.4C40.9734 182.028 41.6898 182.744 43.3179 182.744H49.0491C50.6772 182.744 51.3936 182.028 51.3936 180.4V165.355L54.2592 180.79C54.4546 182.223 55.171 182.744 56.5386 182.744H62.5954Z" fill="#59105C"/>
<path d="M88.4537 171.542C88.4537 169.979 87.7373 169.263 86.1743 169.263H80.5734C79.0755 169.263 78.4242 169.914 78.4242 171.412V173.887C78.4242 174.408 78.2288 174.603 77.7078 174.603H76.9263C76.4053 174.603 76.2099 174.408 76.2099 173.887V168.286H86.1091C87.7373 168.286 88.4537 167.57 88.4537 165.942V154.219C88.4537 148.227 85.4579 145.231 79.4662 145.231H74.9074C68.9157 145.231 65.9199 148.227 65.9199 154.219V174.148C65.9199 180.139 68.9157 183.135 74.9074 183.135H79.4662C85.4579 183.135 88.4537 180.139 88.4537 174.148V171.542ZM77.2519 153.763C78.0986 153.763 78.2939 153.958 78.2939 154.479V160.536H76.2099V154.479C76.2099 153.958 76.4053 153.763 77.2519 153.763Z" fill="#59105C"/>
<path d="M98.9467 144.45C100.575 144.45 101.291 143.733 101.291 142.105V138.654C101.291 137.025 100.575 136.309 98.9467 136.309H92.955C91.3269 136.309 90.6105 137.025 90.6105 138.654V142.105C90.6105 143.733 91.3269 144.45 92.955 144.45H98.9467ZM91.3269 189.908H94.0622C98.8164 189.908 101.161 187.564 101.161 182.809V147.967C101.161 146.338 100.445 145.622 98.8164 145.622H93.0853C91.4571 145.622 90.7407 146.338 90.7407 147.967V181.637C90.7407 182.158 90.7407 182.549 90.4802 182.809C90.1546 183.135 89.4382 182.874 88.7869 183.526C88.3311 183.982 88.3311 184.763 88.3311 185.414V187.564C88.3311 189.192 89.2428 189.908 91.3269 189.908Z" fill="#59105C"/>
<path d="M111.682 144.45C113.31 144.45 114.027 143.733 114.027 142.105V138.654C114.027 137.025 113.31 136.309 111.682 136.309H105.69C104.062 136.309 103.346 137.025 103.346 138.654V142.105C103.346 143.733 104.062 144.45 105.69 144.45H111.682ZM111.552 182.744C113.18 182.744 113.896 182.028 113.896 180.4V147.967C113.896 146.338 113.18 145.622 111.552 145.622H105.821C104.192 145.622 103.476 146.338 103.476 147.967V180.4C103.476 182.028 104.192 182.744 105.821 182.744H111.552Z" fill="#59105C"/>
</g>
<g filter="url(#filter4_b_730_10626)">
<path fill-rule="evenodd" clip-rule="evenodd" d="M98.0207 427.31C116.792 421.485 130.521 410.86 130.521 388.75C130.521 359.151 106.526 347.917 76.927 347.917C47.328 347.917 23.3333 359.151 23.3333 388.75C23.3333 410.86 36.7216 422.722 55.8333 427.31C67.9166 430.211 76.927 437.917 76.927 437.917C76.927 437.917 86.6666 430.833 98.0207 427.31ZM98.1133 373.199C99.7414 373.199 100.458 372.483 100.458 370.855V367.403C100.458 365.775 99.7414 365.059 98.1133 365.059H92.1216C90.4935 365.059 89.7771 365.775 89.7771 367.403V370.855C89.7771 372.483 90.4935 373.199 92.1216 373.199H98.1133ZM90.4935 418.658H93.2288C97.983 418.658 100.328 416.313 100.328 411.559V376.716C100.328 375.088 99.6112 374.372 97.983 374.372H92.2519C90.6237 374.372 89.9073 375.088 89.9073 376.716V410.387C89.9073 410.908 89.9073 411.298 89.6468 411.559C89.5119 411.694 89.31 411.728 89.0734 411.768C88.7389 411.825 88.335 411.894 87.9535 412.275C87.4977 412.731 87.4976 413.513 87.4976 414.164V416.313C87.4976 417.941 88.4094 418.658 90.4935 418.658ZM64.0414 408.628C64.4973 410.517 63.7158 411.494 61.762 411.494H55.7052C54.3376 411.494 53.6212 410.973 53.4258 409.54L50.5602 394.105V409.149C50.5602 410.777 49.8438 411.494 48.2157 411.494H42.4845C40.8564 411.494 40.14 410.777 40.14 409.149V367.599C40.14 365.97 40.8564 365.254 42.4845 365.254H48.2157C49.8438 365.254 50.5602 365.97 50.5602 367.599V391.76L53.9468 376.195C54.2073 374.893 54.8586 374.372 56.2262 374.372H61.8922C63.9112 374.372 64.6275 375.349 64.1717 377.302L60.2641 392.477L64.0414 408.628ZM85.3408 398.013C86.9039 398.013 87.6203 398.729 87.6203 400.292V402.897C87.6203 408.889 84.6245 411.885 78.6328 411.885H74.0739C68.0823 411.885 65.0865 408.889 65.0865 402.897V382.968C65.0865 376.977 68.0823 373.981 74.0739 373.981H78.6328C84.6245 373.981 87.6203 376.977 87.6203 382.968V394.691C87.6203 396.319 86.9039 397.036 85.2757 397.036H75.3765V402.637C75.3765 403.158 75.5719 403.353 76.0929 403.353H76.8744C77.3954 403.353 77.5908 403.158 77.5908 402.637V400.162C77.5908 398.664 78.2421 398.013 79.74 398.013H85.3408ZM77.4605 383.229C77.4605 382.708 77.2652 382.513 76.4185 382.513C75.5719 382.513 75.3765 382.708 75.3765 383.229V389.286H77.4605V383.229ZM113.193 370.855C113.193 372.483 112.477 373.199 110.849 373.199H104.857C103.229 373.199 102.512 372.483 102.512 370.855V367.403C102.512 365.775 103.229 365.059 104.857 365.059H110.849C112.477 365.059 113.193 365.775 113.193 367.403V370.855ZM113.063 409.149C113.063 410.777 112.346 411.494 110.718 411.494H104.987C103.359 411.494 102.643 410.777 102.643 409.149V376.716C102.643 375.088 103.359 374.372 104.987 374.372H110.718C112.346 374.372 113.063 375.088 113.063 376.716V409.149Z" fill="#752278"/>
<path d="M81.9237 327.739L79.7808 347.739C79.6753 348.724 80.4473 349.583 81.438 349.583H82.8425C83.6178 349.583 84.2907 349.049 84.466 348.294L89.1089 328.294C89.3514 327.249 88.5581 326.25 87.4854 326.25H83.5809C82.7291 326.25 82.0144 326.892 81.9237 327.739Z" fill="#752278"/>
<path d="M72.6378 322.812L74.8394 347.763C74.9256 348.74 75.8327 349.432 76.7978 349.256L78.2742 348.988C79.0399 348.849 79.6073 348.198 79.6411 347.421L80.7455 322.021C80.791 320.973 79.8699 320.145 78.8332 320.3L74.0508 321.017C73.1795 321.148 72.5604 321.934 72.6378 322.812Z" fill="#752278"/>
<g filter="url(#filter5_b_730_10626)">
<path d="M61.7619 411.494C63.7157 411.494 64.4972 410.517 64.0413 408.628L60.264 392.477L64.1716 377.302C64.6275 375.349 63.9111 374.372 61.8922 374.372H56.2261C54.8585 374.372 54.2072 374.893 53.9467 376.195L50.5601 391.76V367.599C50.5601 365.97 49.8437 365.254 48.2156 365.254H42.4844C40.8563 365.254 40.1399 365.97 40.1399 367.599V409.149C40.1399 410.777 40.8563 411.494 42.4844 411.494H48.2156C49.8437 411.494 50.5601 410.777 50.5601 409.149V394.105L53.4257 409.54C53.6211 410.973 54.3375 411.494 55.7051 411.494H61.7619Z" fill="#FB59CD"/>
<path d="M87.6202 400.292C87.6202 398.729 86.9038 398.013 85.3408 398.013H79.7399C78.242 398.013 77.5907 398.664 77.5907 400.162V402.637C77.5907 403.158 77.3953 403.353 76.8743 403.353H76.0928C75.5718 403.353 75.3764 403.158 75.3764 402.637V397.036H85.2756C86.9038 397.036 87.6202 396.319 87.6202 394.691V382.968C87.6202 376.977 84.6244 373.981 78.6327 373.981H74.0739C68.0822 373.981 65.0864 376.977 65.0864 382.968V402.897C65.0864 408.889 68.0822 411.885 74.0739 411.885H78.6327C84.6244 411.885 87.6202 408.889 87.6202 402.897V400.292ZM76.4184 382.513C77.2651 382.513 77.4604 382.708 77.4604 383.229V389.286H75.3764V383.229C75.3764 382.708 75.5718 382.513 76.4184 382.513Z" fill="#FB59CD"/>
<path d="M98.1132 373.199C99.7414 373.199 100.458 372.483 100.458 370.855V367.403C100.458 365.775 99.7414 365.059 98.1132 365.059H92.1215C90.4934 365.059 89.777 365.775 89.777 367.403V370.855C89.777 372.483 90.4934 373.199 92.1215 373.199H98.1132ZM90.4934 418.658H93.2287C97.9829 418.658 100.327 416.313 100.327 411.559V376.716C100.327 375.088 99.6111 374.372 97.9829 374.372H92.2518C90.6236 374.372 89.9072 375.088 89.9072 376.716V410.387C89.9072 410.908 89.9072 411.298 89.6467 411.559C89.3211 411.885 88.6047 411.624 87.9535 412.275C87.4976 412.731 87.4976 413.513 87.4976 414.164V416.313C87.4976 417.941 88.4093 418.658 90.4934 418.658Z" fill="#FB59CD"/>
<path d="M110.848 373.199C112.477 373.199 113.193 372.483 113.193 370.855V367.403C113.193 365.775 112.477 365.059 110.848 365.059H104.857C103.229 365.059 102.512 365.775 102.512 367.403V370.855C102.512 372.483 103.229 373.199 104.857 373.199H110.848ZM110.718 411.494C112.346 411.494 113.063 410.777 113.063 409.149V376.716C113.063 375.088 112.346 374.372 110.718 374.372H104.987C103.359 374.372 102.643 375.088 102.643 376.716V409.149C102.643 410.777 103.359 411.494 104.987 411.494H110.718Z" fill="#FB59CD"/>
</g>
</g>
<g filter="url(#filter6_b_730_10626)">
<path fill-rule="evenodd" clip-rule="evenodd" d="M77.8323 458.275C79.399 450.697 86.1111 445 94.1536 445H106.654V445.833C106.654 455.038 99.1917 462.5 89.987 462.5H79.1751C79.4859 463.926 79.6777 465.462 79.6777 467.083C79.6777 467.287 79.6486 467.483 79.5943 467.669C81.9546 467.988 83.5027 468.708 84.925 469.369C86.1763 469.95 87.3302 470.487 88.8541 470.665C112.712 473.464 130.521 485.334 130.521 510.833C130.521 534.363 115.358 546.287 94.2708 550.188C90.6368 550.86 87.4829 550.142 84.2803 549.412C81.9256 548.876 79.5446 548.333 76.927 548.333C74.3095 548.333 71.9285 548.876 69.5738 549.412C66.3712 550.142 63.2173 550.86 59.5833 550.188C38.496 546.287 23.3333 534.363 23.3333 510.833C23.3333 485.334 41.1418 473.464 65 470.665C66.5239 470.487 67.6778 469.95 68.9291 469.369C70.5976 468.593 72.4391 467.737 75.5616 467.541C75.5285 467.394 75.5111 467.241 75.5111 467.083C75.5111 463.565 74.3758 460.462 73.1995 458.201C72.615 457.077 72.0316 456.183 71.5999 455.577C71.3844 455.274 71.208 455.045 71.0899 454.897C71.0309 454.823 70.9866 454.769 70.9594 454.736L70.9318 454.704L70.9318 454.704L72.4718 453.359C70.9318 454.704 70.9313 454.703 70.9309 454.703L70.9302 454.702L70.9291 454.7L70.9285 454.7C70.1753 453.833 70.2654 452.52 71.1308 451.764C71.9975 451.007 73.3136 451.096 74.0704 451.963L72.5011 453.333C74.0704 451.963 74.0709 451.964 74.0713 451.964L74.0724 451.965L74.0749 451.968L74.0813 451.976L74.0996 451.997C74.1141 452.014 74.1334 452.037 74.1571 452.065C74.2046 452.122 74.2697 452.201 74.3499 452.302C74.5104 452.504 74.7319 452.792 74.994 453.16C75.5172 453.895 76.2072 454.954 76.896 456.278C77.2118 456.885 77.5299 457.553 77.8323 458.275Z" fill="#EB5E64"/>
<g filter="url(#filter7_b_730_10626)">
<path d="M61.7619 533.577C63.7157 533.577 64.4972 532.6 64.0413 530.712L60.264 514.56L64.1716 499.386C64.6275 497.432 63.9111 496.455 61.8922 496.455H56.2261C54.8585 496.455 54.2072 496.976 53.9467 498.279L50.5601 513.844V489.682C50.5601 488.054 49.8437 487.337 48.2156 487.337H42.4844C40.8563 487.337 40.1399 488.054 40.1399 489.682V531.233C40.1399 532.861 40.8563 533.577 42.4844 533.577H48.2156C49.8437 533.577 50.5601 532.861 50.5601 531.233V516.188L53.4257 531.623C53.6211 533.056 54.3375 533.577 55.7051 533.577H61.7619Z" fill="#1C2BA4"/>
<path d="M87.6202 522.375C87.6202 520.812 86.9038 520.096 85.3408 520.096H79.7399C78.242 520.096 77.5907 520.747 77.5907 522.245V524.72C77.5907 525.241 77.3953 525.436 76.8743 525.436H76.0928C75.5718 525.436 75.3764 525.241 75.3764 524.72V519.119H85.2756C86.9038 519.119 87.6202 518.403 87.6202 516.775V505.052C87.6202 499.06 84.6244 496.064 78.6327 496.064H74.0739C68.0822 496.064 65.0864 499.06 65.0864 505.052V524.98C65.0864 530.972 68.0822 533.968 74.0739 533.968H78.6327C84.6244 533.968 87.6202 530.972 87.6202 524.98V522.375ZM76.4184 504.596C77.2651 504.596 77.4604 504.791 77.4604 505.312V511.369H75.3764V505.312C75.3764 504.791 75.5718 504.596 76.4184 504.596Z" fill="#1C2BA4"/>
<path d="M98.1132 495.283C99.7414 495.283 100.458 494.566 100.458 492.938V489.486C100.458 487.858 99.7414 487.142 98.1132 487.142H92.1215C90.4934 487.142 89.777 487.858 89.777 489.486V492.938C89.777 494.566 90.4934 495.283 92.1215 495.283H98.1132ZM90.4934 540.741H93.2287C97.9829 540.741 100.327 538.397 100.327 533.642V498.8C100.327 497.171 99.6111 496.455 97.9829 496.455H92.2518C90.6236 496.455 89.9072 497.171 89.9072 498.8V532.47C89.9072 532.991 89.9072 533.382 89.6467 533.642C89.3211 533.968 88.6047 533.707 87.9535 534.359C87.4976 534.815 87.4976 535.596 87.4976 536.247V538.397C87.4976 540.025 88.4093 540.741 90.4934 540.741Z" fill="#1C2BA4"/>
<path d="M110.848 495.283C112.477 495.283 113.193 494.566 113.193 492.938V489.486C113.193 487.858 112.477 487.142 110.848 487.142H104.857C103.229 487.142 102.512 487.858 102.512 489.486V492.938C102.512 494.566 103.229 495.283 104.857 495.283H110.848ZM110.718 533.577C112.346 533.577 113.063 532.861 113.063 531.233V498.8C113.063 497.171 112.346 496.455 110.718 496.455H104.987C103.359 496.455 102.643 497.171 102.643 498.8V531.233C102.643 532.861 103.359 533.577 104.987 533.577H110.718Z" fill="#1C2BA4"/>
</g>
</g>
<path fill-rule="evenodd" clip-rule="evenodd" d="M131.848 618.244L131.848 618.244C132.173 620.012 132.486 621.708 132.163 623.333C127.638 646.116 105.749 655 79.4271 655C55.1248 655 34.6005 647.427 28.0331 628.333C27.7051 627.38 27.3245 626.397 26.9324 625.386L26.9324 625.386C25.6137 621.983 24.1667 618.25 24.1667 614.167C24.1667 610.084 25.6137 606.35 26.9324 602.947C27.3244 601.936 27.7051 600.954 28.0331 600C34.6005 580.907 55.1248 573.333 79.4271 573.333C105.749 573.333 127.638 582.217 132.163 605C132.486 606.625 132.173 608.321 131.848 610.089L131.848 610.089C131.727 610.746 131.604 611.412 131.511 612.089C131.562 612.085 131.614 612.083 131.667 612.083C133.657 612.083 135.211 611.785 136.85 611.471C137.286 611.387 137.727 611.302 138.184 611.222C140.357 610.839 142.671 610.612 145.58 611.456C147.947 612.142 149.933 612.509 151.314 612.704C152.004 612.801 152.541 612.855 152.899 612.884C153.077 612.899 153.211 612.908 153.296 612.913C153.338 612.915 153.368 612.916 153.386 612.917L153.401 612.918C153.402 612.918 153.403 612.918 153.404 612.918C153.404 612.918 153.404 612.918 153.404 612.918C154.552 612.957 155.452 613.918 155.416 615.067C155.379 616.217 154.417 617.119 153.267 617.082L153.333 615C153.267 617.082 153.266 617.082 153.266 617.082L153.265 617.082L153.263 617.082L153.258 617.082L153.244 617.082L153.202 617.08C153.168 617.078 153.121 617.076 153.061 617.073C152.941 617.066 152.772 617.055 152.556 617.037C152.124 617.001 151.506 616.939 150.732 616.829C149.183 616.611 147.002 616.206 144.42 615.458C142.38 614.866 140.785 614.994 138.908 615.325C138.551 615.388 138.177 615.461 137.783 615.537L137.783 615.537C136.11 615.86 134.093 616.25 131.667 616.25C131.614 616.25 131.562 616.248 131.511 616.244C131.604 616.921 131.727 617.588 131.848 618.244ZM102.958 596.272C102.958 597.9 102.241 598.616 100.613 598.616H94.6216C92.9935 598.616 92.2771 597.9 92.2771 596.272V592.82C92.2771 591.192 92.9935 590.475 94.6216 590.475H100.613C102.241 590.475 102.958 591.192 102.958 592.82V596.272ZM95.7288 644.074H92.9935C90.9094 644.074 89.9976 643.358 89.9976 641.73V639.581C89.9976 638.929 89.9977 638.148 90.4535 637.692C90.835 637.311 91.2389 637.242 91.5734 637.185C91.81 637.145 92.0119 637.111 92.1468 636.976C92.4073 636.715 92.4073 636.324 92.4073 635.803V602.133C92.4073 600.505 93.1237 599.788 94.7519 599.788H100.483C102.111 599.788 102.828 600.505 102.828 602.133V636.976C102.828 641.73 100.483 644.074 95.7288 644.074ZM64.262 636.91C66.2158 636.91 66.9973 635.934 66.5414 634.045L62.7641 617.894L66.6717 602.719C67.1275 600.765 66.4112 599.788 64.3922 599.788H58.7262C57.3586 599.788 56.7073 600.309 56.4468 601.612L53.0602 617.177V593.015C53.0602 591.387 52.3438 590.671 50.7157 590.671H44.9845C43.3564 590.671 42.64 591.387 42.64 593.015V634.566C42.64 636.194 43.3564 636.91 44.9845 636.91H50.7157C52.3438 636.91 53.0602 636.194 53.0602 634.566V619.522L55.9258 634.957C56.1212 636.389 56.8376 636.91 58.2052 636.91H64.262ZM90.1203 625.709C90.1203 624.146 89.4039 623.429 87.8408 623.429H82.24C80.7421 623.429 80.0908 624.081 80.0908 625.578V628.053C80.0908 628.574 79.8954 628.77 79.3744 628.77H78.5929C78.0719 628.77 77.8765 628.574 77.8765 628.053V622.452H87.7757C89.4039 622.452 90.1203 621.736 90.1203 620.108V608.385C90.1203 602.393 87.1245 599.398 81.1328 599.398H76.5739C70.5823 599.398 67.5865 602.393 67.5865 608.385V628.314C67.5865 634.305 70.5823 637.301 76.5739 637.301H81.1328C87.1245 637.301 90.1203 634.305 90.1203 628.314V625.709ZM78.9185 607.929C79.7652 607.929 79.9605 608.125 79.9605 608.646V614.702H77.8765V608.646C77.8765 608.125 78.0719 607.929 78.9185 607.929ZM113.349 598.616C114.977 598.616 115.693 597.9 115.693 596.272V592.82C115.693 591.192 114.977 590.475 113.349 590.475H107.357C105.729 590.475 105.012 591.192 105.012 592.82V596.272C105.012 597.9 105.729 598.616 107.357 598.616H113.349ZM113.218 636.91C114.846 636.91 115.563 636.194 115.563 634.566V602.133C115.563 600.505 114.846 599.788 113.218 599.788H107.487C105.859 599.788 105.143 600.505 105.143 602.133V634.566C105.143 636.194 105.859 636.91 107.487 636.91H113.218Z" fill="#10175B"/>
<g filter="url(#filter8_b_730_10626)">
<path d="M64.2619 636.91C66.2157 636.91 66.9972 635.934 66.5413 634.045L62.764 617.894L66.6716 602.719C67.1275 600.765 66.4111 599.788 64.3922 599.788H58.7261C57.3585 599.788 56.7072 600.309 56.4467 601.612L53.0601 617.177V593.015C53.0601 591.387 52.3437 590.671 50.7156 590.671H44.9844C43.3563 590.671 42.6399 591.387 42.6399 593.015V634.566C42.6399 636.194 43.3563 636.91 44.9844 636.91H50.7156C52.3437 636.91 53.0601 636.194 53.0601 634.566V619.522L55.9257 634.957C56.1211 636.389 56.8375 636.91 58.2051 636.91H64.2619Z" fill="#6FCF97"/>
<path d="M90.1202 625.709C90.1202 624.146 89.4038 623.429 87.8408 623.429H82.2399C80.742 623.429 80.0907 624.081 80.0907 625.578V628.053C80.0907 628.574 79.8953 628.77 79.3743 628.77H78.5928C78.0718 628.77 77.8764 628.574 77.8764 628.053V622.452H87.7756C89.4038 622.452 90.1202 621.736 90.1202 620.108V608.385C90.1202 602.393 87.1244 599.398 81.1327 599.398H76.5739C70.5822 599.398 67.5864 602.393 67.5864 608.385V628.314C67.5864 634.305 70.5822 637.301 76.5739 637.301H81.1327C87.1244 637.301 90.1202 634.305 90.1202 628.314V625.709ZM78.9184 607.929C79.7651 607.929 79.9604 608.125 79.9604 608.646V614.702H77.8764V608.646C77.8764 608.125 78.0718 607.929 78.9184 607.929Z" fill="#6FCF97"/>
<path d="M100.613 598.616C102.241 598.616 102.958 597.9 102.958 596.272V592.82C102.958 591.192 102.241 590.475 100.613 590.475H94.6215C92.9934 590.475 92.277 591.192 92.277 592.82V596.272C92.277 597.9 92.9934 598.616 94.6215 598.616H100.613ZM92.9934 644.074H95.7287C100.483 644.074 102.827 641.73 102.827 636.976V602.133C102.827 600.505 102.111 599.788 100.483 599.788H94.7518C93.1236 599.788 92.4072 600.505 92.4072 602.133V635.803C92.4072 636.324 92.4072 636.715 92.1467 636.976C91.8211 637.301 91.1047 637.041 90.4535 637.692C89.9976 638.148 89.9976 638.929 89.9976 639.581V641.73C89.9976 643.358 90.9093 644.074 92.9934 644.074Z" fill="#6FCF97"/>
<path d="M113.348 598.616C114.977 598.616 115.693 597.9 115.693 596.272V592.82C115.693 591.192 114.977 590.475 113.348 590.475H107.357C105.729 590.475 105.012 591.192 105.012 592.82V596.272C105.012 597.9 105.729 598.616 107.357 598.616H113.348ZM113.218 636.91C114.846 636.91 115.563 636.194 115.563 634.566V602.133C115.563 600.505 114.846 599.788 113.218 599.788H107.487C105.859 599.788 105.143 600.505 105.143 602.133V634.566C105.143 636.194 105.859 636.91 107.487 636.91H113.218Z" fill="#6FCF97"/>
</g>
</g>
<defs>
<filter id="filter0_b_730_10626" x="37.6401" y="243.809" width="79.7199" height="60.2658" filterUnits="userSpaceOnUse" color-interpolation-filters="sRGB">
<feFlood flood-opacity="0" result="BackgroundImageFix"/>
<feGaussianBlur in="BackgroundImageFix" stdDeviation="1.66667"/>
<feComposite in2="SourceAlpha" operator="in" result="effect1_backgroundBlur_730_10626"/>
<feBlend mode="normal" in="SourceGraphic" in2="effect1_backgroundBlur_730_10626" result="shape"/>
</filter>
<filter id="filter1_b_730_10626" x="-1.52677" y="-12.5" width="156.387" height="136.932" filterUnits="userSpaceOnUse" color-interpolation-filters="sRGB">
<feFlood flood-opacity="0" result="BackgroundImageFix"/>
<feGaussianBlur in="BackgroundImageFix" stdDeviation="20.8333"/>
<feComposite in2="SourceAlpha" operator="in" result="effect1_backgroundBlur_730_10626"/>
<feBlend mode="normal" in="SourceGraphic" in2="effect1_backgroundBlur_730_10626" result="shape"/>
</filter>
<filter id="filter2_b_730_10626" x="36.8066" y="25.8333" width="79.7199" height="60.2658" filterUnits="userSpaceOnUse" color-interpolation-filters="sRGB">
<feFlood flood-opacity="0" result="BackgroundImageFix"/>
<feGaussianBlur in="BackgroundImageFix" stdDeviation="1.66667"/>
<feComposite in2="SourceAlpha" operator="in" result="effect1_backgroundBlur_730_10626"/>
<feBlend mode="normal" in="SourceGraphic" in2="effect1_backgroundBlur_730_10626" result="shape"/>
</filter>
<filter id="filter3_b_730_10626" x="37.6401" y="132.976" width="79.7199" height="60.2658" filterUnits="userSpaceOnUse" color-interpolation-filters="sRGB">
<feFlood flood-opacity="0" result="BackgroundImageFix"/>
<feGaussianBlur in="BackgroundImageFix" stdDeviation="1.66667"/>
<feComposite in2="SourceAlpha" operator="in" result="effect1_backgroundBlur_730_10626"/>
<feBlend mode="normal" in="SourceGraphic" in2="effect1_backgroundBlur_730_10626" result="shape"/>
</filter>
<filter id="filter4_b_730_10626" x="-18.3334" y="278.615" width="190.521" height="200.969" filterUnits="userSpaceOnUse" color-interpolation-filters="sRGB">
<feFlood flood-opacity="0" result="BackgroundImageFix"/>
<feGaussianBlur in="BackgroundImageFix" stdDeviation="20.8333"/>
<feComposite in2="SourceAlpha" operator="in" result="effect1_backgroundBlur_730_10626"/>
<feBlend mode="normal" in="SourceGraphic" in2="effect1_backgroundBlur_730_10626" result="shape"/>
</filter>
<filter id="filter5_b_730_10626" x="36.8066" y="361.725" width="79.7199" height="60.2658" filterUnits="userSpaceOnUse" color-interpolation-filters="sRGB">
<feFlood flood-opacity="0" result="BackgroundImageFix"/>
<feGaussianBlur in="BackgroundImageFix" stdDeviation="1.66667"/>
<feComposite in2="SourceAlpha" operator="in" result="effect1_backgroundBlur_730_10626"/>
<feBlend mode="normal" in="SourceGraphic" in2="effect1_backgroundBlur_730_10626" result="shape"/>
</filter>
<filter id="filter6_b_730_10626" x="-18.3334" y="403.333" width="190.521" height="188.789" filterUnits="userSpaceOnUse" color-interpolation-filters="sRGB">
<feFlood flood-opacity="0" result="BackgroundImageFix"/>
<feGaussianBlur in="BackgroundImageFix" stdDeviation="20.8333"/>
<feComposite in2="SourceAlpha" operator="in" result="effect1_backgroundBlur_730_10626"/>
<feBlend mode="normal" in="SourceGraphic" in2="effect1_backgroundBlur_730_10626" result="shape"/>
</filter>
<filter id="filter7_b_730_10626" x="36.8066" y="483.809" width="79.7199" height="60.2658" filterUnits="userSpaceOnUse" color-interpolation-filters="sRGB">
<feFlood flood-opacity="0" result="BackgroundImageFix"/>
<feGaussianBlur in="BackgroundImageFix" stdDeviation="1.66667"/>
<feComposite in2="SourceAlpha" operator="in" result="effect1_backgroundBlur_730_10626"/>
<feBlend mode="normal" in="SourceGraphic" in2="effect1_backgroundBlur_730_10626" result="shape"/>
</filter>
<filter id="filter8_b_730_10626" x="39.3066" y="587.142" width="79.7199" height="60.2658" filterUnits="userSpaceOnUse" color-interpolation-filters="sRGB">
<feFlood flood-opacity="0" result="BackgroundImageFix"/>
<feGaussianBlur in="BackgroundImageFix" stdDeviation="1.66667"/>
<feComposite in2="SourceAlpha" operator="in" result="effect1_backgroundBlur_730_10626"/>
<feBlend mode="normal" in="SourceGraphic" in2="effect1_backgroundBlur_730_10626" result="shape"/>
</filter>
<clipPath id="clip0_730_10626">
<rect width="160" height="668" fill="white"/>
</clipPath>
</defs>
</svg>
