<svg width="146" height="97" viewBox="0 0 146 97" fill="none" xmlns="http://www.w3.org/2000/svg">
<path d="M146 48.5C146 58.0158 133.194 57.6917 132.187 61.6994C125.822 87.0507 100.434 97 70.0842 97C40.1968 97 15.1213 87.3515 8.28523 62.8471C7.72168 60.827 3.37506 62.2331 1.45002 55.8671C-0.475011 49.501 -0.491577 47.2722 1.45002 41.7468C3.39162 36.2215 7.72168 36.173 8.28523 34.1529C15.1213 9.64852 40.1968 0 70.0842 0C100.434 0 125.822 9.94929 132.187 35.3006C133.194 39.3083 146 38.9842 146 48.5Z" fill="#F7CD46"/>
<g filter="url(#filter0_b_108_1326)">
<g filter="url(#filter1_b_108_1326)">
<path d="M52.1144 75.7223C54.4589 75.7223 55.3968 74.55 54.8497 72.2836L50.3169 52.9019L55.006 34.6925C55.5531 32.348 54.6934 31.1757 52.2707 31.1757H45.4715C43.8303 31.1757 43.0488 31.8009 42.7362 33.364L38.6723 52.0423V23.0479C38.6723 21.0941 37.8126 20.2345 35.8588 20.2345H28.9814C27.0276 20.2345 26.168 21.0941 26.168 23.0479V72.9088C26.168 74.8626 27.0276 75.7223 28.9814 75.7223H35.8588C37.8126 75.7223 38.6723 74.8626 38.6723 72.9088V54.8557L42.1109 73.3777C42.3454 75.0971 43.2051 75.7223 44.8463 75.7223H52.1144Z" fill="#1C2BA4"/>
<path d="M83.1443 62.2802C83.1443 60.4045 82.2847 59.5448 80.409 59.5448H73.688C71.8905 59.5448 71.1089 60.3264 71.1089 62.1238V65.0936C71.1089 65.7188 70.8745 65.9533 70.2493 65.9533H69.3115C68.6862 65.9533 68.4518 65.7188 68.4518 65.0936V58.3726H80.3309C82.2847 58.3726 83.1443 57.5129 83.1443 55.5591V41.4918C83.1443 34.3018 79.5493 30.7068 72.3594 30.7068H66.8887C59.6988 30.7068 56.1038 34.3018 56.1038 41.4918V65.4062C56.1038 72.5962 59.6988 76.1912 66.8887 76.1912H72.3594C79.5493 76.1912 83.1443 72.5962 83.1443 65.4062V62.2802ZM69.7022 40.9447C70.7182 40.9447 70.9526 41.1792 70.9526 41.8044V49.0725H68.4518V41.8044C68.4518 41.1792 68.6862 40.9447 69.7022 40.9447Z" fill="#1C2BA4"/>
<path d="M95.7359 29.769C97.6897 29.769 98.5494 28.9093 98.5494 26.9555V22.8135C98.5494 20.8597 97.6897 20 95.7359 20H88.546C86.5922 20 85.7325 20.8597 85.7325 22.8135V26.9555C85.7325 28.9093 86.5922 29.769 88.546 29.769H95.7359ZM86.5922 84.319H89.8745C95.5796 84.319 98.3931 81.5055 98.3931 75.8004V33.9892C98.3931 32.0354 97.5334 31.1757 95.5796 31.1757H88.7023C86.7485 31.1757 85.8888 32.0354 85.8888 33.9892V74.3937C85.8888 75.0189 85.8888 75.4878 85.5762 75.8004C85.1854 76.1912 84.3258 75.8786 83.5442 76.6601C82.9972 77.2072 82.9972 78.145 82.9972 78.9265V81.5055C82.9972 83.4593 84.0913 84.319 86.5922 84.319Z" fill="#1C2BA4"/>
<path d="M111.018 29.769C112.972 29.769 113.832 28.9093 113.832 26.9555V22.8135C113.832 20.8597 112.972 20 111.018 20H103.828C101.875 20 101.015 20.8597 101.015 22.8135V26.9555C101.015 28.9093 101.875 29.769 103.828 29.769H111.018ZM110.862 75.7223C112.816 75.7223 113.675 74.8626 113.675 72.9088V33.9892C113.675 32.0354 112.816 31.1757 110.862 31.1757H103.985C102.031 31.1757 101.171 32.0354 101.171 33.9892V72.9088C101.171 74.8626 102.031 75.7223 103.985 75.7223H110.862Z" fill="#1C2BA4"/>
</g>
</g>
<defs>
<filter id="filter0_b_108_1326" x="-23.832" y="-30" width="187.664" height="164.32" filterUnits="userSpaceOnUse" color-interpolation-filters="sRGB">
<feFlood flood-opacity="0" result="BackgroundImageFix"/>
<feGaussianBlur in="BackgroundImage" stdDeviation="25"/>
<feComposite in2="SourceAlpha" operator="in" result="effect1_backgroundBlur_108_1326"/>
<feBlend mode="normal" in="SourceGraphic" in2="effect1_backgroundBlur_108_1326" result="shape"/>
</filter>
<filter id="filter1_b_108_1326" x="22.168" y="16" width="95.6641" height="72.3203" filterUnits="userSpaceOnUse" color-interpolation-filters="sRGB">
<feFlood flood-opacity="0" result="BackgroundImageFix"/>
<feGaussianBlur in="BackgroundImage" stdDeviation="2"/>
<feComposite in2="SourceAlpha" operator="in" result="effect1_backgroundBlur_108_1326"/>
<feBlend mode="normal" in="SourceGraphic" in2="effect1_backgroundBlur_108_1326" result="shape"/>
</filter>
</defs>
</svg>
