<svg width="120" height="120" viewBox="0 0 120 120" fill="none" xmlns="http://www.w3.org/2000/svg">
<rect width="120" height="120" fill="white"/>
<rect width="114" height="114" transform="translate(3.6001 3.6001)" fill="white"/>
<rect width="114" height="114" transform="translate(3.6001 3.6001)" fill="white"/>
<path d="M9.3 47.2998H5.5V51.0998H9.3V47.2998Z" fill="black"/>
<path d="M9.3 54.8999H5.5V58.6999H9.3V54.8999Z" fill="black"/>
<path d="M9.3 66.2998H5.5V70.0998H9.3V66.2998Z" fill="black"/>
<path d="M9.3 77.7002H5.5V81.5002H9.3V77.7002Z" fill="black"/>
<path d="M9.3 81.5H5.5V85.3H9.3V81.5Z" fill="black"/>
<path d="M13.0998 35.8999H9.2998V39.6999H13.0998V35.8999Z" fill="black"/>
<path d="M13.0998 39.6997H9.2998V43.4997H13.0998V39.6997Z" fill="black"/>
<path d="M13.0998 43.5H9.2998V47.3H13.0998V43.5Z" fill="black"/>
<path d="M13.0998 47.2998H9.2998V51.0998H13.0998V47.2998Z" fill="black"/>
<path d="M13.0998 51.1001H9.2998V54.9001H13.0998V51.1001Z" fill="black"/>
<path d="M13.0998 54.8999H9.2998V58.6999H13.0998V54.8999Z" fill="black"/>
<path d="M13.0998 58.6997H9.2998V62.4997H13.0998V58.6997Z" fill="black"/>
<path d="M13.0998 62.5H9.2998V66.3H13.0998V62.5Z" fill="black"/>
<path d="M13.0998 66.2998H9.2998V70.0998H13.0998V66.2998Z" fill="black"/>
<path d="M13.0998 77.7002H9.2998V81.5002H13.0998V77.7002Z" fill="black"/>
<path d="M16.8996 43.5H13.0996V47.3H16.8996V43.5Z" fill="black"/>
<path d="M16.8996 47.2998H13.0996V51.0998H16.8996V47.2998Z" fill="black"/>
<path d="M16.8996 51.1001H13.0996V54.9001H16.8996V51.1001Z" fill="black"/>
<path d="M16.8996 54.8999H13.0996V58.6999H16.8996V54.8999Z" fill="black"/>
<path d="M16.8996 58.6997H13.0996V62.4997H16.8996V58.6997Z" fill="black"/>
<path d="M16.8996 62.5H13.0996V66.3H16.8996V62.5Z" fill="black"/>
<path d="M16.8996 66.2998H13.0996V70.0998H16.8996V66.2998Z" fill="black"/>
<path d="M16.8996 77.7002H13.0996V81.5002H16.8996V77.7002Z" fill="black"/>
<path d="M20.6999 35.8999H16.8999V39.6999H20.6999V35.8999Z" fill="black"/>
<path d="M20.6999 39.6997H16.8999V43.4997H20.6999V39.6997Z" fill="black"/>
<path d="M20.6999 43.5H16.8999V47.3H20.6999V43.5Z" fill="black"/>
<path d="M20.6999 47.2998H16.8999V51.0998H20.6999V47.2998Z" fill="black"/>
<path d="M20.6999 70.0996H16.8999V73.8996H20.6999V70.0996Z" fill="black"/>
<path d="M20.6999 81.5H16.8999V85.3H20.6999V81.5Z" fill="black"/>
<path d="M24.5002 35.8999H20.7002V39.6999H24.5002V35.8999Z" fill="black"/>
<path d="M24.5002 43.5H20.7002V47.3H24.5002V43.5Z" fill="black"/>
<path d="M24.5002 47.2998H20.7002V51.0998H24.5002V47.2998Z" fill="black"/>
<path d="M24.5002 51.1001H20.7002V54.9001H24.5002V51.1001Z" fill="black"/>
<path d="M24.5002 58.6997H20.7002V62.4997H24.5002V58.6997Z" fill="black"/>
<path d="M24.5002 62.5H20.7002V66.3H24.5002V62.5Z" fill="black"/>
<path d="M24.5002 66.2998H20.7002V70.0998H24.5002V66.2998Z" fill="black"/>
<path d="M24.5002 77.7002H20.7002V81.5002H24.5002V77.7002Z" fill="black"/>
<path d="M24.5002 81.5H20.7002V85.3H24.5002V81.5Z" fill="black"/>
<path d="M28.3 39.6997H24.5V43.4997H28.3V39.6997Z" fill="black"/>
<path d="M28.3 66.2998H24.5V70.0998H28.3V66.2998Z" fill="black"/>
<path d="M28.3 81.5H24.5V85.3H28.3V81.5Z" fill="black"/>
<path d="M32.0998 35.8999H28.2998V39.6999H32.0998V35.8999Z" fill="black"/>
<path d="M32.0998 43.5H28.2998V47.3H32.0998V43.5Z" fill="black"/>
<path d="M32.0998 51.1001H28.2998V54.9001H32.0998V51.1001Z" fill="black"/>
<path d="M32.0998 58.6997H28.2998V62.4997H32.0998V58.6997Z" fill="black"/>
<path d="M32.0998 66.2998H28.2998V70.0998H32.0998V66.2998Z" fill="black"/>
<path d="M32.0998 73.8999H28.2998V77.6999H32.0998V73.8999Z" fill="black"/>
<path d="M32.0998 81.5H28.2998V85.3H32.0998V81.5Z" fill="black"/>
<path d="M35.9001 35.8999H32.1001V39.6999H35.9001V35.8999Z" fill="black"/>
<path d="M35.9001 51.1001H32.1001V54.9001H35.9001V51.1001Z" fill="black"/>
<path d="M35.9001 58.6997H32.1001V62.4997H35.9001V58.6997Z" fill="black"/>
<path d="M35.9001 62.5H32.1001V66.3H35.9001V62.5Z" fill="black"/>
<path d="M35.9001 66.2998H32.1001V70.0998H35.9001V66.2998Z" fill="black"/>
<path d="M35.9001 70.0996H32.1001V73.8996H35.9001V70.0996Z" fill="black"/>
<path d="M35.9001 73.8999H32.1001V77.6999H35.9001V73.8999Z" fill="black"/>
<path d="M35.9001 77.7002H32.1001V81.5002H35.9001V77.7002Z" fill="black"/>
<path d="M39.6999 9.2998H35.8999V13.0998H39.6999V9.2998Z" fill="black"/>
<path d="M39.6999 16.8999H35.8999V20.6999H39.6999V16.8999Z" fill="black"/>
<path d="M39.6999 20.7002H35.8999V24.5002H39.6999V20.7002Z" fill="black"/>
<path d="M39.6999 24.5H35.8999V28.3H39.6999V24.5Z" fill="black"/>
<path d="M39.6999 28.2998H35.8999V32.0998H39.6999V28.2998Z" fill="black"/>
<path d="M39.6999 35.8999H35.8999V39.6999H39.6999V35.8999Z" fill="black"/>
<path d="M39.6999 43.5H35.8999V47.3H39.6999V43.5Z" fill="black"/>
<path d="M39.6999 62.5H35.8999V66.3H39.6999V62.5Z" fill="black"/>
<path d="M39.6999 66.2998H35.8999V70.0998H39.6999V66.2998Z" fill="black"/>
<path d="M39.6999 77.7002H35.8999V81.5002H39.6999V77.7002Z" fill="black"/>
<path d="M39.6999 85.2998H35.8999V89.0998H39.6999V85.2998Z" fill="black"/>
<path d="M39.6999 89.1001H35.8999V92.9001H39.6999V89.1001Z" fill="black"/>
<path d="M39.6999 96.6997H35.8999V100.5H39.6999V96.6997Z" fill="black"/>
<path d="M39.6999 100.5H35.8999V104.3H39.6999V100.5Z" fill="black"/>
<path d="M39.6999 108.1H35.8999V111.9H39.6999V108.1Z" fill="black"/>
<path d="M43.4997 24.5H39.6997V28.3H43.4997V24.5Z" fill="black"/>
<path d="M43.4997 35.8999H39.6997V39.6999H43.4997V35.8999Z" fill="black"/>
<path d="M43.4997 43.5H39.6997V47.3H43.4997V43.5Z" fill="black"/>
<path d="M43.4997 47.2998H39.6997V51.0998H43.4997V47.2998Z" fill="black"/>
<path d="M43.4997 58.6997H39.6997V62.4997H43.4997V58.6997Z" fill="black"/>
<path d="M43.4997 73.8999H39.6997V77.6999H43.4997V73.8999Z" fill="black"/>
<path d="M43.4997 85.2998H39.6997V89.0998H43.4997V85.2998Z" fill="black"/>
<path d="M43.4997 89.1001H39.6997V92.9001H43.4997V89.1001Z" fill="black"/>
<path d="M43.4997 92.8999H39.6997V96.6999H43.4997V92.8999Z" fill="black"/>
<path d="M43.4997 96.6997H39.6997V100.5H43.4997V96.6997Z" fill="black"/>
<path d="M43.4997 100.5H39.6997V104.3H43.4997V100.5Z" fill="black"/>
<path d="M43.4997 108.1H39.6997V111.9H43.4997V108.1Z" fill="black"/>
<path d="M47.3 5.5H43.5V9.3H47.3V5.5Z" fill="black"/>
<path d="M47.3 9.2998H43.5V13.0998H47.3V9.2998Z" fill="black"/>
<path d="M47.3 20.7002H43.5V24.5002H47.3V20.7002Z" fill="black"/>
<path d="M47.3 28.2998H43.5V32.0998H47.3V28.2998Z" fill="black"/>
<path d="M47.3 32.1001H43.5V35.9001H47.3V32.1001Z" fill="black"/>
<path d="M47.3 77.7002H43.5V81.5002H47.3V77.7002Z" fill="black"/>
<path d="M47.3 81.5H43.5V85.3H47.3V81.5Z" fill="black"/>
<path d="M47.3 85.2998H43.5V89.0998H47.3V85.2998Z" fill="black"/>
<path d="M47.3 89.1001H43.5V92.9001H47.3V89.1001Z" fill="black"/>
<path d="M47.3 92.8999H43.5V96.6999H47.3V92.8999Z" fill="black"/>
<path d="M47.3 100.5H43.5V104.3H47.3V100.5Z" fill="black"/>
<path d="M51.0998 16.8999H47.2998V20.6999H51.0998V16.8999Z" fill="black"/>
<path d="M51.0998 20.7002H47.2998V24.5002H51.0998V20.7002Z" fill="black"/>
<path d="M51.0998 24.5H47.2998V28.3H51.0998V24.5Z" fill="black"/>
<path d="M51.0998 32.1001H47.2998V35.9001H51.0998V32.1001Z" fill="black"/>
<path d="M51.0998 77.7002H47.2998V81.5002H51.0998V77.7002Z" fill="black"/>
<path d="M51.0998 81.5H47.2998V85.3H51.0998V81.5Z" fill="black"/>
<path d="M51.0998 92.8999H47.2998V96.6999H51.0998V92.8999Z" fill="black"/>
<path d="M51.0998 100.5H47.2998V104.3H51.0998V100.5Z" fill="black"/>
<path d="M51.0998 111.9H47.2998V115.7H51.0998V111.9Z" fill="black"/>
<path d="M54.9001 5.5H51.1001V9.3H54.9001V5.5Z" fill="black"/>
<path d="M54.9001 9.2998H51.1001V13.0998H54.9001V9.2998Z" fill="black"/>
<path d="M54.9001 13.0996H51.1001V16.8996H54.9001V13.0996Z" fill="black"/>
<path d="M54.9001 20.7002H51.1001V24.5002H54.9001V20.7002Z" fill="black"/>
<path d="M54.9001 28.2998H51.1001V32.0998H54.9001V28.2998Z" fill="black"/>
<path d="M54.9001 35.8999H51.1001V39.6999H54.9001V35.8999Z" fill="black"/>
<path d="M54.9001 39.6997H51.1001V43.4997H54.9001V39.6997Z" fill="black"/>
<path d="M54.9001 81.5H51.1001V85.3H54.9001V81.5Z" fill="black"/>
<path d="M54.9001 85.2998H51.1001V89.0998H54.9001V85.2998Z" fill="black"/>
<path d="M54.9001 89.1001H51.1001V92.9001H54.9001V89.1001Z" fill="black"/>
<path d="M54.9001 104.3H51.1001V108.1H54.9001V104.3Z" fill="black"/>
<path d="M54.9001 108.1H51.1001V111.9H54.9001V108.1Z" fill="black"/>
<path d="M58.6999 13.0996H54.8999V16.8996H58.6999V13.0996Z" fill="black"/>
<path d="M58.6999 20.7002H54.8999V24.5002H58.6999V20.7002Z" fill="black"/>
<path d="M58.6999 24.5H54.8999V28.3H58.6999V24.5Z" fill="black"/>
<path d="M58.6999 32.1001H54.8999V35.9001H58.6999V32.1001Z" fill="black"/>
<path d="M58.6999 39.6997H54.8999V43.4997H58.6999V39.6997Z" fill="black"/>
<path d="M58.6999 89.1001H54.8999V92.9001H58.6999V89.1001Z" fill="black"/>
<path d="M58.6999 96.6997H54.8999V100.5H58.6999V96.6997Z" fill="black"/>
<path d="M58.6999 104.3H54.8999V108.1H58.6999V104.3Z" fill="black"/>
<path d="M58.6999 111.9H54.8999V115.7H58.6999V111.9Z" fill="black"/>
<path d="M62.4997 5.5H58.6997V9.3H62.4997V5.5Z" fill="black"/>
<path d="M62.4997 16.8999H58.6997V20.6999H62.4997V16.8999Z" fill="black"/>
<path d="M62.4997 24.5H58.6997V28.3H62.4997V24.5Z" fill="black"/>
<path d="M62.4997 28.2998H58.6997V32.0998H62.4997V28.2998Z" fill="black"/>
<path d="M62.4997 39.6997H58.6997V43.4997H62.4997V39.6997Z" fill="black"/>
<path d="M62.4997 77.7002H58.6997V81.5002H62.4997V77.7002Z" fill="black"/>
<path d="M62.4997 81.5H58.6997V85.3H62.4997V81.5Z" fill="black"/>
<path d="M62.4997 85.2998H58.6997V89.0998H62.4997V85.2998Z" fill="black"/>
<path d="M62.4997 89.1001H58.6997V92.9001H62.4997V89.1001Z" fill="black"/>
<path d="M62.4997 92.8999H58.6997V96.6999H62.4997V92.8999Z" fill="black"/>
<path d="M62.4997 100.5H58.6997V104.3H62.4997V100.5Z" fill="black"/>
<path d="M62.4997 108.1H58.6997V111.9H62.4997V108.1Z" fill="black"/>
<path d="M62.4997 111.9H58.6997V115.7H62.4997V111.9Z" fill="black"/>
<path d="M66.3 35.8999H62.5V39.6999H66.3V35.8999Z" fill="black"/>
<path d="M66.3 96.6997H62.5V100.5H66.3V96.6997Z" fill="black"/>
<path d="M66.3 100.5H62.5V104.3H66.3V100.5Z" fill="black"/>
<path d="M66.3 104.3H62.5V108.1H66.3V104.3Z" fill="black"/>
<path d="M66.3 108.1H62.5V111.9H66.3V108.1Z" fill="black"/>
<path d="M66.3 111.9H62.5V115.7H66.3V111.9Z" fill="black"/>
<path d="M70.0998 5.5H66.2998V9.3H70.0998V5.5Z" fill="black"/>
<path d="M70.0998 9.2998H66.2998V13.0998H70.0998V9.2998Z" fill="black"/>
<path d="M70.0998 13.0996H66.2998V16.8996H70.0998V13.0996Z" fill="black"/>
<path d="M70.0998 16.8999H66.2998V20.6999H70.0998V16.8999Z" fill="black"/>
<path d="M70.0998 24.5H66.2998V28.3H70.0998V24.5Z" fill="black"/>
<path d="M70.0998 28.2998H66.2998V32.0998H70.0998V28.2998Z" fill="black"/>
<path d="M70.0998 32.1001H66.2998V35.9001H70.0998V32.1001Z" fill="black"/>
<path d="M70.0998 35.8999H66.2998V39.6999H70.0998V35.8999Z" fill="black"/>
<path d="M70.0998 77.7002H66.2998V81.5002H70.0998V77.7002Z" fill="black"/>
<path d="M70.0998 81.5H66.2998V85.3H70.0998V81.5Z" fill="black"/>
<path d="M70.0998 92.8999H66.2998V96.6999H70.0998V92.8999Z" fill="black"/>
<path d="M70.0998 100.5H66.2998V104.3H70.0998V100.5Z" fill="black"/>
<path d="M70.0998 111.9H66.2998V115.7H70.0998V111.9Z" fill="black"/>
<path d="M73.8996 5.5H70.0996V9.3H73.8996V5.5Z" fill="black"/>
<path d="M73.8996 13.0996H70.0996V16.8996H73.8996V13.0996Z" fill="black"/>
<path d="M73.8996 32.1001H70.0996V35.9001H73.8996V32.1001Z" fill="black"/>
<path d="M73.8996 39.6997H70.0996V43.4997H73.8996V39.6997Z" fill="black"/>
<path d="M73.8996 89.1001H70.0996V92.9001H73.8996V89.1001Z" fill="black"/>
<path d="M73.8996 96.6997H70.0996V100.5H73.8996V96.6997Z" fill="black"/>
<path d="M73.8996 100.5H70.0996V104.3H73.8996V100.5Z" fill="black"/>
<path d="M77.6999 5.5H73.8999V9.3H77.6999V5.5Z" fill="black"/>
<path d="M77.6999 9.2998H73.8999V13.0998H77.6999V9.2998Z" fill="black"/>
<path d="M77.6999 16.8999H73.8999V20.6999H77.6999V16.8999Z" fill="black"/>
<path d="M77.6999 20.7002H73.8999V24.5002H77.6999V20.7002Z" fill="black"/>
<path d="M77.6999 28.2998H73.8999V32.0998H77.6999V28.2998Z" fill="black"/>
<path d="M77.6999 32.1001H73.8999V35.9001H77.6999V32.1001Z" fill="black"/>
<path d="M77.6999 35.8999H73.8999V39.6999H77.6999V35.8999Z" fill="black"/>
<path d="M77.6999 39.6997H73.8999V43.4997H77.6999V39.6997Z" fill="black"/>
<path d="M77.6999 77.7002H73.8999V81.5002H77.6999V77.7002Z" fill="black"/>
<path d="M77.6999 100.5H73.8999V104.3H77.6999V100.5Z" fill="black"/>
<path d="M77.6999 111.9H73.8999V115.7H77.6999V111.9Z" fill="black"/>
<path d="M81.5002 5.5H77.7002V9.3H81.5002V5.5Z" fill="black"/>
<path d="M81.5002 9.2998H77.7002V13.0998H81.5002V9.2998Z" fill="black"/>
<path d="M81.5002 16.8999H77.7002V20.6999H81.5002V16.8999Z" fill="black"/>
<path d="M81.5002 20.7002H77.7002V24.5002H81.5002V20.7002Z" fill="black"/>
<path d="M81.5002 54.8999H77.7002V58.6999H81.5002V54.8999Z" fill="black"/>
<path d="M81.5002 62.5H77.7002V66.3H81.5002V62.5Z" fill="black"/>
<path d="M81.5002 66.2998H77.7002V70.0998H81.5002V66.2998Z" fill="black"/>
<path d="M81.5002 73.8999H77.7002V77.6999H81.5002V73.8999Z" fill="black"/>
<path d="M81.5002 85.2998H77.7002V89.0998H81.5002V85.2998Z" fill="black"/>
<path d="M81.5002 89.1001H77.7002V92.9001H81.5002V89.1001Z" fill="black"/>
<path d="M81.5002 92.8999H77.7002V96.6999H81.5002V92.8999Z" fill="black"/>
<path d="M81.5002 104.3H77.7002V108.1H81.5002V104.3Z" fill="black"/>
<path d="M81.5002 108.1H77.7002V111.9H81.5002V108.1Z" fill="black"/>
<path d="M85.3 5.5H81.5V9.3H85.3V5.5Z" fill="black"/>
<path d="M85.3 9.2998H81.5V13.0998H85.3V9.2998Z" fill="black"/>
<path d="M85.3 16.8999H81.5V20.6999H85.3V16.8999Z" fill="black"/>
<path d="M85.3 24.5H81.5V28.3H85.3V24.5Z" fill="black"/>
<path d="M85.3 28.2998H81.5V32.0998H85.3V28.2998Z" fill="black"/>
<path d="M85.3 32.1001H81.5V35.9001H85.3V32.1001Z" fill="black"/>
<path d="M85.3 35.8999H81.5V39.6999H85.3V35.8999Z" fill="black"/>
<path d="M85.3 39.6997H81.5V43.4997H85.3V39.6997Z" fill="black"/>
<path d="M85.3 51.1001H81.5V54.9001H85.3V51.1001Z" fill="black"/>
<path d="M85.3 54.8999H81.5V58.6999H85.3V54.8999Z" fill="black"/>
<path d="M85.3 58.6997H81.5V62.4997H85.3V58.6997Z" fill="black"/>
<path d="M85.3 66.2998H81.5V70.0998H85.3V66.2998Z" fill="black"/>
<path d="M85.3 70.0996H81.5V73.8996H85.3V70.0996Z" fill="black"/>
<path d="M85.3 73.8999H81.5V77.6999H85.3V73.8999Z" fill="black"/>
<path d="M85.3 81.5H81.5V85.3H85.3V81.5Z" fill="black"/>
<path d="M85.3 85.2998H81.5V89.0998H85.3V85.2998Z" fill="black"/>
<path d="M85.3 89.1001H81.5V92.9001H85.3V89.1001Z" fill="black"/>
<path d="M85.3 92.8999H81.5V96.6999H85.3V92.8999Z" fill="black"/>
<path d="M85.3 96.6997H81.5V100.5H85.3V96.6997Z" fill="black"/>
<path d="M85.3 104.3H81.5V108.1H85.3V104.3Z" fill="black"/>
<path d="M85.3 108.1H81.5V111.9H85.3V108.1Z" fill="black"/>
<path d="M89.0998 35.8999H85.2998V39.6999H89.0998V35.8999Z" fill="black"/>
<path d="M89.0998 39.6997H85.2998V43.4997H89.0998V39.6997Z" fill="black"/>
<path d="M89.0998 43.5H85.2998V47.3H89.0998V43.5Z" fill="black"/>
<path d="M89.0998 62.5H85.2998V66.3H89.0998V62.5Z" fill="black"/>
<path d="M89.0998 70.0996H85.2998V73.8996H89.0998V70.0996Z" fill="black"/>
<path d="M89.0998 73.8999H85.2998V77.6999H89.0998V73.8999Z" fill="black"/>
<path d="M89.0998 81.5H85.2998V85.3H89.0998V81.5Z" fill="black"/>
<path d="M89.0998 96.6997H85.2998V100.5H89.0998V96.6997Z" fill="black"/>
<path d="M89.0998 100.5H85.2998V104.3H89.0998V100.5Z" fill="black"/>
<path d="M89.0998 104.3H85.2998V108.1H89.0998V104.3Z" fill="black"/>
<path d="M92.9001 43.5H89.1001V47.3H92.9001V43.5Z" fill="black"/>
<path d="M92.9001 47.2998H89.1001V51.0998H92.9001V47.2998Z" fill="black"/>
<path d="M92.9001 51.1001H89.1001V54.9001H92.9001V51.1001Z" fill="black"/>
<path d="M92.9001 54.8999H89.1001V58.6999H92.9001V54.8999Z" fill="black"/>
<path d="M92.9001 58.6997H89.1001V62.4997H92.9001V58.6997Z" fill="black"/>
<path d="M92.9001 62.5H89.1001V66.3H92.9001V62.5Z" fill="black"/>
<path d="M92.9001 66.2998H89.1001V70.0998H92.9001V66.2998Z" fill="black"/>
<path d="M92.9001 77.7002H89.1001V81.5002H92.9001V77.7002Z" fill="black"/>
<path d="M92.9001 81.5H89.1001V85.3H92.9001V81.5Z" fill="black"/>
<path d="M92.9001 89.1001H89.1001V92.9001H92.9001V89.1001Z" fill="black"/>
<path d="M92.9001 96.6997H89.1001V100.5H92.9001V96.6997Z" fill="black"/>
<path d="M92.9001 104.3H89.1001V108.1H92.9001V104.3Z" fill="black"/>
<path d="M96.6999 35.8999H92.8999V39.6999H96.6999V35.8999Z" fill="black"/>
<path d="M96.6999 39.6997H92.8999V43.4997H96.6999V39.6997Z" fill="black"/>
<path d="M96.6999 47.2998H92.8999V51.0998H96.6999V47.2998Z" fill="black"/>
<path d="M96.6999 58.6997H92.8999V62.4997H96.6999V58.6997Z" fill="black"/>
<path d="M96.6999 62.5H92.8999V66.3H96.6999V62.5Z" fill="black"/>
<path d="M96.6999 66.2998H92.8999V70.0998H96.6999V66.2998Z" fill="black"/>
<path d="M96.6999 73.8999H92.8999V77.6999H96.6999V73.8999Z" fill="black"/>
<path d="M96.6999 77.7002H92.8999V81.5002H96.6999V77.7002Z" fill="black"/>
<path d="M96.6999 81.5H92.8999V85.3H96.6999V81.5Z" fill="black"/>
<path d="M96.6999 96.6997H92.8999V100.5H96.6999V96.6997Z" fill="black"/>
<path d="M96.6999 100.5H92.8999V104.3H96.6999V100.5Z" fill="black"/>
<path d="M96.6999 108.1H92.8999V111.9H96.6999V108.1Z" fill="black"/>
<path d="M100.5 35.8999H96.6997V39.6999H100.5V35.8999Z" fill="black"/>
<path d="M100.5 47.2998H96.6997V51.0998H100.5V47.2998Z" fill="black"/>
<path d="M100.5 51.1001H96.6997V54.9001H100.5V51.1001Z" fill="black"/>
<path d="M100.5 62.5H96.6997V66.3H100.5V62.5Z" fill="black"/>
<path d="M100.5 70.0996H96.6997V73.8996H100.5V70.0996Z" fill="black"/>
<path d="M100.5 77.7002H96.6997V81.5002H100.5V77.7002Z" fill="black"/>
<path d="M100.5 81.5H96.6997V85.3H100.5V81.5Z" fill="black"/>
<path d="M100.5 85.2998H96.6997V89.0998H100.5V85.2998Z" fill="black"/>
<path d="M100.5 89.1001H96.6997V92.9001H100.5V89.1001Z" fill="black"/>
<path d="M100.5 92.8999H96.6997V96.6999H100.5V92.8999Z" fill="black"/>
<path d="M100.5 96.6997H96.6997V100.5H100.5V96.6997Z" fill="black"/>
<path d="M104.3 35.8999H100.5V39.6999H104.3V35.8999Z" fill="black"/>
<path d="M104.3 47.2998H100.5V51.0998H104.3V47.2998Z" fill="black"/>
<path d="M104.3 54.8999H100.5V58.6999H104.3V54.8999Z" fill="black"/>
<path d="M104.3 70.0996H100.5V73.8996H104.3V70.0996Z" fill="black"/>
<path d="M104.3 73.8999H100.5V77.6999H104.3V73.8999Z" fill="black"/>
<path d="M104.3 92.8999H100.5V96.6999H104.3V92.8999Z" fill="black"/>
<path d="M104.3 100.5H100.5V104.3H104.3V100.5Z" fill="black"/>
<path d="M104.3 108.1H100.5V111.9H104.3V108.1Z" fill="black"/>
<path d="M108.1 39.6997H104.3V43.4997H108.1V39.6997Z" fill="black"/>
<path d="M108.1 43.5H104.3V47.3H108.1V43.5Z" fill="black"/>
<path d="M108.1 51.1001H104.3V54.9001H108.1V51.1001Z" fill="black"/>
<path d="M108.1 54.8999H104.3V58.6999H108.1V54.8999Z" fill="black"/>
<path d="M108.1 62.5H104.3V66.3H108.1V62.5Z" fill="black"/>
<path d="M108.1 70.0996H104.3V73.8996H108.1V70.0996Z" fill="black"/>
<path d="M108.1 81.5H104.3V85.3H108.1V81.5Z" fill="black"/>
<path d="M108.1 85.2998H104.3V89.0998H108.1V85.2998Z" fill="black"/>
<path d="M108.1 92.8999H104.3V96.6999H108.1V92.8999Z" fill="black"/>
<path d="M108.1 96.6997H104.3V100.5H108.1V96.6997Z" fill="black"/>
<path d="M108.1 100.5H104.3V104.3H108.1V100.5Z" fill="black"/>
<path d="M108.1 104.3H104.3V108.1H108.1V104.3Z" fill="black"/>
<path d="M108.1 108.1H104.3V111.9H108.1V108.1Z" fill="black"/>
<path d="M108.1 111.9H104.3V115.7H108.1V111.9Z" fill="black"/>
<path d="M111.9 35.8999H108.1V39.6999H111.9V35.8999Z" fill="black"/>
<path d="M111.9 39.6997H108.1V43.4997H111.9V39.6997Z" fill="black"/>
<path d="M111.9 43.5H108.1V47.3H111.9V43.5Z" fill="black"/>
<path d="M111.9 47.2998H108.1V51.0998H111.9V47.2998Z" fill="black"/>
<path d="M111.9 51.1001H108.1V54.9001H111.9V51.1001Z" fill="black"/>
<path d="M111.9 66.2998H108.1V70.0998H111.9V66.2998Z" fill="black"/>
<path d="M111.9 73.8999H108.1V77.6999H111.9V73.8999Z" fill="black"/>
<path d="M111.9 81.5H108.1V85.3H111.9V81.5Z" fill="black"/>
<path d="M111.9 96.6997H108.1V100.5H111.9V96.6997Z" fill="black"/>
<path d="M111.9 100.5H108.1V104.3H111.9V100.5Z" fill="black"/>
<path d="M111.9 104.3H108.1V108.1H111.9V104.3Z" fill="black"/>
<path d="M111.9 111.9H108.1V115.7H111.9V111.9Z" fill="black"/>
<path d="M115.7 43.5H111.9V47.3H115.7V43.5Z" fill="black"/>
<path d="M115.7 47.2998H111.9V51.0998H115.7V47.2998Z" fill="black"/>
<path d="M115.7 51.1001H111.9V54.9001H115.7V51.1001Z" fill="black"/>
<path d="M115.7 62.5H111.9V66.3H115.7V62.5Z" fill="black"/>
<path d="M115.7 77.7002H111.9V81.5002H115.7V77.7002Z" fill="black"/>
<path d="M115.7 81.5H111.9V85.3H115.7V81.5Z" fill="black"/>
<path d="M115.7 85.2998H111.9V89.0998H115.7V85.2998Z" fill="black"/>
<path d="M115.7 92.8999H111.9V96.6999H115.7V92.8999Z" fill="black"/>
<path d="M115.7 96.6997H111.9V100.5H115.7V96.6997Z" fill="black"/>
<path d="M9.3 5.5H5.5V9.3H9.3V5.5Z" fill="black"/>
<path d="M9.3 9.2998H5.5V13.0998H9.3V9.2998Z" fill="black"/>
<path d="M9.3 13.0996H5.5V16.8996H9.3V13.0996Z" fill="black"/>
<path d="M9.3 16.8999H5.5V20.6999H9.3V16.8999Z" fill="black"/>
<path d="M9.3 20.7002H5.5V24.5002H9.3V20.7002Z" fill="black"/>
<path d="M9.3 24.5H5.5V28.3H9.3V24.5Z" fill="black"/>
<path d="M9.3 28.2998H5.5V32.0998H9.3V28.2998Z" fill="black"/>
<path d="M13.0998 5.5H9.2998V9.3H13.0998V5.5Z" fill="black"/>
<path d="M13.0998 28.2998H9.2998V32.0998H13.0998V28.2998Z" fill="black"/>
<path d="M16.8996 5.5H13.0996V9.3H16.8996V5.5Z" fill="black"/>
<path d="M16.8996 28.2998H13.0996V32.0998H16.8996V28.2998Z" fill="black"/>
<path d="M20.6999 5.5H16.8999V9.3H20.6999V5.5Z" fill="black"/>
<path d="M20.6999 28.2998H16.8999V32.0998H20.6999V28.2998Z" fill="black"/>
<path d="M24.5002 5.5H20.7002V9.3H24.5002V5.5Z" fill="black"/>
<path d="M24.5002 28.2998H20.7002V32.0998H24.5002V28.2998Z" fill="black"/>
<path d="M28.3 5.5H24.5V9.3H28.3V5.5Z" fill="black"/>
<path d="M28.3 28.2998H24.5V32.0998H28.3V28.2998Z" fill="black"/>
<path d="M32.0998 5.5H28.2998V9.3H32.0998V5.5Z" fill="black"/>
<path d="M32.0998 9.2998H28.2998V13.0998H32.0998V9.2998Z" fill="black"/>
<path d="M32.0998 13.0996H28.2998V16.8996H32.0998V13.0996Z" fill="black"/>
<path d="M32.0998 16.8999H28.2998V20.6999H32.0998V16.8999Z" fill="black"/>
<path d="M32.0998 20.7002H28.2998V24.5002H32.0998V20.7002Z" fill="black"/>
<path d="M32.0998 24.5H28.2998V28.3H32.0998V24.5Z" fill="black"/>
<path d="M32.0998 28.2998H28.2998V32.0998H32.0998V28.2998Z" fill="black"/>
<path d="M16.9001 13.1001H13.1001V16.9001H16.9001V13.1001Z" fill="black"/>
<path d="M16.9001 16.9004H13.1001V20.7004H16.9001V16.9004Z" fill="black"/>
<path d="M16.9001 20.7002H13.1001V24.5002H16.9001V20.7002Z" fill="black"/>
<path d="M20.7004 13.1001H16.9004V16.9001H20.7004V13.1001Z" fill="black"/>
<path d="M20.7004 16.9004H16.9004V20.7004H20.7004V16.9004Z" fill="black"/>
<path d="M20.7004 20.7002H16.9004V24.5002H20.7004V20.7002Z" fill="black"/>
<path d="M24.5002 13.1001H20.7002V16.9001H24.5002V13.1001Z" fill="black"/>
<path d="M24.5002 16.9004H20.7002V20.7004H24.5002V16.9004Z" fill="black"/>
<path d="M24.5002 20.7002H20.7002V24.5002H24.5002V20.7002Z" fill="black"/>
<path d="M92.9001 5.5H89.1001V9.3H92.9001V5.5Z" fill="black"/>
<path d="M92.9001 9.2998H89.1001V13.0998H92.9001V9.2998Z" fill="black"/>
<path d="M92.9001 13.0996H89.1001V16.8996H92.9001V13.0996Z" fill="black"/>
<path d="M92.9001 16.8999H89.1001V20.6999H92.9001V16.8999Z" fill="black"/>
<path d="M92.9001 20.7002H89.1001V24.5002H92.9001V20.7002Z" fill="black"/>
<path d="M92.9001 24.5H89.1001V28.3H92.9001V24.5Z" fill="black"/>
<path d="M92.9001 28.2998H89.1001V32.0998H92.9001V28.2998Z" fill="black"/>
<path d="M96.6999 5.5H92.8999V9.3H96.6999V5.5Z" fill="black"/>
<path d="M96.6999 28.2998H92.8999V32.0998H96.6999V28.2998Z" fill="black"/>
<path d="M100.5 5.5H96.6997V9.3H100.5V5.5Z" fill="black"/>
<path d="M100.5 28.2998H96.6997V32.0998H100.5V28.2998Z" fill="black"/>
<path d="M104.3 5.5H100.5V9.3H104.3V5.5Z" fill="black"/>
<path d="M104.3 28.2998H100.5V32.0998H104.3V28.2998Z" fill="black"/>
<path d="M108.1 5.5H104.3V9.3H108.1V5.5Z" fill="black"/>
<path d="M108.1 28.2998H104.3V32.0998H108.1V28.2998Z" fill="black"/>
<path d="M111.9 5.5H108.1V9.3H111.9V5.5Z" fill="black"/>
<path d="M111.9 28.2998H108.1V32.0998H111.9V28.2998Z" fill="black"/>
<path d="M115.7 5.5H111.9V9.3H115.7V5.5Z" fill="black"/>
<path d="M115.7 9.2998H111.9V13.0998H115.7V9.2998Z" fill="black"/>
<path d="M115.7 13.0996H111.9V16.8996H115.7V13.0996Z" fill="black"/>
<path d="M115.7 16.8999H111.9V20.6999H115.7V16.8999Z" fill="black"/>
<path d="M115.7 20.7002H111.9V24.5002H115.7V20.7002Z" fill="black"/>
<path d="M115.7 24.5H111.9V28.3H115.7V24.5Z" fill="black"/>
<path d="M115.7 28.2998H111.9V32.0998H115.7V28.2998Z" fill="black"/>
<path d="M100.5 13.1001H96.6997V16.9001H100.5V13.1001Z" fill="black"/>
<path d="M100.5 16.9004H96.6997V20.7004H100.5V16.9004Z" fill="black"/>
<path d="M100.5 20.7002H96.6997V24.5002H100.5V20.7002Z" fill="black"/>
<path d="M104.3 13.1001H100.5V16.9001H104.3V13.1001Z" fill="black"/>
<path d="M104.3 16.9004H100.5V20.7004H104.3V16.9004Z" fill="black"/>
<path d="M104.3 20.7002H100.5V24.5002H104.3V20.7002Z" fill="black"/>
<path d="M108.1 13.1001H104.3V16.9001H108.1V13.1001Z" fill="black"/>
<path d="M108.1 16.9004H104.3V20.7004H108.1V16.9004Z" fill="black"/>
<path d="M108.1 20.7002H104.3V24.5002H108.1V20.7002Z" fill="black"/>
<path d="M9.3 89.1001H5.5V92.9001H9.3V89.1001Z" fill="black"/>
<path d="M9.3 92.8999H5.5V96.6999H9.3V92.8999Z" fill="black"/>
<path d="M9.3 96.6997H5.5V100.5H9.3V96.6997Z" fill="black"/>
<path d="M9.3 100.5H5.5V104.3H9.3V100.5Z" fill="black"/>
<path d="M9.3 104.3H5.5V108.1H9.3V104.3Z" fill="black"/>
<path d="M9.3 108.1H5.5V111.9H9.3V108.1Z" fill="black"/>
<path d="M9.3 111.9H5.5V115.7H9.3V111.9Z" fill="black"/>
<path d="M13.0998 89.1001H9.2998V92.9001H13.0998V89.1001Z" fill="black"/>
<path d="M13.0998 111.9H9.2998V115.7H13.0998V111.9Z" fill="black"/>
<path d="M16.8996 89.1001H13.0996V92.9001H16.8996V89.1001Z" fill="black"/>
<path d="M16.8996 111.9H13.0996V115.7H16.8996V111.9Z" fill="black"/>
<path d="M20.6999 89.1001H16.8999V92.9001H20.6999V89.1001Z" fill="black"/>
<path d="M20.6999 111.9H16.8999V115.7H20.6999V111.9Z" fill="black"/>
<path d="M24.5002 89.1001H20.7002V92.9001H24.5002V89.1001Z" fill="black"/>
<path d="M24.5002 111.9H20.7002V115.7H24.5002V111.9Z" fill="black"/>
<path d="M28.3 89.1001H24.5V92.9001H28.3V89.1001Z" fill="black"/>
<path d="M28.3 111.9H24.5V115.7H28.3V111.9Z" fill="black"/>
<path d="M32.0998 89.1001H28.2998V92.9001H32.0998V89.1001Z" fill="black"/>
<path d="M32.0998 92.8999H28.2998V96.6999H32.0998V92.8999Z" fill="black"/>
<path d="M32.0998 96.6997H28.2998V100.5H32.0998V96.6997Z" fill="black"/>
<path d="M32.0998 100.5H28.2998V104.3H32.0998V100.5Z" fill="black"/>
<path d="M32.0998 104.3H28.2998V108.1H32.0998V104.3Z" fill="black"/>
<path d="M32.0998 108.1H28.2998V111.9H32.0998V108.1Z" fill="black"/>
<path d="M32.0998 111.9H28.2998V115.7H32.0998V111.9Z" fill="black"/>
<path d="M16.9001 96.6997H13.1001V100.5H16.9001V96.6997Z" fill="black"/>
<path d="M16.9001 100.5H13.1001V104.3H16.9001V100.5Z" fill="black"/>
<path d="M16.9001 104.3H13.1001V108.1H16.9001V104.3Z" fill="black"/>
<path d="M20.7004 96.6997H16.9004V100.5H20.7004V96.6997Z" fill="black"/>
<path d="M20.7004 100.5H16.9004V104.3H20.7004V100.5Z" fill="black"/>
<path d="M20.7004 104.3H16.9004V108.1H20.7004V104.3Z" fill="black"/>
<path d="M24.5002 96.6997H20.7002V100.5H24.5002V96.6997Z" fill="black"/>
<path d="M24.5002 100.5H20.7002V104.3H24.5002V100.5Z" fill="black"/>
<path d="M24.5002 104.3H20.7002V108.1H24.5002V104.3Z" fill="black"/>
<g filter="url(#filter0_b_1620_75603)">
<path fill-rule="evenodd" clip-rule="evenodd" d="M60.7997 71.323C68.3108 71.323 74.3997 68.4447 74.3997 60.8614C74.3997 53.2781 68.3108 50.3999 60.7997 50.3999C53.2886 50.3999 47.1997 53.2781 47.1997 60.8614C47.1997 68.4447 53.2886 71.323 60.7997 71.323ZM66.2051 56.8455C66.6155 56.8455 66.7961 56.6649 66.7961 56.2545V55.3846C66.7961 54.9742 66.6155 54.7937 66.2051 54.7937H64.695C64.2846 54.7937 64.1041 54.9742 64.1041 55.3846V56.2545C64.1041 56.6649 64.2846 56.8455 64.695 56.8455H66.2051ZM64.2847 68.3028H64.9741C66.1723 68.3028 66.7632 67.7119 66.7632 66.5136V57.7318C66.7632 57.3215 66.5827 57.1409 66.1723 57.1409H64.7278C64.3175 57.1409 64.1369 57.3215 64.1369 57.7318V66.2181C64.1369 66.3495 64.1369 66.4479 64.0713 66.5136C64.0373 66.5476 63.9864 66.5562 63.9267 66.5664C63.8424 66.5807 63.7406 66.598 63.6445 66.6942C63.5296 66.8091 63.5296 67.006 63.5296 67.1702V67.7119C63.5296 68.1222 63.7594 68.3028 64.2847 68.3028ZM57.6177 65.7749C57.7326 66.251 57.5356 66.4972 57.0432 66.4972H55.5166C55.1719 66.4972 54.9914 66.3659 54.9421 66.0048L54.2199 62.1145V65.9063C54.2199 66.3166 54.0393 66.4972 53.629 66.4972H52.1845C51.7741 66.4972 51.5936 66.3166 51.5936 65.9063V55.4338C51.5936 55.0235 51.7741 54.8429 52.1845 54.8429H53.629C54.0393 54.8429 54.2199 55.0235 54.2199 55.4338V61.5236L55.0734 57.6005C55.1391 57.2722 55.3032 57.1409 55.6479 57.1409H57.076C57.5848 57.1409 57.7654 57.3871 57.6505 57.8796L56.6656 61.7042L57.6177 65.7749ZM62.986 63.0994C63.3799 63.0994 63.5605 63.2799 63.5605 63.6739V64.3305C63.5605 65.8406 62.8054 66.5957 61.2953 66.5957H60.1463C58.6361 66.5957 57.8811 65.8406 57.8811 64.3305V59.3076C57.8811 57.7975 58.6361 57.0424 60.1463 57.0424H61.2953C62.8054 57.0424 63.5605 57.7975 63.5605 59.3076V62.2622C63.5605 62.6726 63.3799 62.8532 62.9696 62.8532H60.4746V64.2648C60.4746 64.3961 60.5238 64.4454 60.6551 64.4454H60.8521C60.9834 64.4454 61.0327 64.3961 61.0327 64.2648V63.6411C61.0327 63.2635 61.1968 63.0994 61.5743 63.0994H62.986ZM60.9998 59.3733C60.9998 59.242 60.9506 59.1927 60.7372 59.1927C60.5238 59.1927 60.4746 59.242 60.4746 59.3733V60.8998H60.9998V59.3733ZM70.0059 56.2545C70.0059 56.6649 69.8253 56.8455 69.4149 56.8455H67.9048C67.4945 56.8455 67.3139 56.6649 67.3139 56.2545V55.3846C67.3139 54.9742 67.4945 54.7937 67.9048 54.7937H69.4149C69.8253 54.7937 70.0059 54.9742 70.0059 55.3846V56.2545ZM69.973 65.9063C69.973 66.3166 69.7925 66.4972 69.3821 66.4972H67.9376C67.5273 66.4972 67.3467 66.3166 67.3467 65.9063V57.7318C67.3467 57.3215 67.5273 57.1409 67.9376 57.1409H69.3821C69.7925 57.1409 69.973 57.3215 69.973 57.7318V65.9063Z" fill="black"/>
</g>
<defs>
<filter id="filter0_b_1620_75603" x="45.3272" y="48.5274" width="30.9453" height="24.6679" filterUnits="userSpaceOnUse" color-interpolation-filters="sRGB">
<feFlood flood-opacity="0" result="BackgroundImageFix"/>
<feGaussianBlur in="BackgroundImageFix" stdDeviation="0.936264"/>
<feComposite in2="SourceAlpha" operator="in" result="effect1_backgroundBlur_1620_75603"/>
<feBlend mode="normal" in="SourceGraphic" in2="effect1_backgroundBlur_1620_75603" result="shape"/>
</filter>
</defs>
</svg>
