<svg width="112" height="112" viewBox="0 0 112 112" fill="none" xmlns="http://www.w3.org/2000/svg">
<g clip-path="url(#clip0_1633_69623)">
<rect width="114" height="114" transform="translate(-1 -1)" fill="white"/>
<rect width="114" height="114" transform="translate(-1 -1)" fill="white"/>
<path d="M4.6999 42.6997H0.899902V46.4997H4.6999V42.6997Z" fill="black"/>
<path d="M4.6999 50.2998H0.899902V54.0998H4.6999V50.2998Z" fill="black"/>
<path d="M4.6999 61.6997H0.899902V65.4997H4.6999V61.6997Z" fill="black"/>
<path d="M4.6999 73.1001H0.899902V76.9001H4.6999V73.1001Z" fill="black"/>
<path d="M4.6999 76.8999H0.899902V80.6999H4.6999V76.8999Z" fill="black"/>
<path d="M8.49971 31.2998H4.69971V35.0998H8.49971V31.2998Z" fill="black"/>
<path d="M8.49971 35.0996H4.69971V38.8996H8.49971V35.0996Z" fill="black"/>
<path d="M8.49971 38.8999H4.69971V42.6999H8.49971V38.8999Z" fill="black"/>
<path d="M8.49971 42.6997H4.69971V46.4997H8.49971V42.6997Z" fill="black"/>
<path d="M8.49971 46.5H4.69971V50.3H8.49971V46.5Z" fill="black"/>
<path d="M8.49971 50.2998H4.69971V54.0998H8.49971V50.2998Z" fill="black"/>
<path d="M8.49971 54.0996H4.69971V57.8996H8.49971V54.0996Z" fill="black"/>
<path d="M8.49971 57.8999H4.69971V61.6999H8.49971V57.8999Z" fill="black"/>
<path d="M8.49971 61.6997H4.69971V65.4997H8.49971V61.6997Z" fill="black"/>
<path d="M8.49971 73.1001H4.69971V76.9001H8.49971V73.1001Z" fill="black"/>
<path d="M12.2995 38.8999H8.49951V42.6999H12.2995V38.8999Z" fill="black"/>
<path d="M12.2995 42.6997H8.49951V46.4997H12.2995V42.6997Z" fill="black"/>
<path d="M12.2995 46.5H8.49951V50.3H12.2995V46.5Z" fill="black"/>
<path d="M12.2995 50.2998H8.49951V54.0998H12.2995V50.2998Z" fill="black"/>
<path d="M12.2995 54.0996H8.49951V57.8996H12.2995V54.0996Z" fill="black"/>
<path d="M12.2995 57.8999H8.49951V61.6999H12.2995V57.8999Z" fill="black"/>
<path d="M12.2995 61.6997H8.49951V65.4997H12.2995V61.6997Z" fill="black"/>
<path d="M12.2995 73.1001H8.49951V76.9001H12.2995V73.1001Z" fill="black"/>
<path d="M16.0998 31.2998H12.2998V35.0998H16.0998V31.2998Z" fill="black"/>
<path d="M16.0998 35.0996H12.2998V38.8996H16.0998V35.0996Z" fill="black"/>
<path d="M16.0998 38.8999H12.2998V42.6999H16.0998V38.8999Z" fill="black"/>
<path d="M16.0998 42.6997H12.2998V46.4997H16.0998V42.6997Z" fill="black"/>
<path d="M16.0998 65.4995H12.2998V69.2995H16.0998V65.4995Z" fill="black"/>
<path d="M16.0998 76.8999H12.2998V80.6999H16.0998V76.8999Z" fill="black"/>
<path d="M19.9001 31.2998H16.1001V35.0998H19.9001V31.2998Z" fill="black"/>
<path d="M19.9001 38.8999H16.1001V42.6999H19.9001V38.8999Z" fill="black"/>
<path d="M19.9001 42.6997H16.1001V46.4997H19.9001V42.6997Z" fill="black"/>
<path d="M19.9001 46.5H16.1001V50.3H19.9001V46.5Z" fill="black"/>
<path d="M19.9001 54.0996H16.1001V57.8996H19.9001V54.0996Z" fill="black"/>
<path d="M19.9001 57.8999H16.1001V61.6999H19.9001V57.8999Z" fill="black"/>
<path d="M19.9001 61.6997H16.1001V65.4997H19.9001V61.6997Z" fill="black"/>
<path d="M19.9001 73.1001H16.1001V76.9001H19.9001V73.1001Z" fill="black"/>
<path d="M19.9001 76.8999H16.1001V80.6999H19.9001V76.8999Z" fill="black"/>
<path d="M23.6999 35.0996H19.8999V38.8996H23.6999V35.0996Z" fill="black"/>
<path d="M23.6999 61.6997H19.8999V65.4997H23.6999V61.6997Z" fill="black"/>
<path d="M23.6999 76.8999H19.8999V80.6999H23.6999V76.8999Z" fill="black"/>
<path d="M27.4997 31.2998H23.6997V35.0998H27.4997V31.2998Z" fill="black"/>
<path d="M27.4997 38.8999H23.6997V42.6999H27.4997V38.8999Z" fill="black"/>
<path d="M27.4997 46.5H23.6997V50.3H27.4997V46.5Z" fill="black"/>
<path d="M27.4997 54.0996H23.6997V57.8996H27.4997V54.0996Z" fill="black"/>
<path d="M27.4997 61.6997H23.6997V65.4997H27.4997V61.6997Z" fill="black"/>
<path d="M27.4997 69.2998H23.6997V73.0998H27.4997V69.2998Z" fill="black"/>
<path d="M27.4997 76.8999H23.6997V80.6999H27.4997V76.8999Z" fill="black"/>
<path d="M31.3 31.2998H27.5V35.0998H31.3V31.2998Z" fill="black"/>
<path d="M31.3 46.5H27.5V50.3H31.3V46.5Z" fill="black"/>
<path d="M31.3 54.0996H27.5V57.8996H31.3V54.0996Z" fill="black"/>
<path d="M31.3 57.8999H27.5V61.6999H31.3V57.8999Z" fill="black"/>
<path d="M31.3 61.6997H27.5V65.4997H31.3V61.6997Z" fill="black"/>
<path d="M31.3 65.4995H27.5V69.2995H31.3V65.4995Z" fill="black"/>
<path d="M31.3 69.2998H27.5V73.0998H31.3V69.2998Z" fill="black"/>
<path d="M31.3 73.1001H27.5V76.9001H31.3V73.1001Z" fill="black"/>
<path d="M35.0998 4.69971H31.2998V8.49971H35.0998V4.69971Z" fill="black"/>
<path d="M35.0998 12.2998H31.2998V16.0998H35.0998V12.2998Z" fill="black"/>
<path d="M35.0998 16.1001H31.2998V19.9001H35.0998V16.1001Z" fill="black"/>
<path d="M35.0998 19.8999H31.2998V23.6999H35.0998V19.8999Z" fill="black"/>
<path d="M35.0998 23.6997H31.2998V27.4997H35.0998V23.6997Z" fill="black"/>
<path d="M35.0998 31.2998H31.2998V35.0998H35.0998V31.2998Z" fill="black"/>
<path d="M35.0998 38.8999H31.2998V42.6999H35.0998V38.8999Z" fill="black"/>
<path d="M35.0998 57.8999H31.2998V61.6999H35.0998V57.8999Z" fill="black"/>
<path d="M35.0998 61.6997H31.2998V65.4997H35.0998V61.6997Z" fill="black"/>
<path d="M35.0998 73.1001H31.2998V76.9001H35.0998V73.1001Z" fill="black"/>
<path d="M35.0998 80.6997H31.2998V84.4997H35.0998V80.6997Z" fill="black"/>
<path d="M35.0998 84.5H31.2998V88.3H35.0998V84.5Z" fill="black"/>
<path d="M35.0998 92.0996H31.2998V95.8996H35.0998V92.0996Z" fill="black"/>
<path d="M35.0998 95.8999H31.2998V99.6999H35.0998V95.8999Z" fill="black"/>
<path d="M35.0998 103.5H31.2998V107.3H35.0998V103.5Z" fill="black"/>
<path d="M38.8996 19.8999H35.0996V23.6999H38.8996V19.8999Z" fill="black"/>
<path d="M38.8996 31.2998H35.0996V35.0998H38.8996V31.2998Z" fill="black"/>
<path d="M38.8996 38.8999H35.0996V42.6999H38.8996V38.8999Z" fill="black"/>
<path d="M38.8996 42.6997H35.0996V46.4997H38.8996V42.6997Z" fill="black"/>
<path d="M38.8996 54.0996H35.0996V57.8996H38.8996V54.0996Z" fill="black"/>
<path d="M38.8996 69.2998H35.0996V73.0998H38.8996V69.2998Z" fill="black"/>
<path d="M38.8996 80.6997H35.0996V84.4997H38.8996V80.6997Z" fill="black"/>
<path d="M38.8996 84.5H35.0996V88.3H38.8996V84.5Z" fill="black"/>
<path d="M38.8996 88.2998H35.0996V92.0998H38.8996V88.2998Z" fill="black"/>
<path d="M38.8996 92.0996H35.0996V95.8996H38.8996V92.0996Z" fill="black"/>
<path d="M38.8996 95.8999H35.0996V99.6999H38.8996V95.8999Z" fill="black"/>
<path d="M38.8996 103.5H35.0996V107.3H38.8996V103.5Z" fill="black"/>
<path d="M42.6999 0.899902H38.8999V4.6999H42.6999V0.899902Z" fill="black"/>
<path d="M42.6999 4.69971H38.8999V8.49971H42.6999V4.69971Z" fill="black"/>
<path d="M42.6999 16.1001H38.8999V19.9001H42.6999V16.1001Z" fill="black"/>
<path d="M42.6999 23.6997H38.8999V27.4997H42.6999V23.6997Z" fill="black"/>
<path d="M42.6999 27.5H38.8999V31.3H42.6999V27.5Z" fill="black"/>
<path d="M42.6999 73.1001H38.8999V76.9001H42.6999V73.1001Z" fill="black"/>
<path d="M42.6999 76.8999H38.8999V80.6999H42.6999V76.8999Z" fill="black"/>
<path d="M42.6999 80.6997H38.8999V84.4997H42.6999V80.6997Z" fill="black"/>
<path d="M42.6999 84.5H38.8999V88.3H42.6999V84.5Z" fill="black"/>
<path d="M42.6999 88.2998H38.8999V92.0998H42.6999V88.2998Z" fill="black"/>
<path d="M42.6999 95.8999H38.8999V99.6999H42.6999V95.8999Z" fill="black"/>
<path d="M46.4997 12.2998H42.6997V16.0998H46.4997V12.2998Z" fill="black"/>
<path d="M46.4997 16.1001H42.6997V19.9001H46.4997V16.1001Z" fill="black"/>
<path d="M46.4997 19.8999H42.6997V23.6999H46.4997V19.8999Z" fill="black"/>
<path d="M46.4997 27.5H42.6997V31.3H46.4997V27.5Z" fill="black"/>
<path d="M46.4997 73.1001H42.6997V76.9001H46.4997V73.1001Z" fill="black"/>
<path d="M46.4997 76.8999H42.6997V80.6999H46.4997V76.8999Z" fill="black"/>
<path d="M46.4997 88.2998H42.6997V92.0998H46.4997V88.2998Z" fill="black"/>
<path d="M46.4997 95.8999H42.6997V99.6999H46.4997V95.8999Z" fill="black"/>
<path d="M46.4997 107.3H42.6997V111.1H46.4997V107.3Z" fill="black"/>
<path d="M50.3 0.899902H46.5V4.6999H50.3V0.899902Z" fill="black"/>
<path d="M50.3 4.69971H46.5V8.49971H50.3V4.69971Z" fill="black"/>
<path d="M50.3 8.49951H46.5V12.2995H50.3V8.49951Z" fill="black"/>
<path d="M50.3 16.1001H46.5V19.9001H50.3V16.1001Z" fill="black"/>
<path d="M50.3 23.6997H46.5V27.4997H50.3V23.6997Z" fill="black"/>
<path d="M50.3 31.2998H46.5V35.0998H50.3V31.2998Z" fill="black"/>
<path d="M50.3 35.0996H46.5V38.8996H50.3V35.0996Z" fill="black"/>
<path d="M50.3 76.8999H46.5V80.6999H50.3V76.8999Z" fill="black"/>
<path d="M50.3 80.6997H46.5V84.4997H50.3V80.6997Z" fill="black"/>
<path d="M50.3 84.5H46.5V88.3H50.3V84.5Z" fill="black"/>
<path d="M50.3 99.6997H46.5V103.5H50.3V99.6997Z" fill="black"/>
<path d="M50.3 103.5H46.5V107.3H50.3V103.5Z" fill="black"/>
<path d="M54.0998 8.49951H50.2998V12.2995H54.0998V8.49951Z" fill="black"/>
<path d="M54.0998 16.1001H50.2998V19.9001H54.0998V16.1001Z" fill="black"/>
<path d="M54.0998 19.8999H50.2998V23.6999H54.0998V19.8999Z" fill="black"/>
<path d="M54.0998 27.5H50.2998V31.3H54.0998V27.5Z" fill="black"/>
<path d="M54.0998 35.0996H50.2998V38.8996H54.0998V35.0996Z" fill="black"/>
<path d="M54.0998 84.5H50.2998V88.3H54.0998V84.5Z" fill="black"/>
<path d="M54.0998 92.0996H50.2998V95.8996H54.0998V92.0996Z" fill="black"/>
<path d="M54.0998 99.6997H50.2998V103.5H54.0998V99.6997Z" fill="black"/>
<path d="M54.0998 107.3H50.2998V111.1H54.0998V107.3Z" fill="black"/>
<path d="M57.8996 0.899902H54.0996V4.6999H57.8996V0.899902Z" fill="black"/>
<path d="M57.8996 12.2998H54.0996V16.0998H57.8996V12.2998Z" fill="black"/>
<path d="M57.8996 19.8999H54.0996V23.6999H57.8996V19.8999Z" fill="black"/>
<path d="M57.8996 23.6997H54.0996V27.4997H57.8996V23.6997Z" fill="black"/>
<path d="M57.8996 35.0996H54.0996V38.8996H57.8996V35.0996Z" fill="black"/>
<path d="M57.8996 73.1001H54.0996V76.9001H57.8996V73.1001Z" fill="black"/>
<path d="M57.8996 76.8999H54.0996V80.6999H57.8996V76.8999Z" fill="black"/>
<path d="M57.8996 80.6997H54.0996V84.4997H57.8996V80.6997Z" fill="black"/>
<path d="M57.8996 84.5H54.0996V88.3H57.8996V84.5Z" fill="black"/>
<path d="M57.8996 88.2998H54.0996V92.0998H57.8996V88.2998Z" fill="black"/>
<path d="M57.8996 95.8999H54.0996V99.6999H57.8996V95.8999Z" fill="black"/>
<path d="M57.8996 103.5H54.0996V107.3H57.8996V103.5Z" fill="black"/>
<path d="M57.8996 107.3H54.0996V111.1H57.8996V107.3Z" fill="black"/>
<path d="M61.6999 31.2998H57.8999V35.0998H61.6999V31.2998Z" fill="black"/>
<path d="M61.6999 92.0996H57.8999V95.8996H61.6999V92.0996Z" fill="black"/>
<path d="M61.6999 95.8999H57.8999V99.6999H61.6999V95.8999Z" fill="black"/>
<path d="M61.6999 99.6997H57.8999V103.5H61.6999V99.6997Z" fill="black"/>
<path d="M61.6999 103.5H57.8999V107.3H61.6999V103.5Z" fill="black"/>
<path d="M61.6999 107.3H57.8999V111.1H61.6999V107.3Z" fill="black"/>
<path d="M65.4997 0.899902H61.6997V4.6999H65.4997V0.899902Z" fill="black"/>
<path d="M65.4997 4.69971H61.6997V8.49971H65.4997V4.69971Z" fill="black"/>
<path d="M65.4997 8.49951H61.6997V12.2995H65.4997V8.49951Z" fill="black"/>
<path d="M65.4997 12.2998H61.6997V16.0998H65.4997V12.2998Z" fill="black"/>
<path d="M65.4997 19.8999H61.6997V23.6999H65.4997V19.8999Z" fill="black"/>
<path d="M65.4997 23.6997H61.6997V27.4997H65.4997V23.6997Z" fill="black"/>
<path d="M65.4997 27.5H61.6997V31.3H65.4997V27.5Z" fill="black"/>
<path d="M65.4997 31.2998H61.6997V35.0998H65.4997V31.2998Z" fill="black"/>
<path d="M65.4997 73.1001H61.6997V76.9001H65.4997V73.1001Z" fill="black"/>
<path d="M65.4997 76.8999H61.6997V80.6999H65.4997V76.8999Z" fill="black"/>
<path d="M65.4997 88.2998H61.6997V92.0998H65.4997V88.2998Z" fill="black"/>
<path d="M65.4997 95.8999H61.6997V99.6999H65.4997V95.8999Z" fill="black"/>
<path d="M65.4997 107.3H61.6997V111.1H65.4997V107.3Z" fill="black"/>
<path d="M69.2995 0.899902H65.4995V4.6999H69.2995V0.899902Z" fill="black"/>
<path d="M69.2995 8.49951H65.4995V12.2995H69.2995V8.49951Z" fill="black"/>
<path d="M69.2995 27.5H65.4995V31.3H69.2995V27.5Z" fill="black"/>
<path d="M69.2995 35.0996H65.4995V38.8996H69.2995V35.0996Z" fill="black"/>
<path d="M69.2995 84.5H65.4995V88.3H69.2995V84.5Z" fill="black"/>
<path d="M69.2995 92.0996H65.4995V95.8996H69.2995V92.0996Z" fill="black"/>
<path d="M69.2995 95.8999H65.4995V99.6999H69.2995V95.8999Z" fill="black"/>
<path d="M73.0998 0.899902H69.2998V4.6999H73.0998V0.899902Z" fill="black"/>
<path d="M73.0998 4.69971H69.2998V8.49971H73.0998V4.69971Z" fill="black"/>
<path d="M73.0998 12.2998H69.2998V16.0998H73.0998V12.2998Z" fill="black"/>
<path d="M73.0998 16.1001H69.2998V19.9001H73.0998V16.1001Z" fill="black"/>
<path d="M73.0998 23.6997H69.2998V27.4997H73.0998V23.6997Z" fill="black"/>
<path d="M73.0998 27.5H69.2998V31.3H73.0998V27.5Z" fill="black"/>
<path d="M73.0998 31.2998H69.2998V35.0998H73.0998V31.2998Z" fill="black"/>
<path d="M73.0998 35.0996H69.2998V38.8996H73.0998V35.0996Z" fill="black"/>
<path d="M73.0998 73.1001H69.2998V76.9001H73.0998V73.1001Z" fill="black"/>
<path d="M73.0998 95.8999H69.2998V99.6999H73.0998V95.8999Z" fill="black"/>
<path d="M73.0998 107.3H69.2998V111.1H73.0998V107.3Z" fill="black"/>
<path d="M76.9001 0.899902H73.1001V4.6999H76.9001V0.899902Z" fill="black"/>
<path d="M76.9001 4.69971H73.1001V8.49971H76.9001V4.69971Z" fill="black"/>
<path d="M76.9001 12.2998H73.1001V16.0998H76.9001V12.2998Z" fill="black"/>
<path d="M76.9001 16.1001H73.1001V19.9001H76.9001V16.1001Z" fill="black"/>
<path d="M76.9001 50.2998H73.1001V54.0998H76.9001V50.2998Z" fill="black"/>
<path d="M76.9001 57.8999H73.1001V61.6999H76.9001V57.8999Z" fill="black"/>
<path d="M76.9001 61.6997H73.1001V65.4997H76.9001V61.6997Z" fill="black"/>
<path d="M76.9001 69.2998H73.1001V73.0998H76.9001V69.2998Z" fill="black"/>
<path d="M76.9001 80.6997H73.1001V84.4997H76.9001V80.6997Z" fill="black"/>
<path d="M76.9001 84.5H73.1001V88.3H76.9001V84.5Z" fill="black"/>
<path d="M76.9001 88.2998H73.1001V92.0998H76.9001V88.2998Z" fill="black"/>
<path d="M76.9001 99.6997H73.1001V103.5H76.9001V99.6997Z" fill="black"/>
<path d="M76.9001 103.5H73.1001V107.3H76.9001V103.5Z" fill="black"/>
<path d="M80.6999 0.899902H76.8999V4.6999H80.6999V0.899902Z" fill="black"/>
<path d="M80.6999 4.69971H76.8999V8.49971H80.6999V4.69971Z" fill="black"/>
<path d="M80.6999 12.2998H76.8999V16.0998H80.6999V12.2998Z" fill="black"/>
<path d="M80.6999 19.8999H76.8999V23.6999H80.6999V19.8999Z" fill="black"/>
<path d="M80.6999 23.6997H76.8999V27.4997H80.6999V23.6997Z" fill="black"/>
<path d="M80.6999 27.5H76.8999V31.3H80.6999V27.5Z" fill="black"/>
<path d="M80.6999 31.2998H76.8999V35.0998H80.6999V31.2998Z" fill="black"/>
<path d="M80.6999 35.0996H76.8999V38.8996H80.6999V35.0996Z" fill="black"/>
<path d="M80.6999 46.5H76.8999V50.3H80.6999V46.5Z" fill="black"/>
<path d="M80.6999 50.2998H76.8999V54.0998H80.6999V50.2998Z" fill="black"/>
<path d="M80.6999 54.0996H76.8999V57.8996H80.6999V54.0996Z" fill="black"/>
<path d="M80.6999 61.6997H76.8999V65.4997H80.6999V61.6997Z" fill="black"/>
<path d="M80.6999 65.4995H76.8999V69.2995H80.6999V65.4995Z" fill="black"/>
<path d="M80.6999 69.2998H76.8999V73.0998H80.6999V69.2998Z" fill="black"/>
<path d="M80.6999 76.8999H76.8999V80.6999H80.6999V76.8999Z" fill="black"/>
<path d="M80.6999 80.6997H76.8999V84.4997H80.6999V80.6997Z" fill="black"/>
<path d="M80.6999 84.5H76.8999V88.3H80.6999V84.5Z" fill="black"/>
<path d="M80.6999 88.2998H76.8999V92.0998H80.6999V88.2998Z" fill="black"/>
<path d="M80.6999 92.0996H76.8999V95.8996H80.6999V92.0996Z" fill="black"/>
<path d="M80.6999 99.6997H76.8999V103.5H80.6999V99.6997Z" fill="black"/>
<path d="M80.6999 103.5H76.8999V107.3H80.6999V103.5Z" fill="black"/>
<path d="M84.4997 31.2998H80.6997V35.0998H84.4997V31.2998Z" fill="black"/>
<path d="M84.4997 35.0996H80.6997V38.8996H84.4997V35.0996Z" fill="black"/>
<path d="M84.4997 38.8999H80.6997V42.6999H84.4997V38.8999Z" fill="black"/>
<path d="M84.4997 57.8999H80.6997V61.6999H84.4997V57.8999Z" fill="black"/>
<path d="M84.4997 65.4995H80.6997V69.2995H84.4997V65.4995Z" fill="black"/>
<path d="M84.4997 69.2998H80.6997V73.0998H84.4997V69.2998Z" fill="black"/>
<path d="M84.4997 76.8999H80.6997V80.6999H84.4997V76.8999Z" fill="black"/>
<path d="M84.4997 92.0996H80.6997V95.8996H84.4997V92.0996Z" fill="black"/>
<path d="M84.4997 95.8999H80.6997V99.6999H84.4997V95.8999Z" fill="black"/>
<path d="M84.4997 99.6997H80.6997V103.5H84.4997V99.6997Z" fill="black"/>
<path d="M88.3 38.8999H84.5V42.6999H88.3V38.8999Z" fill="black"/>
<path d="M88.3 42.6997H84.5V46.4997H88.3V42.6997Z" fill="black"/>
<path d="M88.3 46.5H84.5V50.3H88.3V46.5Z" fill="black"/>
<path d="M88.3 50.2998H84.5V54.0998H88.3V50.2998Z" fill="black"/>
<path d="M88.3 54.0996H84.5V57.8996H88.3V54.0996Z" fill="black"/>
<path d="M88.3 57.8999H84.5V61.6999H88.3V57.8999Z" fill="black"/>
<path d="M88.3 61.6997H84.5V65.4997H88.3V61.6997Z" fill="black"/>
<path d="M88.3 73.1001H84.5V76.9001H88.3V73.1001Z" fill="black"/>
<path d="M88.3 76.8999H84.5V80.6999H88.3V76.8999Z" fill="black"/>
<path d="M88.3 84.5H84.5V88.3H88.3V84.5Z" fill="black"/>
<path d="M88.3 92.0996H84.5V95.8996H88.3V92.0996Z" fill="black"/>
<path d="M88.3 99.6997H84.5V103.5H88.3V99.6997Z" fill="black"/>
<path d="M92.0998 31.2998H88.2998V35.0998H92.0998V31.2998Z" fill="black"/>
<path d="M92.0998 35.0996H88.2998V38.8996H92.0998V35.0996Z" fill="black"/>
<path d="M92.0998 42.6997H88.2998V46.4997H92.0998V42.6997Z" fill="black"/>
<path d="M92.0998 54.0996H88.2998V57.8996H92.0998V54.0996Z" fill="black"/>
<path d="M92.0998 57.8999H88.2998V61.6999H92.0998V57.8999Z" fill="black"/>
<path d="M92.0998 61.6997H88.2998V65.4997H92.0998V61.6997Z" fill="black"/>
<path d="M92.0998 69.2998H88.2998V73.0998H92.0998V69.2998Z" fill="black"/>
<path d="M92.0998 73.1001H88.2998V76.9001H92.0998V73.1001Z" fill="black"/>
<path d="M92.0998 76.8999H88.2998V80.6999H92.0998V76.8999Z" fill="black"/>
<path d="M92.0998 92.0996H88.2998V95.8996H92.0998V92.0996Z" fill="black"/>
<path d="M92.0998 95.8999H88.2998V99.6999H92.0998V95.8999Z" fill="black"/>
<path d="M92.0998 103.5H88.2998V107.3H92.0998V103.5Z" fill="black"/>
<path d="M95.8996 31.2998H92.0996V35.0998H95.8996V31.2998Z" fill="black"/>
<path d="M95.8996 42.6997H92.0996V46.4997H95.8996V42.6997Z" fill="black"/>
<path d="M95.8996 46.5H92.0996V50.3H95.8996V46.5Z" fill="black"/>
<path d="M95.8996 57.8999H92.0996V61.6999H95.8996V57.8999Z" fill="black"/>
<path d="M95.8996 65.4995H92.0996V69.2995H95.8996V65.4995Z" fill="black"/>
<path d="M95.8996 73.1001H92.0996V76.9001H95.8996V73.1001Z" fill="black"/>
<path d="M95.8996 76.8999H92.0996V80.6999H95.8996V76.8999Z" fill="black"/>
<path d="M95.8996 80.6997H92.0996V84.4997H95.8996V80.6997Z" fill="black"/>
<path d="M95.8996 84.5H92.0996V88.3H95.8996V84.5Z" fill="black"/>
<path d="M95.8996 88.2998H92.0996V92.0998H95.8996V88.2998Z" fill="black"/>
<path d="M95.8996 92.0996H92.0996V95.8996H95.8996V92.0996Z" fill="black"/>
<path d="M99.6999 31.2998H95.8999V35.0998H99.6999V31.2998Z" fill="black"/>
<path d="M99.6999 42.6997H95.8999V46.4997H99.6999V42.6997Z" fill="black"/>
<path d="M99.6999 50.2998H95.8999V54.0998H99.6999V50.2998Z" fill="black"/>
<path d="M99.6999 65.4995H95.8999V69.2995H99.6999V65.4995Z" fill="black"/>
<path d="M99.6999 69.2998H95.8999V73.0998H99.6999V69.2998Z" fill="black"/>
<path d="M99.6999 88.2998H95.8999V92.0998H99.6999V88.2998Z" fill="black"/>
<path d="M99.6999 95.8999H95.8999V99.6999H99.6999V95.8999Z" fill="black"/>
<path d="M99.6999 103.5H95.8999V107.3H99.6999V103.5Z" fill="black"/>
<path d="M103.5 35.0996H99.6997V38.8996H103.5V35.0996Z" fill="black"/>
<path d="M103.5 38.8999H99.6997V42.6999H103.5V38.8999Z" fill="black"/>
<path d="M103.5 46.5H99.6997V50.3H103.5V46.5Z" fill="black"/>
<path d="M103.5 50.2998H99.6997V54.0998H103.5V50.2998Z" fill="black"/>
<path d="M103.5 57.8999H99.6997V61.6999H103.5V57.8999Z" fill="black"/>
<path d="M103.5 65.4995H99.6997V69.2995H103.5V65.4995Z" fill="black"/>
<path d="M103.5 76.8999H99.6997V80.6999H103.5V76.8999Z" fill="black"/>
<path d="M103.5 80.6997H99.6997V84.4997H103.5V80.6997Z" fill="black"/>
<path d="M103.5 88.2998H99.6997V92.0998H103.5V88.2998Z" fill="black"/>
<path d="M103.5 92.0996H99.6997V95.8996H103.5V92.0996Z" fill="black"/>
<path d="M103.5 95.8999H99.6997V99.6999H103.5V95.8999Z" fill="black"/>
<path d="M103.5 99.6997H99.6997V103.5H103.5V99.6997Z" fill="black"/>
<path d="M103.5 103.5H99.6997V107.3H103.5V103.5Z" fill="black"/>
<path d="M103.5 107.3H99.6997V111.1H103.5V107.3Z" fill="black"/>
<path d="M107.3 31.2998H103.5V35.0998H107.3V31.2998Z" fill="black"/>
<path d="M107.3 35.0996H103.5V38.8996H107.3V35.0996Z" fill="black"/>
<path d="M107.3 38.8999H103.5V42.6999H107.3V38.8999Z" fill="black"/>
<path d="M107.3 42.6997H103.5V46.4997H107.3V42.6997Z" fill="black"/>
<path d="M107.3 46.5H103.5V50.3H107.3V46.5Z" fill="black"/>
<path d="M107.3 61.6997H103.5V65.4997H107.3V61.6997Z" fill="black"/>
<path d="M107.3 69.2998H103.5V73.0998H107.3V69.2998Z" fill="black"/>
<path d="M107.3 76.8999H103.5V80.6999H107.3V76.8999Z" fill="black"/>
<path d="M107.3 92.0996H103.5V95.8996H107.3V92.0996Z" fill="black"/>
<path d="M107.3 95.8999H103.5V99.6999H107.3V95.8999Z" fill="black"/>
<path d="M107.3 99.6997H103.5V103.5H107.3V99.6997Z" fill="black"/>
<path d="M107.3 107.3H103.5V111.1H107.3V107.3Z" fill="black"/>
<path d="M111.1 38.8999H107.3V42.6999H111.1V38.8999Z" fill="black"/>
<path d="M111.1 42.6997H107.3V46.4997H111.1V42.6997Z" fill="black"/>
<path d="M111.1 46.5H107.3V50.3H111.1V46.5Z" fill="black"/>
<path d="M111.1 57.8999H107.3V61.6999H111.1V57.8999Z" fill="black"/>
<path d="M111.1 73.1001H107.3V76.9001H111.1V73.1001Z" fill="black"/>
<path d="M111.1 76.8999H107.3V80.6999H111.1V76.8999Z" fill="black"/>
<path d="M111.1 80.6997H107.3V84.4997H111.1V80.6997Z" fill="black"/>
<path d="M111.1 88.2998H107.3V92.0998H111.1V88.2998Z" fill="black"/>
<path d="M111.1 92.0996H107.3V95.8996H111.1V92.0996Z" fill="black"/>
<path d="M4.6999 0.899902H0.899902V4.6999H4.6999V0.899902Z" fill="black"/>
<path d="M4.6999 4.69971H0.899902V8.49971H4.6999V4.69971Z" fill="black"/>
<path d="M4.6999 8.49951H0.899902V12.2995H4.6999V8.49951Z" fill="black"/>
<path d="M4.6999 12.2998H0.899902V16.0998H4.6999V12.2998Z" fill="black"/>
<path d="M4.6999 16.1001H0.899902V19.9001H4.6999V16.1001Z" fill="black"/>
<path d="M4.6999 19.8999H0.899902V23.6999H4.6999V19.8999Z" fill="black"/>
<path d="M4.6999 23.6997H0.899902V27.4997H4.6999V23.6997Z" fill="black"/>
<path d="M8.49971 0.899902H4.69971V4.6999H8.49971V0.899902Z" fill="black"/>
<path d="M8.49971 23.6997H4.69971V27.4997H8.49971V23.6997Z" fill="black"/>
<path d="M12.2995 0.899902H8.49951V4.6999H12.2995V0.899902Z" fill="black"/>
<path d="M12.2995 23.6997H8.49951V27.4997H12.2995V23.6997Z" fill="black"/>
<path d="M16.0998 0.899902H12.2998V4.6999H16.0998V0.899902Z" fill="black"/>
<path d="M16.0998 23.6997H12.2998V27.4997H16.0998V23.6997Z" fill="black"/>
<path d="M19.9001 0.899902H16.1001V4.6999H19.9001V0.899902Z" fill="black"/>
<path d="M19.9001 23.6997H16.1001V27.4997H19.9001V23.6997Z" fill="black"/>
<path d="M23.6999 0.899902H19.8999V4.6999H23.6999V0.899902Z" fill="black"/>
<path d="M23.6999 23.6997H19.8999V27.4997H23.6999V23.6997Z" fill="black"/>
<path d="M27.4997 0.899902H23.6997V4.6999H27.4997V0.899902Z" fill="black"/>
<path d="M27.4997 4.69971H23.6997V8.49971H27.4997V4.69971Z" fill="black"/>
<path d="M27.4997 8.49951H23.6997V12.2995H27.4997V8.49951Z" fill="black"/>
<path d="M27.4997 12.2998H23.6997V16.0998H27.4997V12.2998Z" fill="black"/>
<path d="M27.4997 16.1001H23.6997V19.9001H27.4997V16.1001Z" fill="black"/>
<path d="M27.4997 19.8999H23.6997V23.6999H27.4997V19.8999Z" fill="black"/>
<path d="M27.4997 23.6997H23.6997V27.4997H27.4997V23.6997Z" fill="black"/>
<path d="M12.3 8.5H8.5V12.3H12.3V8.5Z" fill="black"/>
<path d="M12.3 12.3003H8.5V16.1003H12.3V12.3003Z" fill="black"/>
<path d="M12.3 16.1001H8.5V19.9001H12.3V16.1001Z" fill="black"/>
<path d="M16.1003 8.5H12.3003V12.3H16.1003V8.5Z" fill="black"/>
<path d="M16.1003 12.3003H12.3003V16.1003H16.1003V12.3003Z" fill="black"/>
<path d="M16.1003 16.1001H12.3003V19.9001H16.1003V16.1001Z" fill="black"/>
<path d="M19.9001 8.5H16.1001V12.3H19.9001V8.5Z" fill="black"/>
<path d="M19.9001 12.3003H16.1001V16.1003H19.9001V12.3003Z" fill="black"/>
<path d="M19.9001 16.1001H16.1001V19.9001H19.9001V16.1001Z" fill="black"/>
<path d="M88.3 0.899902H84.5V4.6999H88.3V0.899902Z" fill="black"/>
<path d="M88.3 4.69971H84.5V8.49971H88.3V4.69971Z" fill="black"/>
<path d="M88.3 8.49951H84.5V12.2995H88.3V8.49951Z" fill="black"/>
<path d="M88.3 12.2998H84.5V16.0998H88.3V12.2998Z" fill="black"/>
<path d="M88.3 16.1001H84.5V19.9001H88.3V16.1001Z" fill="black"/>
<path d="M88.3 19.8999H84.5V23.6999H88.3V19.8999Z" fill="black"/>
<path d="M88.3 23.6997H84.5V27.4997H88.3V23.6997Z" fill="black"/>
<path d="M92.0998 0.899902H88.2998V4.6999H92.0998V0.899902Z" fill="black"/>
<path d="M92.0998 23.6997H88.2998V27.4997H92.0998V23.6997Z" fill="black"/>
<path d="M95.8996 0.899902H92.0996V4.6999H95.8996V0.899902Z" fill="black"/>
<path d="M95.8996 23.6997H92.0996V27.4997H95.8996V23.6997Z" fill="black"/>
<path d="M99.6999 0.899902H95.8999V4.6999H99.6999V0.899902Z" fill="black"/>
<path d="M99.6999 23.6997H95.8999V27.4997H99.6999V23.6997Z" fill="black"/>
<path d="M103.5 0.899902H99.7002V4.6999H103.5V0.899902Z" fill="black"/>
<path d="M103.5 23.6997H99.7002V27.4997H103.5V23.6997Z" fill="black"/>
<path d="M107.3 0.899902H103.5V4.6999H107.3V0.899902Z" fill="black"/>
<path d="M107.3 23.6997H103.5V27.4997H107.3V23.6997Z" fill="black"/>
<path d="M111.1 0.899902H107.3V4.6999H111.1V0.899902Z" fill="black"/>
<path d="M111.1 4.69971H107.3V8.49971H111.1V4.69971Z" fill="black"/>
<path d="M111.1 8.49951H107.3V12.2995H111.1V8.49951Z" fill="black"/>
<path d="M111.1 12.2998H107.3V16.0998H111.1V12.2998Z" fill="black"/>
<path d="M111.1 16.1001H107.3V19.9001H111.1V16.1001Z" fill="black"/>
<path d="M111.1 19.8999H107.3V23.6999H111.1V19.8999Z" fill="black"/>
<path d="M111.1 23.6997H107.3V27.4997H111.1V23.6997Z" fill="black"/>
<path d="M95.8996 8.5H92.0996V12.3H95.8996V8.5Z" fill="black"/>
<path d="M95.8996 12.3003H92.0996V16.1003H95.8996V12.3003Z" fill="black"/>
<path d="M95.8996 16.1001H92.0996V19.9001H95.8996V16.1001Z" fill="black"/>
<path d="M99.6999 8.5H95.8999V12.3H99.6999V8.5Z" fill="black"/>
<path d="M99.6999 12.3003H95.8999V16.1003H99.6999V12.3003Z" fill="black"/>
<path d="M99.6999 16.1001H95.8999V19.9001H99.6999V16.1001Z" fill="black"/>
<path d="M103.5 8.5H99.6997V12.3H103.5V8.5Z" fill="black"/>
<path d="M103.5 12.3003H99.6997V16.1003H103.5V12.3003Z" fill="black"/>
<path d="M103.5 16.1001H99.6997V19.9001H103.5V16.1001Z" fill="black"/>
<path d="M4.6999 84.5H0.899902V88.3H4.6999V84.5Z" fill="black"/>
<path d="M4.6999 88.2998H0.899902V92.0998H4.6999V88.2998Z" fill="black"/>
<path d="M4.6999 92.0996H0.899902V95.8996H4.6999V92.0996Z" fill="black"/>
<path d="M4.6999 95.8999H0.899902V99.6999H4.6999V95.8999Z" fill="black"/>
<path d="M4.6999 99.7002H0.899902V103.5H4.6999V99.7002Z" fill="black"/>
<path d="M4.6999 103.5H0.899902V107.3H4.6999V103.5Z" fill="black"/>
<path d="M4.6999 107.3H0.899902V111.1H4.6999V107.3Z" fill="black"/>
<path d="M8.49971 84.5H4.69971V88.3H8.49971V84.5Z" fill="black"/>
<path d="M8.49971 107.3H4.69971V111.1H8.49971V107.3Z" fill="black"/>
<path d="M12.2995 84.5H8.49951V88.3H12.2995V84.5Z" fill="black"/>
<path d="M12.2995 107.3H8.49951V111.1H12.2995V107.3Z" fill="black"/>
<path d="M16.0998 84.5H12.2998V88.3H16.0998V84.5Z" fill="black"/>
<path d="M16.0998 107.3H12.2998V111.1H16.0998V107.3Z" fill="black"/>
<path d="M19.9001 84.5H16.1001V88.3H19.9001V84.5Z" fill="black"/>
<path d="M19.9001 107.3H16.1001V111.1H19.9001V107.3Z" fill="black"/>
<path d="M23.6999 84.5H19.8999V88.3H23.6999V84.5Z" fill="black"/>
<path d="M23.6999 107.3H19.8999V111.1H23.6999V107.3Z" fill="black"/>
<path d="M27.4997 84.5H23.6997V88.3H27.4997V84.5Z" fill="black"/>
<path d="M27.4997 88.2998H23.6997V92.0998H27.4997V88.2998Z" fill="black"/>
<path d="M27.4997 92.0996H23.6997V95.8996H27.4997V92.0996Z" fill="black"/>
<path d="M27.4997 95.8999H23.6997V99.6999H27.4997V95.8999Z" fill="black"/>
<path d="M27.4997 99.7002H23.6997V103.5H27.4997V99.7002Z" fill="black"/>
<path d="M27.4997 103.5H23.6997V107.3H27.4997V103.5Z" fill="black"/>
<path d="M27.4997 107.3H23.6997V111.1H27.4997V107.3Z" fill="black"/>
<path d="M12.3 92.0996H8.5V95.8996H12.3V92.0996Z" fill="black"/>
<path d="M12.3 95.8999H8.5V99.6999H12.3V95.8999Z" fill="black"/>
<path d="M12.3 99.6997H8.5V103.5H12.3V99.6997Z" fill="black"/>
<path d="M16.1003 92.0996H12.3003V95.8996H16.1003V92.0996Z" fill="black"/>
<path d="M16.1003 95.8999H12.3003V99.6999H16.1003V95.8999Z" fill="black"/>
<path d="M16.1003 99.6997H12.3003V103.5H16.1003V99.6997Z" fill="black"/>
<path d="M19.9001 92.0996H16.1001V95.8996H19.9001V92.0996Z" fill="black"/>
<path d="M19.9001 95.8999H16.1001V99.6999H19.9001V95.8999Z" fill="black"/>
<path d="M19.9001 99.6997H16.1001V103.5H19.9001V99.6997Z" fill="black"/>
<g filter="url(#filter0_b_1633_69623)">
<path d="M56.2206 54.8641C56.2206 54.7197 56.1663 54.6656 55.9309 54.6656C55.6955 54.6656 55.6412 54.7197 55.6412 54.8641V56.5422H56.2206V54.8641Z" fill="black"/>
<path d="M56 68C64.2843 68 71 64.836 71 56.5C71 48.164 64.2843 45 56 45C47.7157 45 41 48.164 41 56.5C41 64.836 47.7157 68 56 68ZM61.9617 52.0853H60.2961C59.8435 52.0853 59.6444 51.8869 59.6444 51.4358V50.4794C59.6444 50.0283 59.8435 49.8298 60.2961 49.8298H61.9617C62.4143 49.8298 62.6135 50.0283 62.6135 50.4794V51.4358C62.6135 51.8869 62.4143 52.0853 61.9617 52.0853ZM59.8435 64.68C59.2642 64.68 59.0107 64.4815 59.0107 64.0304V63.4349C59.0107 63.2545 59.0107 63.038 59.1375 62.9117C59.2435 62.806 59.3558 62.7869 59.4488 62.7712C59.5146 62.76 59.5707 62.7505 59.6082 62.7132C59.6806 62.641 59.6806 62.5327 59.6806 62.3884V53.0597C59.6806 52.6086 59.8797 52.4101 60.3323 52.4101H61.9255C62.3781 52.4101 62.5773 52.6086 62.5773 53.0597V62.7132C62.5773 64.0304 61.9255 64.68 60.6039 64.68H59.8435ZM52.4903 61.9012C52.617 62.4245 52.3997 62.6951 51.8566 62.6951H50.1729C49.7927 62.6951 49.5936 62.5508 49.5393 62.1538L48.7427 57.8774V62.0455C48.7427 62.4966 48.5435 62.6951 48.0909 62.6951H46.4978C46.0452 62.6951 45.846 62.4966 45.846 62.0455V50.5336C45.846 50.0825 46.0452 49.884 46.4978 49.884H48.0909C48.5435 49.884 48.7427 50.0825 48.7427 50.5336V57.2278L49.6841 52.9153C49.7565 52.5545 49.9376 52.4101 50.3177 52.4101H51.8928C52.454 52.4101 52.6532 52.6808 52.5265 53.2221L51.4402 57.4263L52.4903 61.9012ZM58.4112 58.96C58.8457 58.96 59.0448 59.1585 59.0448 59.5916V60.3133C59.0448 61.9734 58.212 62.8034 56.5464 62.8034H55.2791C53.6136 62.8034 52.7808 61.9734 52.7808 60.3133V54.7919C52.7808 53.1319 53.6136 52.3019 55.2791 52.3019H56.5464C58.212 52.3019 59.0448 53.1319 59.0448 54.7919V58.0398C59.0448 58.4909 58.8457 58.6894 58.3931 58.6894H55.6412V60.2412C55.6412 60.3855 55.6955 60.4396 55.8404 60.4396H56.0576C56.2025 60.4396 56.2568 60.3855 56.2568 60.2412V59.5555C56.2568 59.1405 56.4378 58.96 56.8542 58.96H58.4112ZM66.1537 51.4358C66.1537 51.8869 65.9546 52.0853 65.5019 52.0853H63.8364C63.3838 52.0853 63.1846 51.8869 63.1846 51.4358V50.4794C63.1846 50.0283 63.3838 49.8298 63.8364 49.8298H65.5019C65.9546 49.8298 66.1537 50.0283 66.1537 50.4794V51.4358ZM66.1175 62.0455C66.1175 62.4966 65.9183 62.6951 65.4657 62.6951H63.8726C63.42 62.6951 63.2208 62.4966 63.2208 62.0455V53.0597C63.2208 52.6086 63.42 52.4101 63.8726 52.4101H65.4657C65.9183 52.4101 66.1175 52.6086 66.1175 53.0597V62.0455Z" fill="black"/>
</g>
</g>
<defs>
<filter id="filter0_b_1633_69623" x="39.1275" y="43.1275" width="33.7451" height="26.7451" filterUnits="userSpaceOnUse" color-interpolation-filters="sRGB">
<feFlood flood-opacity="0" result="BackgroundImageFix"/>
<feGaussianBlur in="BackgroundImageFix" stdDeviation="0.936264"/>
<feComposite in2="SourceAlpha" operator="in" result="effect1_backgroundBlur_1633_69623"/>
<feBlend mode="normal" in="SourceGraphic" in2="effect1_backgroundBlur_1633_69623" result="shape"/>
</filter>
<clipPath id="clip0_1633_69623">
<rect width="112" height="112" fill="white"/>
</clipPath>
</defs>
</svg>
